<?xml version="1.0" encoding="utf-8"?>
<!-- Generator: Adobe Illustrator 22.1.0, SVG Export Plug-In . SVG Version: 6.00 Build 0)  -->
<svg version="1.1" id="Calque_1" xmlns="http://www.w3.org/2000/svg" xmlns:xlink="http://www.w3.org/1999/xlink" x="0px" y="0px"
	 viewBox="0 0 56.6 56.6" enable-background="new 0 0 56.6 56.6" xml:space="preserve">
<g>
	<path fill="#642AE6" d="M28.3,56.6L28.3,56.6C12.7,56.6,0,43.9,0,28.3v0C0,12.7,12.7,0,28.3,0h0c15.6,0,28.3,12.7,28.3,28.3v0
		C56.6,43.9,43.9,56.6,28.3,56.6z"/>
	<g>
		<g>
			<g>
				<g>
					<path fill="#FFFFFF" d="M22.3,38c1.1,4,3,7.3,5,8.1V38H22.3z"/>
				</g>
			</g>
			<g>
				<g>
					<path fill="#FFFFFF" d="M21.1,29.7c0.1,2.1,0.3,4.2,0.7,6.2h5.5v-6.2H21.1z"/>
				</g>
			</g>
			<g>
				<g>
					<path fill="#FFFFFF" d="M29.3,38v8.1c2-0.8,3.8-4.1,5-8.1H29.3z"/>
				</g>
			</g>
			<g>
				<g>
					<path fill="#FFFFFF" d="M19,29.7h-8.2c0.1,2.2,0.7,4.3,1.5,6.2h7.4C19.3,33.9,19.1,31.8,19,29.7z"/>
				</g>
			</g>
			<g>
				<g>
					<path fill="#FFFFFF" d="M20.2,38h-6.7c2.3,3.7,6,6.6,10.3,7.8C22.2,43.9,21,41,20.2,38z"/>
				</g>
			</g>
			<g>
				<g>
					<path fill="#FFFFFF" d="M36.4,38c-0.8,3.1-2,5.9-3.5,7.8c4.3-1.2,7.9-4.1,10.3-7.8H36.4z"/>
				</g>
			</g>
			<g>
				<g>
					<path fill="#FFFFFF" d="M37.6,29.7c-0.1,2.1-0.3,4.2-0.7,6.2h7.4c0.9-1.9,1.4-4,1.5-6.2H37.6z"/>
				</g>
			</g>
			<g>
				<g>
					<path fill="#FFFFFF" d="M29.3,29.7v6.2h5.5c0.4-2,0.7-4.1,0.7-6.2H29.3z"/>
				</g>
			</g>
		</g>
		<g>
			<path fill="#FFFFFF" d="M34.4,23.4c-0.4-1.1-1.1-2.6-2.4-3.5c-0.5-0.3-0.9-0.5-1.4-0.7c-0.5-0.2-1.2-0.3-1.8-0.3l0.9,9h5.7
				C35.1,26.4,34.9,24.9,34.4,23.4z"/>
			<path fill="#FFFFFF" d="M28.3,18.5c2.2,0,4-1.8,4-4c0-2.2-1.8-4-4-4c-2.2,0-4,1.8-4,4C24.3,16.7,26.1,18.5,28.3,18.5z"/>
			<path fill="#FFFFFF" d="M27.9,18.9c-1.8,0.1-3.2,0.7-3.8,1.4c-0.9,0.9-1.5,2.1-1.8,3.1c-0.5,1.5-0.8,3-1,4.5h5.6L27.9,18.9z"/>
		</g>
		<g>
			<path fill="#FFFFFF" d="M44.9,24c-0.3-0.9-0.9-2.2-2-3.1c-0.4-0.3-0.8-0.5-1.2-0.6c-0.5-0.1-1-0.2-1.6-0.3l0.7,7.8h5
				C45.6,26.6,45.4,25.3,44.9,24z"/>
			<path fill="#FFFFFF" d="M43.1,16.2c0-1.9-1.6-3.5-3.5-3.5c-1.9,0-3.5,1.6-3.5,3.5c0,1.9,1.6,3.5,3.5,3.5
				C41.6,19.7,43.1,18.2,43.1,16.2z"/>
			<path fill="#FFFFFF" d="M36,21.3c-0.1,0.1-0.1,0.1-0.2,0.2c0.6,1.4,1.3,3.6,1.7,6.4h0.9l0.9-7.8C37.7,20.1,36.5,20.7,36,21.3z"/>
		</g>
		<g>
			<path fill="#FFFFFF" d="M11.7,24c0.3-0.9,0.9-2.2,2-3.1c0.4-0.3,0.8-0.5,1.2-0.6c0.5-0.1,1-0.2,1.6-0.3l-0.7,7.8h-5
				C11,26.6,11.3,25.3,11.7,24z"/>
			<path fill="#FFFFFF" d="M13.5,16.2c0-1.9,1.6-3.5,3.5-3.5c1.9,0,3.5,1.6,3.5,3.5c0,1.9-1.6,3.5-3.5,3.5
				C15.1,19.7,13.5,18.2,13.5,16.2z"/>
			<path fill="#FFFFFF" d="M20.7,21.3c0.1,0.1,0.1,0.1,0.2,0.2c-0.6,1.4-1.3,3.6-1.7,6.4h-0.9l-0.9-7.8
				C18.9,20.1,20.2,20.7,20.7,21.3z"/>
		</g>
	</g>
</g>
</svg>
