<?xml version="1.0" encoding="utf-8"?>
<!-- Generator: Adobe Illustrator 22.1.0, SVG Export Plug-In . SVG Version: 6.00 Build 0)  -->
<svg version="1.1" id="Calque_1" xmlns="http://www.w3.org/2000/svg" xmlns:xlink="http://www.w3.org/1999/xlink" x="0px" y="0px"
	 viewBox="0 0 56.6 56.6" enable-background="new 0 0 56.6 56.6" xml:space="preserve">
<g>
	<path fill="#642AE6" d="M28.3,56.6L28.3,56.6C12.7,56.6,0,43.9,0,28.3v0C0,12.7,12.7,0,28.3,0h0c15.6,0,28.3,12.7,28.3,28.3v0
		C56.6,43.9,43.9,56.6,28.3,56.6z"/>
</g>
<g>
	<g id="_x33_6_9_">
		<g>
			<path fill="#FFFFFF" d="M20.3,16.8h12.9c0.3,0,0.6-0.3,0.6-0.6c0-0.3-0.3-0.6-0.6-0.6H20.3c-0.3,0-0.6,0.3-0.6,0.6
				C19.7,16.5,20,16.8,20.3,16.8z"/>
			<path fill="#FFFFFF" d="M8.8,22.8h12.9c0.3,0,0.6-0.3,0.6-0.6c0-0.3-0.3-0.6-0.6-0.6H8.8c-0.3,0-0.6,0.3-0.6,0.6
				C8.2,22.5,8.5,22.8,8.8,22.8z"/>
			<path fill="#FFFFFF" d="M12.3,29.1c0,0.3,0.3,0.6,0.6,0.6h12.9c0.3,0,0.6-0.3,0.6-0.6s-0.3-0.6-0.6-0.6H12.9
				C12.5,28.5,12.3,28.8,12.3,29.1z"/>
			<path fill="#FFFFFF" d="M19.6,36.2H8.1c-0.3,0-0.6,0.3-0.6,0.6c0,0.3,0.3,0.6,0.6,0.6h11.6c0.3,0,0.6-0.3,0.6-0.6
				C20.2,36.5,20,36.2,19.6,36.2z"/>
			<path fill="#FFFFFF" d="M40.4,20.7c1.8,0,3.3-1.5,3.3-3.3S42.3,14,40.4,14c-1.8,0-3.3,1.5-3.3,3.3C37.1,19.2,38.6,20.7,40.4,20.7
				z"/>
			<path fill="#FFFFFF" d="M45.9,19.7c-1.9,2.7-4.5,3-7.3,1.4c-0.2-0.1-1-0.6-1.2-0.7c-4.4-2.6-8.9-1.6-11.9,2.6
				c-1.3,1.8,1.7,3.5,2.9,1.7c1.5-2.2,3.5-2.8,5.6-2.1c-1.1,1.9-2.1,3.8-3.4,6.5c-1.4,2.7-4.3,4.8-7.2,3.2c-2.1-1.2-3.9,1.8-1.9,3
				c3.9,2.3,8.5,0.9,10.9-2.1c0.1,0,0.2,0.1,0.3,0.1c1.9,0.7,4.4,2.4,5.2,3.1c0.8,0.6,2.1,3.8,2.9,5.5c0.9,2,4,0.5,3.1-1.4
				c-0.9-1.8-2.4-5.5-3.5-6.4c-0.9-0.7-2.7-2.1-4.3-2.9c1-2,2.1-4,3.2-5.9c3.6,1.1,7.1-0.2,9.5-3.6C50.1,19.6,47.2,17.9,45.9,19.7z"
				/>
		</g>
	</g>
</g>
<path fill="#642AE6" d="M38.5,20.8c0,0-1.7,3.7-4.2,4.5l-0.2,1.8l2-0.4c0,0,1.8-1.7,2.9-5.7L38.5,20.8z"/>
</svg>
