<?xml version="1.0" encoding="utf-8"?>
<!-- Generator: Adobe Illustrator 22.1.0, SVG Export Plug-In . SVG Version: 6.00 Build 0)  -->
<svg version="1.1" id="Calque_1" xmlns="http://www.w3.org/2000/svg" xmlns:xlink="http://www.w3.org/1999/xlink" x="0px" y="0px"
	 viewBox="0 0 56.6 56.6" enable-background="new 0 0 56.6 56.6" xml:space="preserve">
<g>
	<path fill="#642AE6" d="M28.3,56.6L28.3,56.6C12.7,56.6,0,43.9,0,28.3v0C0,12.7,12.7,0,28.3,0h0c15.6,0,28.3,12.7,28.3,28.3v0
		C56.6,43.9,43.9,56.6,28.3,56.6z"/>
	<g>
		<path fill="#FFFFFF" d="M25.3,39.9v-5.5c0-0.7-0.6-1.3-1.4-1.3h-7.7c-0.7,0-1.3,0.6-1.3,1.3v5.5c0,0.7,0.6,1.3,1.3,1.3H24
			C24.7,41.2,25.3,40.6,25.3,39.9z M26.2,13.3c0-2.2,1.8-4,4-4c2.2,0,4,1.8,4,4c0,2.2-1.8,4-4,4C28,17.3,26.2,15.5,26.2,13.3z
			 M41.1,26.3c-0.4,0.3-0.9,0.6-1.3,0.9c-0.4,0.3-0.9,0.6-1.3,0.9l-0.1,0.1c-0.2,0.2-0.7,0.6-1.5,0.6c-0.3,0-0.6-0.1-0.9-0.2
			c-1.2-0.6-1.5-2-1.6-2.7c-0.1-0.4-0.2-0.8-0.2-1.2c-0.1-0.7-0.2-1.2-0.4-1.7c0.1,1.8,0.3,3.7,0.4,5.5c0,0.8,0.1,1.6,0.1,2.4
			c0,1-0.1,1.7,0.4,2.6c0.5,1,0.9,2,1.1,3c0.2,0.9,0.4,1.8,0.3,2.9l-0.8,6.3c-0.1,0.9-0.9,1.6-1.8,1.6c-0.1,0-0.2,0-0.2,0
			c-1-0.1-1.7-1.1-1.6-2.1l0.8-6.3c0.1-0.5,0-0.9-0.2-1.6c-0.2-0.9-0.7-1.9-1.2-2.9c-0.3-0.6-0.6-1.1-0.8-1.7c0,0,0,0,0,0l0,5.4
			L29,45.7c-0.1,0.9-0.9,1.6-1.8,1.6c-0.1,0-0.2,0-0.3,0c-1-0.2-1.7-1.1-1.6-2.1l1.1-7.4c0,0-0.1-5.9-0.1-6.1c0-0.6,0-1.3,0.1-1.9
			v-0.4c0-0.1,0-0.2,0-0.3c0.1-3.1,0.3-6,0.3-7.3c-0.2,0.1-0.3,0.3-0.5,0.4c-1.2,1-2.1,2.1-3.2,3.3c-0.3,0.3-0.6,0.7-0.8,1
			C22,26.8,22,27.1,21.9,28c0,0.9-0.1,1.8-0.1,2.7c0,0.8-0.6,1.4-1.4,1.4c-0.8,0-1.4-0.6-1.4-1.4c0-1,0-1.9,0.1-2.8
			c0-1,0.1-2.2,1.1-3.3c0.3-0.3,0.5-0.6,0.8-1c1.1-1.3,2.2-2.6,3.5-3.7c0.9-0.7,1.9-1.3,2.9-1.7c0.2-0.1,0.5-0.2,0.7-0.2
			c0.6-0.1,1.2-0.2,1.7-0.2l-1.3,11l1.7,1.8l1.5-1.8l-1-11c0.7,0,1.4,0.2,2.1,0.4c2,0.7,3.3,2.5,3.8,4.5c0.1,0.5,0.2,1.1,0.3,1.6
			c0.1,0.3,0.1,0.7,0.2,1c0,0.1,0,0.2,0.1,0.3c0.3-0.2,0.6-0.4,0.9-0.7c0.4-0.3,0.8-0.6,1.2-0.9c0.6-0.5,1.5-0.3,2,0.3
			C41.9,25,41.7,25.9,41.1,26.3z"/>
	</g>
</g>
</svg>
