<?xml version="1.0" encoding="utf-8"?>
<!-- Generator: Adobe Illustrator 22.1.0, SVG Export Plug-In . SVG Version: 6.00 Build 0)  -->
<svg version="1.1" id="Calque_1" xmlns="http://www.w3.org/2000/svg" xmlns:xlink="http://www.w3.org/1999/xlink" x="0px" y="0px"
	 viewBox="0 0 56.6 56.6" enable-background="new 0 0 56.6 56.6" xml:space="preserve">
<g>
	<path fill="#642AE6" d="M28.3,56.6L28.3,56.6C12.7,56.6,0,43.9,0,28.3v0C0,12.7,12.7,0,28.3,0h0c15.6,0,28.3,12.7,28.3,28.3v0
		C56.6,43.9,43.9,56.6,28.3,56.6z"/>
	<g>
		<path fill="#FFFFFF" d="M24.6,14.9c0-2.1,1.7-3.8,3.8-3.8c2.1,0,3.8,1.7,3.8,3.8c0,2.1-1.7,3.8-3.8,3.8
			C26.3,18.7,24.6,17,24.6,14.9z M40.9,19.7c1.7,0,3-1.3,3-3c0-1.7-1.3-3-3-3c-1.7,0-3,1.3-3,3C37.9,18.3,39.3,19.7,40.9,19.7z
			 M46.2,27.3c-0.3,2.1-1.1,3.5-2.2,5.1l0.6,8c0.1,0.8-0.5,1.4-1.3,1.5c0,0-0.1,0-0.1,0c-0.7,0-1.3-0.6-1.4-1.3l-0.7-9.4
			c-0.1,0-0.2-0.1-0.3-0.1c-0.1,0-0.2,0-0.3,0L40,40.8c0,0.7-0.7,1.3-1.4,1.3c0,0-0.1,0-0.1,0c-0.8,0-1.3-0.7-1.3-1.5l0.7-11.3
			c0-0.1,0-0.2,0-0.2c0.1-1.4,0.2-3.3,0.3-4.7c-0.5,1.6-0.8,3.4-0.9,5.2c-0.1-0.5-0.2-1.1-0.2-1.6c-0.2-1.3-0.4-2.8-0.8-4.3
			c0-0.1,0-0.1,0.1-0.2c0.3-0.8,0.8-1.9,1.8-2.6c0.3-0.2,0.7-0.4,1.1-0.5c0.4-0.1,0.9-0.2,1.4-0.2l-0.8,8.1l1.1,1.3l1.3-1.3l-1-8.2
			c0.8,0,1.4,0.2,2,0.4c0.5,0.2,1,0.5,1.5,1C46,22.7,46.6,24.8,46.2,27.3z M43.5,23.3c0.1,1.1,0.1,3,0.2,5c0,0.1,0,0.1,0,0.2v0
			c0.1-0.4,0.3-0.9,0.3-1.5C44.2,26.1,44.3,24.5,43.5,23.3z M15.7,19.7c1.7,0,3-1.3,3-3c0-1.7-1.3-3-3-3c-1.7,0-3,1.3-3,3
			C12.7,18.3,14,19.7,15.7,19.7z M19.3,29.6c-0.1-0.3-0.4-3.7-1-5.3c0.1,1.4,0.2,3.3,0.3,4.7c0,0.1,0,0.1,0,0.2l0.7,11.3
			c0,0.8-0.5,1.4-1.3,1.5c0,0-0.1,0-0.1,0c-0.7,0-1.3-0.6-1.4-1.3L16,31.2c-0.1,0-0.2,0-0.3,0c-0.1,0-0.2,0-0.3,0.1l-0.7,9.4
			c-0.1,0.7-0.7,1.3-1.4,1.3c0,0-0.1,0-0.1,0c-0.8-0.1-1.3-0.7-1.3-1.5l0.6-8c-1.1-1.6-1.9-3.1-2.2-5.1c-0.4-2.5,0.2-4.6,1.6-6
			c0.5-0.5,1-0.8,1.5-1c0.5-0.2,1.2-0.4,2-0.4l-1,8.2l1.3,1.3l1.1-1.3L16.1,20c0.5,0,1,0.1,1.4,0.2c0.4,0.1,0.7,0.2,1.1,0.5
			c1,0.7,1.5,1.8,1.8,2.6c0.1,0.1,0.1,0.3,0.1,0.4c-0.4,1.4-0.6,2.8-0.8,4.1C19.6,28.4,19.4,29.7,19.3,29.6z M13.1,23.3
			c-0.8,1.2-0.7,2.8-0.6,3.7c0.1,0.5,0.2,1,0.3,1.5v0c0-0.1,0-0.1,0-0.2C13,26.3,13.1,24.4,13.1,23.3z M35.4,29.9
			c-0.1-0.6-0.2-1.2-0.3-1.8c-0.2-1.6-0.4-3.2-1-4.7c-0.4-1-1-2.5-2.2-3.4c-0.4-0.3-0.9-0.5-1.3-0.6c-0.5-0.2-1.1-0.3-1.7-0.3
			l1,10.3l-1.4,1.7l-1.6-1.7L28,19.1c-1.8,0.1-3.1,0.7-3.7,1.4c-0.9,0.8-1.4,2-1.7,2.9c-0.6,1.6-0.8,3.2-1,4.7
			c-0.1,0.6-0.2,1.2-0.3,1.8c-0.1,0.7,0.4,1.4,1.1,1.6c0.1,0,0.2,0,0.2,0c0.6,0,1.2-0.5,1.3-1.1c0.1-0.6,0.2-1.2,0.3-1.9
			c0.2-1.4,0.4-2.6,0.8-3.8c-0.1,1.4-0.2,3.2-0.2,5.1c0,0.1,0,0.1,0,0.2l-1.1,15.2c-0.1,1,0.7,1.8,1.6,1.9c0,0,0.1,0,0.1,0
			c0.9,0,1.7-0.7,1.7-1.6l0.8-12c0.1,0,0.3-0.1,0.4-0.1c0.1,0,0.3,0,0.4,0l0.8,12.1c0.1,0.9,0.8,1.6,1.7,1.6c0,0,0.1,0,0.1,0
			c1-0.1,1.7-0.9,1.6-1.9l-0.9-14.4c0-0.1,0-0.2,0-0.3c-0.1-1.7-0.2-4.1-0.4-5.9c0.4,1.2,0.6,2.5,0.8,3.8c0.1,0.6,0.2,1.2,0.3,1.9
			c0.1,0.7,0.7,1.1,1.3,1.1c0.1,0,0.2,0,0.2,0C35,31.3,35.5,30.6,35.4,29.9z"/>
	</g>
</g>
</svg>
