<?xml version="1.0" encoding="utf-8"?>
<!-- Generator: Adobe Illustrator 22.1.0, SVG Export Plug-In . SVG Version: 6.00 Build 0)  -->
<svg version="1.1" id="Calque_1" xmlns="http://www.w3.org/2000/svg" xmlns:xlink="http://www.w3.org/1999/xlink" x="0px" y="0px"
	 viewBox="0 0 19.8 19.8" style="enable-background:new 0 0 19.8 19.8;" xml:space="preserve">
<style type="text/css">
	.st0{fill:#FFFFFF;}
</style>
<g>
	<g>
		<g>
			<g>
				<path class="st0" d="M17.6,3.8c-0.6-0.6-1.4-0.9-2.3-0.9l0,0c-0.9,0-1.7,0.3-2.3,0.9L8.8,8C8,8.8,7.7,10,8,11.1
					c0.1,0.3,0.4,0.5,0.8,0.4c0.3-0.1,0.5-0.4,0.4-0.8c-0.2-0.7,0-1.4,0.5-2l4.2-4.2c0.8-0.8,2-0.8,2.8,0c0.8,0.8,0.8,2,0,2.8
					l-4.2,4.2c-0.3,0.3-0.6,0.5-1,0.5c-0.3,0.1-0.5,0.4-0.5,0.7c0.1,0.3,0.3,0.5,0.6,0.5c0,0,0.1,0,0.1,0c0.6-0.1,1.2-0.4,1.6-0.9
					l4.2-4.2C18.9,7.1,18.9,5,17.6,3.8z"/>
			</g>
		</g>
	</g>
	<g>
		<g>
			<g>
				<path class="st0" d="M11.8,8.7c-0.1-0.3-0.4-0.5-0.8-0.4c-0.3,0.1-0.5,0.4-0.4,0.8c0.2,0.7,0,1.4-0.5,2l-4.2,4.2
					c-0.8,0.8-2,0.8-2.8,0c-0.8-0.8-0.8-2,0-2.8l4.2-4.2c0.3-0.3,0.6-0.5,1-0.5c0.3-0.1,0.6-0.4,0.5-0.7C8.7,6.6,8.4,6.4,8,6.5
					c0,0,0,0,0,0C7.4,6.6,6.8,6.9,6.4,7.3l-4.2,4.2c-1.3,1.3-1.2,3.3,0,4.6c1.3,1.2,3.3,1.2,4.5,0l4.2-4.2
					C11.8,11.1,12.1,9.9,11.8,8.7z"/>
			</g>
		</g>
	</g>
</g>
</svg>
