<?xml version="1.0" encoding="utf-8"?>
<!-- Generator: Adobe Illustrator 22.1.0, SVG Export Plug-In . SVG Version: 6.00 Build 0)  -->
<svg version="1.1" id="Calque_1" xmlns="http://www.w3.org/2000/svg" xmlns:xlink="http://www.w3.org/1999/xlink" x="0px" y="0px"
	 viewBox="0 0 19.8 19.8" style="enable-background:new 0 0 19.8 19.8;" xml:space="preserve">
<style type="text/css">
	.st0{fill:#FFFFFF;}
</style>
<g>
	<g>
		<path class="st0" d="M5.7,17.4h8.8c0.7,0,1.3-0.6,1.3-1.3V6.8h-3.1c-0.7,0-1.3-0.6-1.3-1.3V2.4H5.7C4.9,2.4,4.3,3,4.3,3.8v12.3
			C4.3,16.8,4.9,17.4,5.7,17.4z M7.4,8.6h5.3c0.2,0,0.4,0.2,0.4,0.4s-0.2,0.4-0.4,0.4H7.4C7.2,9.5,7,9.3,7,9S7.2,8.6,7.4,8.6z
			 M7.4,10.4h5.3c0.2,0,0.4,0.2,0.4,0.4c0,0.2-0.2,0.4-0.4,0.4H7.4C7.2,11.2,7,11,7,10.8C7,10.6,7.2,10.4,7.4,10.4z M7.4,12.1h5.3
			c0.2,0,0.4,0.2,0.4,0.4c0,0.2-0.2,0.4-0.4,0.4H7.4C7.2,13,7,12.8,7,12.6C7,12.3,7.2,12.1,7.4,12.1z M7.4,13.9h3.5
			c0.2,0,0.4,0.2,0.4,0.4c0,0.2-0.2,0.4-0.4,0.4H7.4c-0.2,0-0.4-0.2-0.4-0.4C7,14.1,7.2,13.9,7.4,13.9z"/>
	</g>
	<g>
		<path class="st0" d="M12.7,5.9h2.8l-3.3-3.3v2.8C12.2,5.8,12.4,5.9,12.7,5.9z"/>
	</g>
</g>
</svg>
