<?xml version="1.0" encoding="utf-8"?>
<!-- Generator: Adobe Illustrator 22.1.0, SVG Export Plug-In . SVG Version: 6.00 Build 0)  -->
<svg version="1.1" id="Calque_1" xmlns="http://www.w3.org/2000/svg" xmlns:xlink="http://www.w3.org/1999/xlink" x="0px" y="0px"
	 viewBox="0 0 19.8 19.8" style="enable-background:new 0 0 19.8 19.8;" xml:space="preserve">
<style type="text/css">
	.st0{fill:#FFFFFF;}
</style>
<g>
	<g>
		<g>
			<path class="st0" d="M16.8,3.6H3c-1,0-1.9,0.8-1.9,1.9v8.8c0,1,0.8,1.9,1.9,1.9h13.8c1,0,1.9-0.8,1.9-1.9V5.5
				C18.7,4.5,17.9,3.6,16.8,3.6z M17.5,10.9l-4-4c-0.2-0.2-0.6-0.2-0.9,0l-5.2,5.2l-2.1-2.1c-0.2-0.2-0.6-0.2-0.9,0l-2.1,2.1V5.5
				c0-0.3,0.3-0.6,0.6-0.6h13.8c0.3,0,0.6,0.3,0.6,0.6L17.5,10.9L17.5,10.9z"/>
		</g>
	</g>
	<g>
		<g>
			<circle class="st0" cx="6.8" cy="8" r="1.9"/>
		</g>
	</g>
</g>
</svg>
