<?xml version="1.0" encoding="utf-8"?>
<!-- Generator: Adobe Illustrator 22.1.0, SVG Export Plug-In . SVG Version: 6.00 Build 0)  -->
<svg version="1.1" id="Calque_1" xmlns="http://www.w3.org/2000/svg" xmlns:xlink="http://www.w3.org/1999/xlink" x="0px" y="0px"
	 viewBox="0 0 28.3 28.3" style="enable-background:new 0 0 28.3 28.3;" xml:space="preserve">
<style type="text/css">
	.st0{fill:#FFFFFF;}
</style>
<path class="st0" d="M5,27.2L5,27.2c-0.3,0-0.7-0.1-1-0.3c-1-0.8-1.2-1.6-1.1-2.2c0.2-1.6,2.2-3.3,6-5.1c1.5-3.3,2.9-7.4,3.8-10.7
	c-1-2.2-2-5-1.3-6.6c0.2-0.6,0.6-1,1.1-1.2c0.2-0.1,0.8-0.2,1-0.2c0.5,0,0.9,0.6,1.3,1c0.3,0.4,1,1.2-0.4,6.8
	c1.3,2.8,3.3,5.6,5.1,7.6c1.3-0.2,2.4-0.4,3.4-0.4c1.6,0,2.5,0.4,2.9,1.1c0.3,0.6,0.2,1.3-0.4,2.2c-0.6,0.8-1.3,1.2-2.2,1.2
	c-1.2,0-2.6-0.8-4.2-2.3c-2.8,0.6-6.1,1.7-8.8,2.8c-0.8,1.8-1.6,3.2-2.4,4.3C6.7,26.6,5.9,27.2,5,27.2z M7.6,22.1
	c-2.1,1.2-3,2.2-3.1,2.7c0,0.1,0,0.3,0.4,0.7C5.2,25.5,6,25.1,7.6,22.1z M21.3,17.7c0.8,0.6,1,0.9,1.5,0.9c0.2,0,0.9,0,1.2-0.4
	c0.1-0.2,0.2-0.3,0.2-0.4c-0.1-0.1-0.3-0.2-1.2-0.2C22.6,17.6,22,17.6,21.3,17.7z M13.8,11.1c-0.7,2.5-1.7,5.1-2.7,7.6
	c2.1-0.8,4.4-1.5,6.5-2C16.3,15.1,14.9,13.1,13.8,11.1z M13.2,2.6c-0.1,0-1.3,1.8,0.1,3.2C14.3,3.7,13.2,2.6,13.2,2.6z"/>
</svg>
