<?xml version="1.0" encoding="utf-8"?>
<!-- Generator: Adobe Illustrator 22.1.0, SVG Export Plug-In . SVG Version: 6.00 Build 0)  -->
<svg version="1.1" id="Calque_1" xmlns="http://www.w3.org/2000/svg" xmlns:xlink="http://www.w3.org/1999/xlink" x="0px" y="0px"
	 viewBox="0 0 19.8 19.8" style="enable-background:new 0 0 19.8 19.8;" xml:space="preserve">
<style type="text/css">
	.st0{fill:#FFFFFF;}
</style>
<g>
	<path class="st0" d="M4.2,12.1l8.2-8.2c0.1-0.1,0.2-0.1,0.3-0.1h0c0.1,0,0.2,0,0.3,0.1l2.9,2.9C16,6.9,16.1,7,16.1,7.1
		c0,0.1,0,0.2-0.1,0.3l-8.2,8.2L4.2,12.1z"/>
	<path class="st0" d="M16.3,6.3L16.6,6c0.4-0.4,0.6-0.8,0.6-1.3c0-0.5-0.2-1-0.6-1.4c-0.7-0.7-2-0.7-2.7,0l-0.3,0.3L16.3,6.3z"/>
	<path class="st0" d="M3.9,12.7l-1.2,3.8c0,0.2,0,0.3,0.1,0.5c0.1,0.1,0.2,0.1,0.3,0.1c0,0,0.1,0,0.1,0l3.8-1.2L3.9,12.7z"/>
	<path class="st0" d="M6.9,8c0.1,0,0.2,0,0.3-0.1l2.9-2.9c0.2-0.2,0.4-0.2,0.6-0.2L11.4,4C10.8,3.7,10,3.8,9.5,4.3L6.6,7.2
		c-0.2,0.2-0.2,0.5,0,0.6C6.7,7.9,6.8,8,6.9,8L6.9,8z"/>
</g>
</svg>
