<?xml version="1.0" encoding="utf-8"?>
<!-- Generator: Adobe Illustrator 22.1.0, SVG Export Plug-In . SVG Version: 6.00 Build 0)  -->
<svg version="1.1" id="Calque_1" xmlns="http://www.w3.org/2000/svg" xmlns:xlink="http://www.w3.org/1999/xlink" x="0px" y="0px"
	 viewBox="0 0 28.3 28.3" style="enable-background:new 0 0 28.3 28.3;" xml:space="preserve">
<style type="text/css">
	.st0{fill:#FFFFFF;}
</style>
<path class="st0" d="M8.5,27.2c-0.8,0-1.4-0.6-1.4-1.4V3c0-0.8,0.6-1.4,1.4-1.4h5.7c3.9,0,7.1,3.2,7.1,7.1v2.8
	c0,3.9-3.2,7.1-7.1,7.1H9.9v7.1C9.9,26.5,9.3,27.2,8.5,27.2z M9.9,15.8h4.3c2.4,0,4.3-1.9,4.3-4.3V8.7c0-2.4-1.9-4.3-4.3-4.3H9.9
	C9.9,4.4,9.9,15.8,9.9,15.8z"/>
</svg>
