<?xml version="1.0" encoding="utf-8"?>
<!-- Generator: Adobe Illustrator 22.1.0, SVG Export Plug-In . SVG Version: 6.00 Build 0)  -->
<svg version="1.1" id="Calque_1" xmlns="http://www.w3.org/2000/svg" xmlns:xlink="http://www.w3.org/1999/xlink" x="0px" y="0px"
	 viewBox="0 0 19.8 19.8" style="enable-background:new 0 0 19.8 19.8;" xml:space="preserve">
<style type="text/css">
	.st0{fill:#FFFFFF;}
</style>
<g>
	<g>
		<g>
			<path class="st0" d="M17.8,5.9c-0.2-0.1-0.4-0.1-0.6,0l-3.8,1.9V6.4c0-1-0.8-1.8-1.8-1.8H3.5c-1,0-1.8,0.8-1.8,1.8v7
				c0,1,0.8,1.8,1.8,1.8h8.2c1,0,1.8-0.8,1.8-1.8V12l3.8,1.9c0.3,0.1,0.6,0,0.8-0.3c0-0.1,0.1-0.2,0.1-0.3v-7
				C18.1,6.2,18,6,17.8,5.9z M7.6,12.3c-1.3,0-2.3-1-2.3-2.3s1-2.3,2.3-2.3s2.3,1,2.3,2.3S8.9,12.3,7.6,12.3z"/>
		</g>
	</g>
</g>
</svg>
