<?xml version="1.0" encoding="utf-8"?>
<!-- Generator: Adobe Illustrator 22.1.0, SVG Export Plug-In . SVG Version: 6.00 Build 0)  -->
<svg version="1.1" id="Calque_1" xmlns="http://www.w3.org/2000/svg" xmlns:xlink="http://www.w3.org/1999/xlink" x="0px" y="0px"
	 viewBox="0 0 28.3 28.3" style="enable-background:new 0 0 28.3 28.3;" xml:space="preserve">
<style type="text/css">
	.st0{fill:#FFFFFF;}
</style>
<path class="st0" d="M19.7,25.5c-0.6,0-1.2-0.4-1.3-1L14.2,9.8L10,24.5c-0.3,0.7-1.1,1.1-1.9,0.8c-0.4-0.1-0.6-0.4-0.8-0.8L1.7,5.1
	C1.5,4.4,1.9,3.6,2.6,3.3c0.7-0.2,1.5,0.2,1.7,0.9c0,0,0,0.1,0,0.1l4.2,14.8l4.2-14.8c0.3-0.7,1.1-1.1,1.9-0.8
	c0.4,0.1,0.6,0.4,0.8,0.8l4.2,14.8l4.2-14.8c0.2-0.7,1-1.2,1.7-1c0,0,0,0,0,0c0.7,0.2,1.2,1,1,1.7l-5.6,19.4
	C20.9,25.1,20.3,25.5,19.7,25.5z"/>
</svg>
