<?xml version="1.0" encoding="utf-8"?>
<!-- Generator: Adobe Illustrator 22.1.0, SVG Export Plug-In . SVG Version: 6.00 Build 0)  -->
<svg version="1.1" id="Calque_1" xmlns="http://www.w3.org/2000/svg" xmlns:xlink="http://www.w3.org/1999/xlink" x="0px" y="0px"
	 viewBox="0 0 20 20" enable-background="new 0 0 20 20" xml:space="preserve">
<g>
	<path fill="#9B8CC2" d="M14.3,19.4H5.4c-2.3,0-4.1-1.9-4.1-4.1V4.8c0-2.3,1.9-4.1,4.1-4.1h8.9c2.3,0,4.1,1.9,4.1,4.1v10.5
		C18.4,17.5,16.6,19.4,14.3,19.4z M5.4,1.6C3.7,1.6,2.3,3,2.3,4.8v10.5c0,1.7,1.4,3.1,3.1,3.1h8.9c1.7,0,3.1-1.4,3.1-3.1V4.8
		c0-1.7-1.4-3.1-3.1-3.1H5.4z"/>
	<rect x="9.4" y="1.1" fill="#9B8CC2" width="1" height="17.7"/>
</g>
</svg>
