<?xml version="1.0" encoding="utf-8"?>
<!-- Generator: Adobe Illustrator 22.1.0, SVG Export Plug-In . SVG Version: 6.00 Build 0)  -->
<svg version="1.1" id="Calque_1" xmlns="http://www.w3.org/2000/svg" xmlns:xlink="http://www.w3.org/1999/xlink" x="0px" y="0px"
	 viewBox="0 0 24.5 24.5" enable-background="new 0 0 24.5 24.5" xml:space="preserve">
<g>
	<circle fill="#1EE2E2" cx="12.3" cy="12.3" r="12.3"/>
</g>
<path fill="#FFFFFF" d="M12.4,19.5c-0.5,0-0.9-0.4-0.9-0.9V6c0-0.5,0.4-0.9,0.9-0.9s0.9,0.4,0.9,0.9v12.6
	C13.3,19.1,12.9,19.5,12.4,19.5z"/>
<path fill="#FFFFFF" d="M12.4,19.5c-0.2,0-0.5-0.1-0.7-0.3l-4.6-4.6c-0.4-0.4-0.4-0.9,0-1.3c0.4-0.4,0.9-0.4,1.3,0l3.9,3.9l3.9-3.9
	c0.4-0.4,0.9-0.4,1.3,0s0.4,0.9,0,1.3l-4.6,4.6C12.9,19.4,12.7,19.5,12.4,19.5z"/>
</svg>
