<?xml version="1.0" encoding="utf-8"?>
<!-- Generator: Adobe Illustrator 22.1.0, SVG Export Plug-In . SVG Version: 6.00 Build 0)  -->
<svg version="1.1" id="Capa_1" xmlns="http://www.w3.org/2000/svg" xmlns:xlink="http://www.w3.org/1999/xlink" x="0px" y="0px"
	 viewBox="0 0 60 60" style="enable-background:new 0 0 60 60;" xml:space="preserve">
<style type="text/css">
	.st0{fill:#2E70EA;}
</style>
<path class="st0" d="M-0.1,45.4c0-12.9,11.3-12.9,13.9-16.2l0.3-1.5C10.5,25.9,8,21.7,8,16.6c0-6.6,4.3-12,9.6-12
	c4.3,0,7.7,3.3,9.1,8c-5.4,1.7-9.4,7.4-9.4,14.3c0,4.7,1.9,9.1,5,11.8c-0.6,0.3-1.1,0.6-1.5,0.7c-2.5,1.1-5.9,2.8-8.4,6.1
	C12.4,45.4-0.1,45.4-0.1,45.4z M30.2,55.8L30.2,55.8h-0.3H12.3c0-12.9,11.3-12.9,13.9-16.2l0.3-1.5c-3.6-1.8-6.1-6.1-6.1-11.1
	c0-6.6,4.3-12,9.6-12s9.6,5.4,9.6,12c0,5-2.5,9.4-5.9,11.1l0.3,1.8c2.8,3.2,13.8,3.4,13.8,16.1H30.2V55.8z M47.5,45.4L47.5,45.4
	c-2.5-3.2-5.9-4.8-8.4-6.1c-0.6-0.3-1-0.6-1.5-0.7c3-2.8,5-7.2,5-11.8c0-6.9-4-12.7-9.4-14.3c1.4-4.7,5-8,9.1-8
	c5.4,0,9.6,5.4,9.6,12c0,5-2.5,9.4-5.9,11.1l0.3,1.8C49,32.7,60,32.9,60,45.6H47.5V45.4z"/>
</svg>
