<?xml version="1.0" encoding="utf-8"?>
<!-- Generator: Adobe Illustrator 22.1.0, SVG Export Plug-In . SVG Version: 6.00 Build 0)  -->
<svg version="1.1" id="Calque_1" xmlns="http://www.w3.org/2000/svg" xmlns:xlink="http://www.w3.org/1999/xlink" x="0px" y="0px"
	 viewBox="0 0 24.5 24.5" enable-background="new 0 0 24.5 24.5" xml:space="preserve">
<path fill="#B7B7B7" d="M12.3,1.1c6.2,0,11.2,5,11.2,11.2s-5,11.2-11.2,11.2s-11.2-5-11.2-11.2S6.1,1.1,12.3,1.1 M12.3,0
	C5.5,0,0,5.5,0,12.3s5.5,12.3,12.3,12.3s12.3-5.5,12.3-12.3S19.1,0,12.3,0L12.3,0z"/>
<g>
	<g>
		<path fill="#B7B7B7" d="M7.6,11c-0.7,0-1.3,0.6-1.3,1.3s0.6,1.3,1.3,1.3s1.3-0.6,1.3-1.3S8.3,11,7.6,11L7.6,11z"/>
	</g>
	<g>
		<g>
			<path fill="#B7B7B7" d="M12.3,11c-0.7,0-1.3,0.6-1.3,1.3s0.6,1.3,1.3,1.3s1.3-0.6,1.3-1.3S13,11,12.3,11L12.3,11z"/>
		</g>
		<g>
			<path fill="#B7B7B7" d="M17,11c-0.7,0-1.3,0.6-1.3,1.3s0.6,1.3,1.3,1.3s1.3-0.6,1.3-1.3S17.7,11,17,11L17,11z"/>
		</g>
	</g>
</g>
</svg>
