<?xml version="1.0" encoding="utf-8"?>
<!-- Generator: Adobe Illustrator 22.1.0, SVG Export Plug-In . SVG Version: 6.00 Build 0)  -->
<svg version="1.1" id="Calque_1" xmlns="http://www.w3.org/2000/svg" xmlns:xlink="http://www.w3.org/1999/xlink" x="0px" y="0px"
	 viewBox="0 0 182 80.8" style="enable-background:new 0 0 182 80.8;" xml:space="preserve">
<style type="text/css">
	.st0{fill:#414042;}
	.st1{fill:#8D4BFF;}
	.st2{fill:#AA61FF;}
	.st3{fill:#702EEA;}
</style>
<g>
	<path class="st0" d="M70.5,50.1c-2-0.7-3.6-1.6-4.8-2.8c-0.4-0.4-0.7-1-0.7-1.6c0-0.8,0.3-1.5,1-2c0.6-0.5,1.2-0.7,1.8-0.7
		c0.7,0,1.3,0.3,1.9,0.9c0.6,0.7,1.6,1.3,2.9,1.9c1.3,0.5,2.7,0.8,4.1,0.8c1.9,0,3.4-0.3,4.5-1c1.1-0.6,1.6-1.5,1.6-2.6
		c0-1.1-0.5-1.9-1.6-2.6c-1.1-0.7-2.8-1.3-5.4-1.8c-6.5-1.3-9.8-3.9-9.8-8.1c0-1.7,0.5-3.1,1.5-4.2c1-1.2,2.3-2,3.9-2.6
		c1.6-0.6,3.3-0.9,5.1-0.9c2.2,0,4.2,0.4,5.9,1.1c1.8,0.7,3.1,1.7,4.2,3c0.4,0.5,0.7,1.1,0.7,1.6c0,0.6-0.3,1.1-0.9,1.6
		c-0.4,0.3-0.8,0.4-1.4,0.4c-0.9,0-1.7-0.3-2.4-1c-0.9-0.8-1.8-1.3-2.7-1.7c-1-0.3-2.1-0.5-3.5-0.5c-1.6,0-2.8,0.3-3.9,0.8
		c-1,0.5-1.5,1.3-1.5,2.2c0,0.7,0.2,1.2,0.5,1.7c0.3,0.5,1,0.9,1.9,1.3c1,0.4,2.3,0.8,4.1,1.1c3.7,0.7,6.3,1.8,7.9,3.1
		c1.5,1.3,2.3,3,2.3,5.1c0,1.6-0.4,3-1.3,4.3c-0.8,1.3-2.1,2.3-3.7,3c-1.6,0.7-3.6,1.1-5.9,1.1C74.7,51.1,72.5,50.8,70.5,50.1z"/>
	<path class="st0" d="M105.4,46.5c0.4,0.5,0.6,1.1,0.6,1.8c0,0.7-0.3,1.4-0.8,1.8c-0.6,0.5-1.3,0.7-2.2,0.7h-0.9
		c-1.7,0-3.2-0.4-4.6-1.3c-1.4-0.9-2.5-2-3.2-3.5c-0.8-1.5-1.2-3.2-1.2-5V28.4h-2.3c-0.7,0-1.3-0.2-1.7-0.6
		c-0.4-0.4-0.7-0.9-0.7-1.5c0-0.7,0.2-1.2,0.7-1.6c0.4-0.4,1-0.6,1.7-0.6h2.3v-7.3c0-0.7,0.2-1.4,0.7-1.8c0.5-0.5,1.1-0.7,1.8-0.7
		c0.7,0,1.4,0.2,1.8,0.7c0.5,0.5,0.7,1.1,0.7,1.8V24h4.3c0.7,0,1.3,0.2,1.7,0.6c0.4,0.4,0.7,1,0.7,1.6c0,0.6-0.2,1.1-0.7,1.5
		c-0.4,0.4-1,0.6-1.7,0.6h-4.3V41c0,1.4,0.4,2.5,1.1,3.4c0.7,0.9,1.7,1.4,2.8,1.4h1.7C104.5,45.8,105,46.1,105.4,46.5z"/>
	<path class="st0" d="M132.9,38.1c-0.4,0.4-1,0.6-1.7,0.6h-19.4c0.4,2.4,1.5,4.3,3.2,5.8c1.8,1.5,4,2.2,6.6,2.2c1,0,2.1-0.2,3.2-0.6
		c1.1-0.4,2-0.8,2.7-1.4c0.5-0.4,1-0.6,1.7-0.6c0.6,0,1.2,0.2,1.5,0.5c0.6,0.5,0.9,1.1,0.9,1.7c0,0.6-0.3,1.1-0.8,1.5
		c-1.2,0.9-2.6,1.7-4.3,2.2c-1.7,0.6-3.4,0.9-4.9,0.9c-2.8,0-5.3-0.6-7.5-1.8c-2.2-1.2-3.9-2.9-5.2-5c-1.2-2.1-1.9-4.6-1.9-7.3
		s0.6-5.2,1.8-7.3c1.2-2.2,2.8-3.8,4.9-5.1c2.1-1.2,4.5-1.8,7.1-1.8c2.6,0,4.9,0.6,6.8,1.7c1.9,1.2,3.4,2.8,4.4,4.8
		c1,2.1,1.5,4.5,1.5,7.1C133.6,37.2,133.4,37.7,132.9,38.1z M114.9,29.2c-1.5,1.4-2.5,3.2-2.9,5.5h17c-0.3-2.3-1.2-4.1-2.5-5.5
		c-1.4-1.4-3.2-2-5.5-2C118.4,27.2,116.4,27.9,114.9,29.2z"/>
	<path class="st0" d="M157.1,24.3c1.9,1,3.3,2.5,4.4,4.5c1.1,2,1.6,4.3,1.6,7.1v12.5c0,0.7-0.2,1.4-0.7,1.9
		c-0.5,0.5-1.1,0.7-1.9,0.7c-0.7,0-1.4-0.2-1.9-0.7c-0.5-0.5-0.7-1.1-0.7-1.9V35.8c0-2.8-0.7-4.8-2.2-6.2c-1.5-1.4-3.4-2.1-5.9-2.1
		c-1.4,0-2.7,0.3-3.9,0.9c-1.2,0.6-2.1,1.4-2.8,2.3c-0.7,1-1,2.1-1,3.3v14.4c0,0.7-0.2,1.4-0.7,1.9c-0.5,0.5-1.1,0.7-1.9,0.7
		c-0.7,0-1.4-0.2-1.9-0.7c-0.5-0.5-0.7-1.1-0.7-1.9V25.6c0-0.8,0.2-1.4,0.7-1.9c0.5-0.5,1.1-0.7,1.9-0.7c0.8,0,1.4,0.2,1.9,0.7
		c0.5,0.5,0.7,1.1,0.7,1.9v0.6c1.1-1.1,2.4-1.9,3.9-2.5c1.5-0.6,3.1-0.9,4.8-0.9C153.1,22.8,155.2,23.3,157.1,24.3z"/>
	<path class="st0" d="M181.4,46.5c0.4,0.5,0.6,1.1,0.6,1.8c0,0.7-0.3,1.4-0.8,1.8c-0.6,0.5-1.3,0.7-2.2,0.7h-0.9
		c-1.7,0-3.2-0.4-4.6-1.3c-1.4-0.9-2.5-2-3.2-3.5c-0.8-1.5-1.2-3.2-1.2-5V28.4h-2.3c-0.7,0-1.3-0.2-1.7-0.6
		c-0.4-0.4-0.7-0.9-0.7-1.5c0-0.7,0.2-1.2,0.7-1.6c0.4-0.4,1-0.6,1.7-0.6h2.3v-7.3c0-0.7,0.2-1.4,0.7-1.8c0.5-0.5,1.1-0.7,1.8-0.7
		c0.7,0,1.4,0.2,1.8,0.7c0.5,0.5,0.7,1.1,0.7,1.8V24h4.3c0.7,0,1.3,0.2,1.7,0.6c0.4,0.4,0.7,1,0.7,1.6c0,0.6-0.2,1.1-0.7,1.5
		c-0.4,0.4-1,0.6-1.7,0.6h-4.3V41c0,1.4,0.4,2.5,1.1,3.4c0.7,0.9,1.7,1.4,2.8,1.4h1.7C180.4,45.8,180.9,46.1,181.4,46.5z"/>
	<polygon class="st1" points="23.3,26.9 0,40.4 0,13.5 	"/>
	<polygon class="st2" points="46.6,67.3 23.3,80.8 23.3,53.8 	"/>
	<polygon class="st2" points="0,13.5 23.3,0 23.3,26.9 	"/>
	<polygon class="st1" points="23.3,53.8 46.6,40.4 46.6,67.3 	"/>
	<polygon class="st3" points="23.3,26.9 0,40.4 23.3,53.8 46.6,40.4 	"/>
</g>
</svg>
