<?xml version="1.0" encoding="utf-8"?>
<!-- Generator: Adobe Illustrator 22.1.0, SVG Export Plug-In . SVG Version: 6.00 Build 0)  -->
<svg version="1.1" id="Calque_1" xmlns="http://www.w3.org/2000/svg" xmlns:xlink="http://www.w3.org/1999/xlink" x="0px" y="0px"
	 viewBox="0 0 13 20.7" enable-background="new 0 0 13 20.7" xml:space="preserve">
<g>
	<path fill="#9B8CC2" d="M4.7,15.1c-0.1,0-0.2,0-0.3-0.1l-4.3-4.3C0,10.6,0,10.5,0,10.4s0-0.2,0.1-0.3l4.4-4.4
		c0.2-0.2,0.4-0.2,0.6,0s0.2,0.4,0,0.6L1,10.4l4,4c0.2,0.2,0.2,0.4,0,0.6C4.9,15.1,4.8,15.1,4.7,15.1z"/>
	<path fill="#9B8CC2" d="M8.3,15.1c-0.1,0-0.2,0-0.3-0.1c-0.2-0.2-0.2-0.4,0-0.6l4-4L7.9,6.2c-0.2-0.2-0.2-0.4,0-0.6s0.4-0.2,0.6,0
		l4.4,4.4c0.1,0.1,0.1,0.2,0.1,0.3s0,0.2-0.1,0.3L8.6,15C8.5,15.1,8.4,15.1,8.3,15.1z"/>
	<path fill="#9B8CC2" d="M4.8,20.7c-0.3,0-0.5-0.2-0.5-0.5V0.5C4.3,0.2,4.5,0,4.8,0s0.5,0.2,0.5,0.5v19.7
		C5.3,20.4,5.1,20.7,4.8,20.7z"/>
	<path fill="#9B8CC2" d="M8.2,20.7c-0.3,0-0.5-0.2-0.5-0.5V0.5C7.7,0.2,7.9,0,8.2,0s0.5,0.2,0.5,0.5v19.7
		C8.7,20.4,8.5,20.7,8.2,20.7z"/>
</g>
</svg>
