<?xml version="1.0" encoding="utf-8"?>
<!-- Generator: Adobe Illustrator 22.1.0, SVG Export Plug-In . SVG Version: 6.00 Build 0)  -->
<svg version="1.1" id="Calque_1" xmlns="http://www.w3.org/2000/svg" xmlns:xlink="http://www.w3.org/1999/xlink" x="0px" y="0px"
	 viewBox="0 0 17.7 17.7" enable-background="new 0 0 17.7 17.7" xml:space="preserve">
<path fill="#F6C343" d="M8.8,0C4,0,0,4,0,8.8s4,8.8,8.8,8.8s8.8-4,8.8-8.8S13.7,0,8.8,0z"/>
<g>
	<g>
		<path fill="#FFFFFF" d="M13.4,12.2l-2.6-2.6c0.5-0.7,0.7-1.5,0.7-2.3c0-2.3-1.9-4.2-4.2-4.2S3.2,5,3.2,7.3c0,2.3,1.9,4.2,4.2,4.2
			c0.8,0,1.6-0.2,2.2-0.7l2.6,2.6c0.2,0.2,0.4,0.2,0.6,0.2s0.4-0.1,0.6-0.2C13.8,13.1,13.8,12.6,13.4,12.2z M7.4,9.7
			C6,9.7,4.9,8.6,4.9,7.3C4.9,6,6,4.9,7.4,4.9S9.8,6,9.8,7.3C9.8,8.6,8.7,9.7,7.4,9.7z"/>
		<path fill="#F6C343" d="M12.8,13.9c-0.3,0-0.6-0.1-0.8-0.3l-2.5-2.5c-0.7,0.4-1.4,0.6-2.2,0.6c-2.4,0-4.4-2-4.4-4.4
			c0-2.4,2-4.4,4.4-4.4c2.4,0,4.4,2,4.4,4.4c0,0.8-0.2,1.6-0.6,2.3l2.5,2.5c0.2,0.2,0.3,0.5,0.3,0.8c0,0.3-0.1,0.6-0.3,0.8
			C13.4,13.8,13.1,13.9,12.8,13.9z M9.6,10.5l2.8,2.8c0.2,0.2,0.6,0.2,0.8,0c0.1-0.1,0.2-0.3,0.2-0.4c0-0.2-0.1-0.3-0.2-0.4
			l-2.8-2.8l0.1-0.2c0.4-0.6,0.7-1.4,0.7-2.2c0-2.2-1.8-3.9-3.9-3.9c-2.2,0-3.9,1.8-3.9,3.9c0,2.2,1.8,3.9,3.9,3.9
			c0.7,0,1.5-0.2,2.1-0.6L9.6,10.5z M7.4,10c-1.5,0-2.7-1.2-2.7-2.7c0-1.5,1.2-2.7,2.7-2.7c1.5,0,2.7,1.2,2.7,2.7
			C10.1,8.8,8.9,10,7.4,10z M7.4,5.1c-1.2,0-2.2,1-2.2,2.2c0,1.2,1,2.2,2.2,2.2c1.2,0,2.2-1,2.2-2.2C9.6,6.1,8.6,5.1,7.4,5.1z"/>
	</g>
	<g>
		<path fill="#FFFFFF" d="M8.1,7.2l0.6-0.6c0.2-0.2,0.2-0.5,0-0.7S8.2,5.7,8,5.9L7.4,6.5L6.8,5.9c-0.2-0.2-0.5-0.2-0.7,0
			s-0.2,0.5,0,0.7l0.6,0.6L6,7.8C5.8,8,5.8,8.4,6,8.5c0.1,0.1,0.2,0.1,0.4,0.1s0.3,0,0.4-0.1l0.7-0.7L8,8.5c0.1,0.1,0.2,0.1,0.4,0.1
			s0.3,0,0.4-0.1c0.2-0.2,0.2-0.5,0-0.7L8.1,7.2z"/>
		<path fill="#F6C343" d="M8.4,8.9C8.2,8.9,8,8.9,7.9,8.7L7.4,8.2L6.9,8.7C6.6,9,6.1,9,5.8,8.7C5.5,8.4,5.5,8,5.8,7.7l0.5-0.5
			L5.9,6.8C5.6,6.5,5.6,6,5.9,5.7c0.3-0.3,0.8-0.3,1.1,0l0.4,0.4l0.4-0.4c0.3-0.3,0.8-0.3,1.1,0c0.3,0.3,0.3,0.8,0,1.1L8.4,7.2
			l0.5,0.5c0.3,0.3,0.3,0.8,0,1.1C8.8,8.9,8.6,8.9,8.4,8.9z M7.4,7.5l0.8,0.8c0.1,0.1,0.3,0.1,0.4,0c0.1-0.1,0.1-0.3,0-0.4L7.7,7.2
			l0.8-0.8c0.1-0.1,0.1-0.3,0-0.4S8.2,6,8.2,6.1L7.4,6.8L6.6,6.1C6.5,6,6.3,6,6.2,6.1s-0.1,0.3,0,0.4L7,7.2L6.2,8
			c-0.1,0.1-0.1,0.3,0,0.4c0.1,0.1,0.3,0.1,0.4,0L7.4,7.5z"/>
	</g>
</g>
</svg>
