<?xml version="1.0" encoding="utf-8"?>
<!-- Generator: Adobe Illustrator 25.2.0, SVG Export Plug-In . SVG Version: 6.00 Build 0)  -->
<svg version="1.1" id="Calque_1" xmlns="http://www.w3.org/2000/svg" xmlns:xlink="http://www.w3.org/1999/xlink" x="0px" y="0px"
	 viewBox="0 0 88.33 74.54" style="enable-background:new 0 0 88.33 74.54;" xml:space="preserve">
<style type="text/css">
	.st0{fill:#702EEA;}
</style>
<path class="st0" d="M66.18,28.11L39.79,1.72c-2.3-2.3-6.03-2.3-8.33,0c-2.3,2.3-2.3,6.03,0,8.33L52.8,31.38H5.89
	C2.64,31.38,0,34.02,0,37.27s2.64,5.89,5.89,5.89H52.8L31.47,64.49c-2.3,2.3-2.3,6.03,0,8.33c1.15,1.15,2.66,1.72,4.16,1.72
	s3.01-0.58,4.16-1.72l26.39-26.39c2.44-2.44,3.79-5.69,3.79-9.16C69.97,33.81,68.62,30.55,66.18,28.11z"/>
<circle class="st0" cx="82.39" cy="37.27" r="5.89"/>
</svg>
