<?xml version="1.0" encoding="utf-8"?>
<!-- Generator: Adobe Illustrator 25.2.0, SVG Export Plug-In . SVG Version: 6.00 Build 0)  -->
<svg version="1.1" id="Calque_1" xmlns="http://www.w3.org/2000/svg" xmlns:xlink="http://www.w3.org/1999/xlink" x="0px" y="0px"
	 viewBox="0 0 88.33 74.54" style="enable-background:new 0 0 88.33 74.54;" xml:space="preserve">
<style type="text/css">
	.st0{fill:#E53858;}
</style>
<path class="st0" d="M84.54,28.11L58.15,1.72c-2.3-2.3-6.03-2.3-8.33,0c-2.3,2.3-2.3,6.03,0,8.33l21.33,21.33H24.25
	c-3.25,0-5.89,2.64-5.89,5.89s2.64,5.89,5.89,5.89h46.91L49.83,64.49c-2.3,2.3-2.3,6.03,0,8.33c1.15,1.15,2.66,1.72,4.16,1.72
	s3.01-0.58,4.16-1.72l26.39-26.39c2.44-2.44,3.79-5.69,3.79-9.16C88.33,33.81,86.98,30.55,84.54,28.11z"/>
<circle class="st0" cx="5.89" cy="37.27" r="5.89"/>
</svg>
