<?xml version="1.0" encoding="utf-8"?>
<!-- Generator: Adobe Illustrator 22.1.0, SVG Export Plug-In . SVG Version: 6.00 Build 0)  -->
<svg version="1.1" id="Calque_1" xmlns="http://www.w3.org/2000/svg" xmlns:xlink="http://www.w3.org/1999/xlink" x="0px" y="0px"
	 viewBox="0 0 24.7 24.7" style="enable-background:new 0 0 24.7 24.7;" xml:space="preserve">
<style type="text/css">
	.st0{fill:#FFFFFF;}
</style>
<g>
	<path class="st0" d="M12.3,0C5.5,0,0,5.5,0,12.3c0,6.8,5.5,12.3,12.3,12.3c6.8,0,12.3-5.5,12.3-12.3C24.7,5.5,19.1,0,12.3,0z
		 M12.3,22.7c-5.7,0-10.4-4.7-10.4-10.4S6.6,1.9,12.3,1.9s10.4,4.7,10.4,10.4S18.1,22.7,12.3,22.7z"/>
	<path class="st0" d="M17.2,11.5h-4.1V7.5c0-0.4-0.4-0.8-0.8-0.8S11.5,7,11.5,7.5v4.1H7.5c-0.4,0-0.8,0.4-0.8,0.8s0.4,0.8,0.8,0.8
		h4.1v4.1c0,0.4,0.4,0.8,0.8,0.8s0.8-0.4,0.8-0.8v-4.1h4.1c0.4,0,0.8-0.4,0.8-0.8S17.7,11.5,17.2,11.5z"/>
</g>
</svg>
