<?xml version="1.0" encoding="utf-8"?>
<!-- Generator: Adobe Illustrator 22.1.0, SVG Export Plug-In . SVG Version: 6.00 Build 0)  -->
<svg version="1.1" id="Calque_1" xmlns="http://www.w3.org/2000/svg" xmlns:xlink="http://www.w3.org/1999/xlink" x="0px" y="0px"
	 viewBox="0 0 23.8 23.8" style="enable-background:new 0 0 23.8 23.8;" xml:space="preserve">
<style type="text/css">
	.st0{fill:#E73858;}
	.st1{fill:#FFFFFF;}
</style>
<circle class="st0" cx="11.9" cy="11.9" r="11.9"/>
<path class="st1" d="M13.3,11.9l5.2-5.2c0.4-0.4,0.4-1,0-1.4s-1-0.4-1.4,0l-5.2,5.2L6.7,5.3c-0.4-0.4-1-0.4-1.4,0s-0.4,1,0,1.4
	l5.2,5.2l-5.2,5.2c-0.4,0.4-0.4,1,0,1.4c0.2,0.2,0.5,0.3,0.7,0.3s0.5-0.1,0.7-0.3l5.2-5.2l5.2,5.2c0.2,0.2,0.5,0.3,0.7,0.3
	s0.5-0.1,0.7-0.3c0.4-0.4,0.4-1,0-1.4L13.3,11.9z"/>
</svg>
