<?xml version="1.0" encoding="utf-8"?>
<!-- Generator: Adobe Illustrator 22.1.0, SVG Export Plug-In . SVG Version: 6.00 Build 0)  -->
<svg version="1.1" id="Calque_1" xmlns="http://www.w3.org/2000/svg" xmlns:xlink="http://www.w3.org/1999/xlink" x="0px" y="0px"
	 viewBox="0 0 24.4 24.4" enable-background="new 0 0 24.4 24.4" xml:space="preserve">
<path fill="#999999" d="M12.2,0C5.5,0,0,5.5,0,12.2s5.5,12.2,12.2,12.2S24.4,19,24.4,12.2S19,0,12.2,0z"/>
<g>
	<path fill="#FFFFFF" d="M12.3,20.8c-4.7,0-8.6-3.8-8.6-8.6c0-4.7,3.8-8.6,8.6-8.6s8.6,3.8,8.6,8.6C20.9,16.9,17,20.8,12.3,20.8z
		 M12.3,5.6c-3.6,0-6.6,2.9-6.6,6.6c0,3.6,2.9,6.6,6.6,6.6s6.6-2.9,6.6-6.6C18.9,8.6,15.9,5.6,12.3,5.6z"/>
	<path fill="#999999" d="M12.3,21c-4.9,0-8.8-4-8.8-8.8s4-8.8,8.8-8.8c4.9,0,8.8,4,8.8,8.8S17.2,21,12.3,21z M12.3,3.9
		C7.7,3.9,4,7.6,4,12.2s3.7,8.3,8.3,8.3c4.6,0,8.3-3.7,8.3-8.3S16.9,3.9,12.3,3.9z M12.3,19c-3.8,0-6.8-3.1-6.8-6.8s3.1-6.8,6.8-6.8
		s6.8,3.1,6.8,6.8S16.1,19,12.3,19z M12.3,5.9C8.8,5.9,6,8.7,6,12.2c0,3.5,2.8,6.3,6.3,6.3s6.3-2.8,6.3-6.3
		C18.6,8.7,15.8,5.9,12.3,5.9z"/>
</g>
<g>
	<path fill="#FFFFFF" d="M15,15.9c-0.3,0-0.5-0.1-0.7-0.3l-2.7-2.7c-0.2-0.2-0.3-0.4-0.3-0.7V8.1c0-0.6,0.4-1,1-1s1,0.4,1,1v3.7
		l2.4,2.4c0.4,0.4,0.4,1,0,1.4C15.5,15.8,15.3,15.9,15,15.9z"/>
	<path fill="#999999" d="M15,16.2c-0.3,0-0.6-0.1-0.9-0.4l-2.7-2.7c-0.2-0.2-0.4-0.6-0.4-0.9V8.1c0-0.7,0.6-1.2,1.2-1.2
		c0.7,0,1.2,0.6,1.2,1.2v3.6l2.4,2.4c0.2,0.2,0.4,0.5,0.4,0.9s-0.1,0.6-0.4,0.9C15.7,16.1,15.4,16.2,15,16.2z M12.3,7.4
		c-0.4,0-0.7,0.3-0.7,0.7v4.1c0,0.2,0.1,0.4,0.2,0.5l2.7,2.7c0.3,0.3,0.8,0.3,1.1,0c0.1-0.1,0.2-0.3,0.2-0.5s-0.1-0.4-0.2-0.5
		l-2.5-2.5V8.1C13.1,7.7,12.7,7.4,12.3,7.4z"/>
</g>
</svg>
