<?xml version="1.0" encoding="utf-8"?>
<!-- Generator: Adobe Illustrator 22.1.0, SVG Export Plug-In . SVG Version: 6.00 Build 0)  -->
<svg version="1.1" id="Calque_1" xmlns="http://www.w3.org/2000/svg" xmlns:xlink="http://www.w3.org/1999/xlink" x="0px" y="0px"
	 viewBox="0 0 26.3 26.3" style="enable-background:new 0 0 26.3 26.3;" xml:space="preserve">
<style type="text/css">
	.st0{fill:#FFFFFF;}
</style>
<path class="st0" d="M26,24.6l-9.1-9.1c1.4-1.7,2.1-3.8,2.1-6C19,4.3,14.8,0,9.5,0S0,4.3,0,9.5S4.3,19,9.5,19c2.2,0,4.3-0.8,6-2.1
	l9.1,9.1c0.2,0.2,0.5,0.3,0.7,0.3s0.5-0.1,0.7-0.3C26.4,25.6,26.4,25,26,24.6z M2,9.5C2,5.4,5.4,2,9.5,2S17,5.4,17,9.5
	c0,1.9-0.7,3.8-2.1,5.2c-1.4,1.5-3.4,2.3-5.4,2.3C5.4,17,2,13.7,2,9.5z"/>
</svg>
