<?xml version="1.0" encoding="utf-8"?>
<!-- Generator: Adobe Illustrator 22.1.0, SVG Export Plug-In . SVG Version: 6.00 Build 0)  -->
<svg version="1.1" id="Calque_1" xmlns="http://www.w3.org/2000/svg" xmlns:xlink="http://www.w3.org/1999/xlink" x="0px" y="0px"
	 viewBox="0 0 24.5 24.5" enable-background="new 0 0 24.5 24.5" xml:space="preserve">
<g>
	<g>
		<circle fill="#2093E0" cx="12.3" cy="12.3" r="12.3"/>
	</g>
	<path fill="#FFFFFF" d="M12.9,19.4c-3.8,0-6.8-3.1-6.8-6.8c0-2,0.9-3.9,2.5-5.2C8.9,7,9.5,7,9.8,7.4c0.3,0.4,0.3,1-0.1,1.3
		c-1.1,1-1.8,2.3-1.8,3.8c0,2.7,2.2,5,5,5s5-2.2,5-5s-2.2-5-5-5c-0.5,0-0.9-0.4-0.9-0.9s0.4-0.9,0.9-0.9c3.8,0,6.8,3.1,6.8,6.8
		S16.6,19.4,12.9,19.4z"/>
	<path fill="#FFFFFF" d="M10.6,11.3c-0.4,0-0.8-0.3-0.9-0.7L9,7.9L6.2,8.7C5.8,8.8,5.2,8.5,5.1,8s0.1-1,0.6-1.1l2.9-0.8
		c0.9-0.2,1.8,0.3,2.1,1.2l0.8,2.9c0.1,0.5-0.1,1-0.6,1.1C10.8,11.3,10.7,11.3,10.6,11.3z"/>
</g>
</svg>
