<?xml version="1.0" encoding="utf-8"?>
<!-- Generator: Adobe Illustrator 22.1.0, SVG Export Plug-In . SVG Version: 6.00 Build 0)  -->
<svg version="1.1" id="Capa_1" xmlns="http://www.w3.org/2000/svg" xmlns:xlink="http://www.w3.org/1999/xlink" x="0px" y="0px"
	 viewBox="0 0 60 60" style="enable-background:new 0 0 60 60;" xml:space="preserve">
<style type="text/css">
	.st0{fill:#702EEA;}
	.st1{fill:#FFFFFF;}
</style>
<g>
	<path class="st0" d="M30,0C13.4,0,0,13.4,0,30c0,16.6,13.4,30,30,30s30-13.4,30-30C60,13.4,46.6,0,30,0z"/>
</g>
<path class="st1" d="M39.4,15v-3.7H20.6V15H15v33.7h11.2V45h7.5v3.7H45V15H39.4z M28.1,39.4h-3.7v-3.7h3.7V39.4z M28.1,31.9h-3.7
	v-3.7h3.7V31.9z M28.1,24.4h-3.7v-3.7h3.7V24.4z M35.6,39.4h-3.7v-3.7h3.7V39.4z M35.6,31.9h-3.7v-3.7h3.7V31.9z M35.6,24.4h-3.7
	v-3.7h3.7V24.4z"/>
</svg>
