<?xml version="1.0" encoding="utf-8"?>
<!-- Generator: Adobe Illustrator 22.1.0, SVG Export Plug-In . SVG Version: 6.00 Build 0)  -->
<svg version="1.1" id="Calque_1" xmlns="http://www.w3.org/2000/svg" xmlns:xlink="http://www.w3.org/1999/xlink" x="0px" y="0px"
	 viewBox="0 0 24.5 24.5" enable-background="new 0 0 24.5 24.5" xml:space="preserve">
<circle fill="#B7B7B7" cx="12.3" cy="12.3" r="12.3"/>
<g>
	<path fill="#FFFFFF" d="M11.3,17.8c-0.2,0.3-0.4,0.6-0.4,0.9c0,0.4,0.1,0.7,0.4,0.9c0.3,0.3,0.6,0.4,0.9,0.4s0.7-0.1,0.9-0.4
		c0.3-0.3,0.4-0.6,0.4-1c0-0.4-0.1-0.7-0.4-0.9C12.7,17.3,11.8,17.3,11.3,17.8z"/>
	<path fill="#FFFFFF" d="M16.4,6.7c-0.4-0.7-1-1.2-1.7-1.6c-1.4-0.8-3.4-0.8-4.8,0c-0.7,0.4-1.3,1-1.7,1.7C7.8,7.5,7.6,8.3,7.6,9.2
		c0,0.3,0.1,0.5,0.3,0.7c0.3,0.3,1,0.3,1.4,0c0.2-0.2,0.3-0.4,0.3-0.7c0-0.8,0.3-1.5,0.8-2c0.5-0.5,1.2-0.8,2-0.8
		c0.6,0,1,0.1,1.5,0.3c0.4,0.2,0.8,0.5,1,0.9C15,8,15.1,8.4,15.1,8.9c0,0.5-0.1,0.9-0.2,1.2c-0.1,0.3-0.3,0.6-0.5,0.9
		c-0.2,0.3-0.6,0.6-1,1l-0.7,0.6c-0.4,0.4-0.7,0.9-1,1.6c-0.3,0.6-0.4,1.2-0.4,1.8c0,0.3,0.1,0.5,0.3,0.7c0.2,0.2,0.4,0.3,0.7,0.3
		c0.3,0,0.5-0.1,0.7-0.3c0.2-0.2,0.3-0.4,0.3-0.7c0-0.9,0.3-1.7,0.9-2.3l0.7-0.7c0.5-0.5,0.9-0.9,1.2-1.2c0.3-0.3,0.5-0.7,0.7-1.2
		c0.2-0.5,0.3-1,0.3-1.6C17,8.2,16.8,7.4,16.4,6.7z"/>
</g>
</svg>
