<?xml version="1.0" encoding="utf-8"?>
<!-- Generator: Adobe Illustrator 22.1.0, SVG Export Plug-In . SVG Version: 6.00 Build 0)  -->
<svg version="1.1" id="Calque_1" xmlns="http://www.w3.org/2000/svg" xmlns:xlink="http://www.w3.org/1999/xlink" x="0px" y="0px"
	 viewBox="0 0 13 11.6" style="enable-background:new 0 0 13 11.6;" xml:space="preserve">
<style type="text/css">
	.st0{fill:#F39D20;}
	.st1{fill:#2D3E50;}
</style>
<g>
	<path class="st0" d="M12.9,9.5c0-0.2-0.1-0.4-0.2-0.5l-2.9-5L8.1,1C7.8,0.4,7.2,0,6.5,0C5.8,0,5.1,0.4,4.8,1L0.2,9
		c-0.3,0.6-0.3,1.2,0.1,1.8c0.3,0.5,0.9,0.9,1.6,0.9h4.6h4.6h0c0.6,0,1.2-0.3,1.6-0.9C12.9,10.4,13,9.9,12.9,9.5z"/>
	<path class="st1" d="M7.4,9.6c0,0.2-0.1,0.5-0.3,0.6c-0.2,0.2-0.4,0.3-0.6,0.3V8.7c0.2,0,0.5,0.1,0.6,0.3C7.3,9.1,7.4,9.4,7.4,9.6z
		"/>
	<g>
		<path class="st1" d="M6.5,8.7C6,8.7,5.6,9.1,5.6,9.6c0,0.5,0.4,0.9,0.9,0.9c0.5,0,0.9-0.4,0.9-0.9C7.4,9.1,7,8.7,6.5,8.7z"/>
		<path class="st1" d="M6.5,1.8C6,1.8,5.6,2.2,5.6,2.7v4.2c0,0.5,0.4,0.9,0.9,0.9c0.5,0,0.9-0.4,0.9-0.9V2.7C7.4,2.2,7,1.8,6.5,1.8z
			"/>
	</g>
	<path class="st1" d="M7.4,2.7v4.2c0,0.2-0.1,0.5-0.3,0.6C6.9,7.7,6.7,7.8,6.5,7.8v-6c0.2,0,0.5,0.1,0.6,0.3
		C7.3,2.2,7.4,2.4,7.4,2.7z"/>
</g>
</svg>
