<?xml version="1.0" encoding="utf-8"?>
<!-- Generator: Adobe Illustrator 22.1.0, SVG Export Plug-In . SVG Version: 6.00 Build 0)  -->
<svg version="1.1" id="Calque_1" xmlns="http://www.w3.org/2000/svg" xmlns:xlink="http://www.w3.org/1999/xlink" x="0px" y="0px"
	 viewBox="0 0 24.5 24.5" enable-background="new 0 0 24.5 24.5" xml:space="preserve">
<g>
	<path fill="#F98D21" d="M9.3,2.8L0.5,17.9c-1.3,2.3,0.3,5.2,3,5.2H21c2.7,0,4.3-2.9,3-5.2L15.3,2.8C13.9,0.5,10.6,0.5,9.3,2.8z"/>
	<path fill="#FFFFFF" d="M11.3,15.2V7.5c0-0.5,0.4-1,1-1s1,0.4,1,1v7.6c0,0.5-0.4,1-1,1S11.3,15.7,11.3,15.2z"/>
	<path fill="#FFFFFF" d="M11.2,18.6L11.2,18.6c0-0.6,0.5-1.1,1.1-1.1s1.1,0.5,1.1,1.1l0,0c0,0.6-0.5,1.1-1.1,1.1
		S11.2,19.2,11.2,18.6z"/>
</g>
</svg>
