<?xml version="1.0" encoding="utf-8"?>
<!-- Generator: Adobe Illustrator 22.1.0, SVG Export Plug-In . SVG Version: 6.00 Build 0)  -->
<svg version="1.1" id="Calque_1" xmlns="http://www.w3.org/2000/svg" xmlns:xlink="http://www.w3.org/1999/xlink" x="0px" y="0px"
	 viewBox="0 0 39 39" enable-background="new 0 0 39 39" xml:space="preserve">
<path fill="#71B7D3" d="M36.9,19.5c0,6-3,11.2-7.6,14.4c0,0,0,0-0.1,0.1c-0.4,0.2-0.7,0.5-1.1,0.7c-0.1,0.1-0.2,0.2-0.4,0.2
	c-0.3,0.2-0.6,0.3-0.9,0.4c-0.2,0.1-0.4,0.2-0.7,0.3c-0.2,0.1-0.5,0.2-0.7,0.3c-0.3,0.1-0.6,0.2-1,0.3c-0.1,0-0.3,0.1-0.4,0.1
	c-0.4,0.1-0.8,0.2-1.2,0.3c0,0-0.1,0-0.1,0c-1.1,0.2-2.2,0.3-3.2,0.3V39c1.2,0,2.4-0.1,3.6-0.4c0,0,0.1,0,0.1,0
	c0.5-0.1,0.9-0.2,1.4-0.3c0.2,0,0.3-0.1,0.5-0.1c0.4-0.1,0.7-0.2,1.1-0.4c0.3-0.1,0.5-0.2,0.8-0.3c0.3-0.1,0.5-0.2,0.7-0.3
	c0.3-0.2,0.7-0.3,1-0.5c0.1-0.1,0.3-0.2,0.4-0.3c0.4-0.2,0.8-0.5,1.2-0.7c0,0,0.1,0,0.1-0.1c1-0.7,1.9-1.4,2.8-2.3l0,0
	c3.5-3.5,5.7-8.4,5.7-13.8H36.9z"/>
<path fill="#71B7D3" d="M22.7,2.4c0,0,0.1,0,0.1,0c0.4,0.1,0.8,0.2,1.2,0.3c0.1,0,0.3,0.1,0.4,0.1c0.3,0.1,0.6,0.2,1,0.3
	c0.2,0.1,0.5,0.2,0.7,0.3c0.2,0.1,0.4,0.2,0.7,0.3c0.3,0.1,0.6,0.3,0.9,0.4c0.1,0.1,0.3,0.2,0.4,0.2c0.4,0.2,0.7,0.4,1.1,0.7
	c0,0,0.1,0,0.1,0.1c4.6,3.1,7.6,8.4,7.6,14.4H39c0-5.4-2.2-10.2-5.7-13.8l0,0c-0.9-0.9-1.8-1.6-2.8-2.3c0,0-0.1,0-0.1-0.1
	c-0.4-0.3-0.8-0.5-1.2-0.7c-0.1-0.1-0.3-0.2-0.4-0.3c-0.3-0.2-0.7-0.3-1-0.5c-0.2-0.1-0.5-0.2-0.7-0.3c-0.3-0.1-0.5-0.2-0.8-0.3
	c-0.4-0.1-0.7-0.3-1.1-0.4c-0.2,0-0.3-0.1-0.5-0.1c-0.5-0.1-0.9-0.2-1.4-0.3c0,0-0.1,0-0.1,0C21.9,0.1,20.7,0,19.5,0v2.1
	C20.6,2.1,21.6,2.2,22.7,2.4z"/>
</svg>
