<?xml version="1.0" encoding="utf-8"?>
<!-- Generator: Adobe Illustrator 25.2.0, SVG Export Plug-In . SVG Version: 6.00 Build 0)  -->
<svg version="1.1" id="Calque_1" xmlns="http://www.w3.org/2000/svg" xmlns:xlink="http://www.w3.org/1999/xlink" x="0px" y="0px"
	 viewBox="0 0 62.33 69.55" style="enable-background:new 0 0 62.33 69.55;" xml:space="preserve">
<style type="text/css">
	.st0{fill:#FF6D00;}
	.st1{fill:#FBF9FE;}
	.st2{fill:#FFFFFF;}
</style>
<g>
	<path class="st0" d="M58.26,23.66c-0.17-3.5-0.86-9.5-0.86-9.5L31.16,4.27L4.93,14.16c0,0-0.69,6-0.86,9.5
		C2.9,48.03,16.53,65.55,31.16,65.55C45.8,65.55,59.43,48.03,58.26,23.66z"/>
	<path class="st1" d="M31.16,4.27l26.24,9.89c0,0,0.69,6,0.86,9.5c1.17,24.37-12.46,41.89-27.09,41.89
		c-14.64,0-28.26-17.52-27.09-41.89c0.17-3.5,0.86-9.5,0.86-9.5L31.16,4.27 M31.16,0l-1.41,0.53L3.52,10.42l-2.28,0.86l-0.28,2.43
		c-0.03,0.25-0.71,6.17-0.88,9.76c-0.71,14.84,3.7,28.41,12.1,37.22c5.45,5.71,12.19,8.86,18.99,8.86c6.8,0,13.55-3.15,18.99-8.86
		c8.4-8.81,12.81-22.38,12.1-37.22c-0.17-3.59-0.85-9.51-0.88-9.76l-0.28-2.43l-2.28-0.86L32.58,0.53L31.16,0L31.16,0z"/>
</g>
<path class="st2" d="M46.2,33.14c-1.03-0.5-2.28-0.07-2.78,0.96l-3.18,6.54c0,0-0.55,0.89-0.98,0.62c-0.43-0.27-0.86-0.23-0.86-2.1
	c0-1.29,0.06-3.84,0.1-5.3c0.02-0.1,0.03-0.2,0.03-0.31v-13.9c0-0.96-0.78-1.73-1.73-1.73c-0.96,0-1.73,0.78-1.73,1.73v11.23
	c0,0.48-0.39,0.87-0.87,0.87s-0.87-0.39-0.87-0.87v-13.8c0-0.96-0.78-1.73-1.73-1.73c-0.96,0-1.73,0.78-1.73,1.73v13.79
	c0,0.48-0.39,0.87-0.87,0.87s-0.87-0.39-0.87-0.87V20.12c0-0.96-0.78-1.73-1.73-1.73s-1.73,0.78-1.73,1.73v11.69
	c0,0.48-0.39,0.87-0.87,0.87c-0.48,0-0.87-0.39-0.87-0.87v-8.65c0-0.96-0.78-1.73-1.73-1.73c-0.96,0-1.73,0.78-1.73,1.73
	c0,0,0,14.68,0,16.31c0,1.64-0.12,14.01,11.02,14.01c9.07,0,10.35-4.59,11.08-6.1c0,0,0,0,0,0l5.58-11.46
	C47.66,34.89,47.24,33.64,46.2,33.14z"/>
</svg>
