<?xml version="1.0" encoding="utf-8"?>
<!-- Generator: Adobe Illustrator 22.1.0, SVG Export Plug-In . SVG Version: 6.00 Build 0)  -->
<svg version="1.1" id="Calque_1" xmlns="http://www.w3.org/2000/svg" xmlns:xlink="http://www.w3.org/1999/xlink" x="0px" y="0px"
	 viewBox="0 0 23.8 23.8" style="enable-background:new 0 0 23.8 23.8;" xml:space="preserve">
<style type="text/css">
	.st0{fill:#E2304D;}
	.st1{fill:#FFFFFF;}
</style>
<g>
	<circle class="st0" cx="11.9" cy="11.9" r="11.9"/>
	<g>
		<g>
			<path class="st1" d="M13.8,17.9c0,1-0.8,1.8-1.8,1.8s-1.8-0.8-1.8-1.8c0-1,0.8-1.8,1.8-1.8C13,16,13.8,16.9,13.8,17.9z"/>
			<path class="st1" d="M13.7,13.2l0.9-6.4c0.3-1.5-1-2.9-2.5-2.9l0,0c-1.5,0-2.8,1.4-2.5,2.9l0.9,6.4c0.1,0.8,0.8,1.4,1.7,1.4l0,0
				C12.9,14.7,13.5,14.1,13.7,13.2z"/>
		</g>
	</g>
</g>
</svg>
