<?xml version="1.0" encoding="utf-8"?>
<!-- Generator: Adobe Illustrator 22.1.0, SVG Export Plug-In . SVG Version: 6.00 Build 0)  -->
<svg version="1.1" id="Calque_1" xmlns="http://www.w3.org/2000/svg" xmlns:xlink="http://www.w3.org/1999/xlink" x="0px" y="0px"
	 viewBox="0 0 26.2 22.4" enable-background="new 0 0 26.2 22.4" xml:space="preserve">
<rect fill="none" width="26.2" height="22.4"/>
<g>
	<path fill="#5478ED" d="M26.2,18.6l-2.8-15c-0.2-1-1.1-1.8-2.1-1.8H5c-1,0-2,0.8-2.1,1.8L0,18.6c-0.1,0.5,0,1,0.3,1.4
		c0.3,0.4,0.8,0.6,1.3,0.6h15.4H18h6.6c0.7,0,1.1-0.3,1.3-0.5C26.1,19.7,26.3,19.2,26.2,18.6z M17.1,19.6H1.7
		c-0.2,0-0.4-0.1-0.5-0.2C1,19.2,1,19,1,18.8l2.8-15c0.1-0.5,0.6-1,1.2-1h16.3c0.1,0,0.2,0,0.3,0.1C21.8,3,22,3.3,21.9,3.6l-2.8,15
		c-0.1,0.5-0.6,1-1.2,1H17.1z M25.1,19.4c-0.1,0.1-0.3,0.2-0.5,0.2h-4.8c0.2-0.2,0.3-0.5,0.3-0.8l2.6-13.7l2.5,13.7
		C25.2,19,25.2,19.3,25.1,19.4z"/>
	<path fill="#5478ED" d="M5.8,7.3h13.1c0.3,0,0.5-0.2,0.5-0.5s-0.2-0.5-0.5-0.5H5.8c-0.3,0-0.5,0.2-0.5,0.5S5.5,7.3,5.8,7.3z"/>
	<path fill="#5478ED" d="M18.6,11.2c0-0.3-0.2-0.5-0.5-0.5H5c-0.3,0-0.5,0.2-0.5,0.5s0.2,0.5,0.5,0.5h13.1
		C18.4,11.7,18.6,11.5,18.6,11.2z"/>
	<path fill="#5478ED" d="M5.4,9.5h13.1C18.8,9.5,19,9.3,19,9s-0.2-0.5-0.5-0.5H5.4C5.1,8.5,4.9,8.7,4.9,9S5.1,9.5,5.4,9.5z"/>
	<path fill="#5478ED" d="M13.3,15.1h-9c-0.3,0-0.5,0.2-0.5,0.5s0.2,0.5,0.5,0.5h9c0.3,0,0.5-0.2,0.5-0.5S13.6,15.1,13.3,15.1z"/>
</g>
</svg>
