<?xml version="1.0" encoding="utf-8"?>
<!-- Generator: Adobe Illustrator 22.1.0, SVG Export Plug-In . SVG Version: 6.00 Build 0)  -->
<svg version="1.1" id="Calque_1" xmlns="http://www.w3.org/2000/svg" xmlns:xlink="http://www.w3.org/1999/xlink" x="0px" y="0px"
	 viewBox="0 0 26.2 22.4" enable-background="new 0 0 26.2 22.4" xml:space="preserve">
<rect fill="none" width="26.2" height="22.4"/>
<g>
	<path fill="#E21445" d="M13.1,0.3c-6,0-10.9,4.9-10.9,10.9s4.9,10.9,10.9,10.9S24,17.2,24,11.2S19.1,0.3,13.1,0.3z M13.1,20.9
		c-5.3,0-9.7-4.3-9.7-9.7s4.3-9.7,9.7-9.7s9.7,4.3,9.7,9.7S18.4,20.9,13.1,20.9z"/>
	<path fill="#E21445" d="M18.6,10.5H8.1c-0.4,0-0.8,0.4-0.8,0.8s0.4,0.8,0.8,0.8h10.5c0.4,0,0.8-0.4,0.8-0.8S19,10.5,18.6,10.5z"/>
</g>
</svg>
