<?xml version="1.0" encoding="utf-8"?>
<!-- Generator: Adobe Illustrator 22.1.0, SVG Export Plug-In . SVG Version: 6.00 Build 0)  -->
<svg version="1.1" id="Calque_1" xmlns="http://www.w3.org/2000/svg" xmlns:xlink="http://www.w3.org/1999/xlink" x="0px" y="0px"
	 viewBox="0 0 26.2 22.4" enable-background="new 0 0 26.2 22.4" xml:space="preserve">
<rect fill="none" width="26.2" height="22.4"/>
<g>
	<path fill="#1AD369" d="M13.1,21.9c-5.9,0-10.6-4.8-10.6-10.6c0-5.9,4.8-10.6,10.6-10.6c5.9,0,10.6,4.8,10.6,10.6
		C23.7,17.1,19,21.9,13.1,21.9z M13.1,1.7c-5.3,0-9.6,4.3-9.6,9.6s4.3,9.6,9.6,9.6s9.6-4.3,9.6-9.6S18.4,1.7,13.1,1.7z"/>
	<path fill="#1AD369" d="M11.4,15.4c-0.1,0-0.3-0.1-0.4-0.2l-3.8-3.8c-0.2-0.2-0.2-0.6,0-0.8c0.2-0.2,0.6-0.2,0.8,0l3.4,3.4l6.8-6.8
		C18.4,7,18.7,7,19,7.3c0.2,0.2,0.2,0.6,0,0.8l-7.2,7.2C11.7,15.3,11.5,15.4,11.4,15.4z"/>
</g>
</svg>
