<?xml version="1.0" encoding="utf-8"?>
<!-- Generator: Adobe Illustrator 22.1.0, SVG Export Plug-In . SVG Version: 6.00 Build 0)  -->
<svg version="1.1" id="Calque_1" xmlns="http://www.w3.org/2000/svg" xmlns:xlink="http://www.w3.org/1999/xlink" x="0px" y="0px"
	 viewBox="0 0 26.2 22.4" enable-background="new 0 0 26.2 22.4" xml:space="preserve">
<rect fill="none" width="26.2" height="22.4"/>
<g>
	<g>
		<g>
			<path fill="#009EE2" d="M24.3,0.4C24.3,0.4,24.3,0.4,24.3,0.4c0-0.1,0-0.1,0-0.2c0,0,0,0,0,0c0,0,0,0,0,0c0,0,0,0-0.1-0.1
				c0,0,0,0-0.1-0.1c0,0,0,0,0,0c0,0,0,0,0,0C24,0,24,0,24,0c0,0,0,0-0.1,0c0,0-0.1,0-0.1,0c0,0-0.1,0-0.1,0c0,0,0,0-0.1,0L2.2,7.3
				C2,7.4,1.9,7.6,1.9,7.8S2,8.2,2.2,8.3l10,3.9l4.3,10c0.1,0.2,0.3,0.3,0.4,0.3c0,0,0,0,0,0c0.2,0,0.4-0.1,0.4-0.3l6.8-21.5
				c0,0,0,0,0,0C24.3,0.6,24.3,0.5,24.3,0.4C24.3,0.5,24.3,0.5,24.3,0.4z M3.8,7.8L22,1.6l-9.5,9.5L3.8,7.8z M16.9,20.6l-3.8-8.7
				l9.6-9.6L16.9,20.6z"/>
			<path fill="#009EE2" d="M9.5,14.8c-0.2-0.2-0.5-0.2-0.7,0L2,21.6c-0.2,0.2-0.2,0.5,0,0.7c0.1,0.1,0.2,0.1,0.3,0.1
				c0.1,0,0.2,0,0.3-0.1l6.8-6.8C9.7,15.3,9.7,15,9.5,14.8z"/>
			<path fill="#009EE2" d="M10.8,18.2l-3.4,3.4c-0.2,0.2-0.2,0.5,0,0.7c0.1,0.1,0.2,0.1,0.3,0.1c0.1,0,0.2,0,0.3-0.1l3.4-3.4
				c0.2-0.2,0.2-0.5,0-0.7C11.3,18,11,18,10.8,18.2z"/>
			<path fill="#009EE2" d="M2.4,17.1c0.1,0,0.2,0,0.3-0.1l3.4-3.4c0.2-0.2,0.2-0.5,0-0.7c-0.2-0.2-0.5-0.2-0.7,0L2,16.2
				c-0.2,0.2-0.2,0.5,0,0.7C2.1,17,2.2,17.1,2.4,17.1z"/>
		</g>
	</g>
</g>
</svg>
