<?xml version="1.0" encoding="utf-8"?>
<!-- Generator: Adobe Illustrator 22.1.0, SVG Export Plug-In . SVG Version: 6.00 Build 0)  -->
<svg version="1.1" id="Calque_1" xmlns="http://www.w3.org/2000/svg" xmlns:xlink="http://www.w3.org/1999/xlink" x="0px" y="0px"
	 viewBox="0 0 26.2 22.4" enable-background="new 0 0 26.2 22.4" xml:space="preserve">
<rect fill="none" width="26.2" height="22.4"/>
<g>
	<path fill="#F98D21" d="M24,0.8C24,0.7,24,0.7,24,0.8c0-0.1,0-0.1,0-0.2c0,0,0,0,0,0c0,0,0,0,0,0c0,0,0,0-0.1-0.1c0,0,0,0-0.1-0.1
		c0,0,0,0,0,0c0,0,0,0,0,0c0,0-0.1,0-0.1,0c0,0,0,0-0.1,0c0,0-0.1,0-0.1,0c0,0-0.1,0-0.1,0c0,0,0,0,0,0L2.5,7.5
		C2.4,7.5,2.2,7.7,2.2,7.9c0,0.2,0.1,0.4,0.3,0.5l9.7,3.7l4.2,9.7c0.1,0.2,0.2,0.3,0.4,0.3c0,0,0,0,0,0c0.2,0,0.4-0.1,0.4-0.3L24,1
		c0,0,0,0,0,0C24,0.9,24,0.9,24,0.8C24,0.8,24,0.8,24,0.8z M4.1,7.9l17.6-6l-9.2,9.2L4.1,7.9z M16.8,20.3l-3.7-8.5l9.3-9.3
		L16.8,20.3z"/>
	<path fill="#F98D21" d="M11,13.3c-0.2-0.2-0.5-0.2-0.7,0l-3,3l-3-3c-0.2-0.2-0.5-0.2-0.7,0c-0.1,0.1-0.1,0.2-0.1,0.3
		c0,0.1,0,0.2,0.1,0.3l3,3l-3,3c-0.2,0.2-0.2,0.5,0,0.7c0.1,0.1,0.2,0.1,0.3,0.1c0.1,0,0.2,0,0.3-0.1l3-3l3,3c0.2,0.2,0.5,0.2,0.7,0
		c0.2-0.2,0.2-0.5,0-0.7l-3-3l3-3C11.2,13.8,11.2,13.5,11,13.3z"/>
</g>
</svg>
