<?xml version="1.0" encoding="utf-8"?>
<!-- Generator: Adobe Illustrator 22.1.0, SVG Export Plug-In . SVG Version: 6.00 Build 0)  -->
<svg version="1.1" id="Calque_1" xmlns="http://www.w3.org/2000/svg" xmlns:xlink="http://www.w3.org/1999/xlink" x="0px" y="0px"
	 viewBox="0 0 26.2 22.4" enable-background="new 0 0 26.2 22.4" xml:space="preserve">
<rect y="0" fill="none" width="26.2" height="22.4"/>
<path fill="#A5133D" d="M13.1,0.3c-6,0-10.9,4.9-10.9,10.9s4.9,10.9,10.9,10.9S24,17.2,24,11.2S19.1,0.3,13.1,0.3z M13.1,20.9
	c-5.3,0-9.7-4.3-9.7-9.7s4.3-9.7,9.7-9.7s9.7,4.3,9.7,9.7S18.4,20.9,13.1,20.9z"/>
<g>
	<path fill="#A5133D" d="M15.9,16.2c-0.3,0-0.5-0.2-0.5-0.5v-1.1c0-0.9-0.7-1.6-1.6-1.6H9.9c-0.9,0-1.6,0.7-1.6,1.6v1.1
		c0,0.3-0.2,0.5-0.5,0.5S7.2,16,7.2,15.7v-1.1c0-1.5,1.2-2.7,2.7-2.7h3.8c1.5,0,2.7,1.2,2.7,2.7v1.1C16.4,16,16.2,16.2,15.9,16.2z"
		/>
	<path fill="#A5133D" d="M11.8,10.8c-1.5,0-2.7-1.2-2.7-2.7s1.2-2.7,2.7-2.7s2.7,1.2,2.7,2.7S13.3,10.8,11.8,10.8z M11.8,6.4
		c-0.9,0-1.6,0.7-1.6,1.6c0,0.9,0.7,1.6,1.6,1.6c0.9,0,1.6-0.7,1.6-1.6C13.4,7.2,12.7,6.4,11.8,6.4z"/>
	<path fill="#A5133D" d="M19.7,11.9c-0.1,0-0.3-0.1-0.4-0.2L16.6,9c-0.2-0.2-0.2-0.6,0-0.8c0.2-0.2,0.6-0.2,0.8,0l2.7,2.7
		c0.2,0.2,0.2,0.6,0,0.8C19.9,11.8,19.8,11.9,19.7,11.9z"/>
	<path fill="#A5133D" d="M17,11.9c-0.1,0-0.3-0.1-0.4-0.2c-0.2-0.2-0.2-0.6,0-0.8l2.7-2.7c0.2-0.2,0.6-0.2,0.8,0
		c0.2,0.2,0.2,0.6,0,0.8l-2.7,2.7C17.2,11.8,17.1,11.9,17,11.9z"/>
</g>
</svg>
