<?xml version="1.0" encoding="utf-8"?>
<!-- Generator: Adobe Illustrator 22.1.0, SVG Export Plug-In . SVG Version: 6.00 Build 0)  -->
<svg version="1.1" id="Calque_1" xmlns="http://www.w3.org/2000/svg" xmlns:xlink="http://www.w3.org/1999/xlink" x="0px" y="0px"
	 viewBox="0 0 26.2 22.4" enable-background="new 0 0 26.2 22.4" xml:space="preserve">
<rect fill="none" width="26.2" height="22.4"/>
<g>
	<path fill="#DDD2EC" d="M13.1,21.9c-5.9,0-10.6-4.8-10.6-10.6c0-5.9,4.8-10.6,10.6-10.6c5.9,0,10.6,4.8,10.6,10.6
		C23.7,17.1,19,21.9,13.1,21.9z M13.1,1.7c-5.3,0-9.6,4.3-9.6,9.6s4.3,9.6,9.6,9.6s9.6-4.3,9.6-9.6S18.4,1.7,13.1,1.7z"/>
</g>
<g>
	<g>
		<path fill="#DDD2EC" d="M12.5,13.9c0-0.2,0-0.3,0-0.4c0-0.5,0.1-0.9,0.2-1.3c0.1-0.3,0.3-0.5,0.5-0.8c0.2-0.2,0.5-0.5,0.9-0.9
			c0.4-0.4,0.7-0.7,0.8-0.9c0.1-0.2,0.2-0.5,0.2-0.7c0-0.5-0.2-0.9-0.6-1.3c-0.4-0.4-0.8-0.5-1.4-0.5c-0.5,0-1,0.2-1.3,0.5
			c-0.4,0.3-0.6,0.8-0.7,1.5L9.9,9c0.1-0.9,0.5-1.7,1-2.1s1.3-0.7,2.2-0.7c1,0,1.8,0.3,2.3,0.8c0.6,0.5,0.9,1.2,0.9,1.9
			c0,0.4-0.1,0.8-0.3,1.2c-0.2,0.4-0.6,0.8-1.2,1.3c-0.4,0.4-0.7,0.6-0.8,0.8s-0.2,0.4-0.3,0.6c-0.1,0.2-0.1,0.6-0.1,1.1H12.5z
			 M12.4,16.3v-1.4h1.4v1.4H12.4z"/>
	</g>
</g>
</svg>
