<?xml version="1.0" encoding="utf-8"?>
<!-- Generator: Adobe Illustrator 22.1.0, SVG Export Plug-In . SVG Version: 6.00 Build 0)  -->
<svg version="1.1" id="Calque_1" xmlns="http://www.w3.org/2000/svg" xmlns:xlink="http://www.w3.org/1999/xlink" x="0px" y="0px"
	 viewBox="0 0 26.2 22.4" enable-background="new 0 0 26.2 22.4" xml:space="preserve">
<path fill="#265866" d="M22.1,9.5h-0.6V7.8c0-1.5-1.2-2.7-2.7-2.7h-0.6V3.3c0-1.5-1.2-2.7-2.7-2.7H4.1c-1.5,0-2.7,1.2-2.7,2.7v6.9
	c0,1.5,1.2,2.7,2.7,2.7h0.6v1.8c0,1.5,1.2,2.7,2.7,2.7H8v1.8c0,1.5,1.2,2.7,2.7,2.7h11.5c1.5,0,2.7-1.2,2.7-2.7v-6.9
	C24.8,10.7,23.6,9.5,22.1,9.5z M2.4,10.2V3.3c0-0.9,0.8-1.7,1.7-1.7h11.5c0.9,0,1.7,0.8,1.7,1.7v1.8H7.4c-1.5,0-2.7,1.2-2.7,2.7v4.1
	H4.1C3.1,11.9,2.4,11.1,2.4,10.2z M5.7,14.7v-1.8v-0.5V7.8c0-0.9,0.8-1.7,1.7-1.7h10.4h0.5h0.6c0.9,0,1.7,0.8,1.7,1.7v1.8h-2.3h-0.5
	h-0.5h-6.6C9.2,9.5,8,10.7,8,12.2v0.2v3.9H7.4C6.4,16.4,5.7,15.6,5.7,14.7z M23.8,19.1c0,0.9-0.8,1.7-1.7,1.7H10.6
	C9.7,20.8,9,20,9,19.1v-1.8v-0.5v-4.4v-0.2c0-0.9,0.8-1.7,1.7-1.7h7.1H21h0.5h0.6c0.9,0,1.7,0.8,1.7,1.7V19.1z"/>
<rect fill="none" width="26.2" height="22.4"/>
</svg>
