<?xml version="1.0" encoding="utf-8"?>
<!-- Generator: Adobe Illustrator 22.1.0, SVG Export Plug-In . SVG Version: 6.00 Build 0)  -->
<svg version="1.1" id="Calque_1" xmlns="http://www.w3.org/2000/svg" xmlns:xlink="http://www.w3.org/1999/xlink" x="0px" y="0px"
	 viewBox="0 0 23.4 23.4" style="enable-background:new 0 0 23.4 23.4;" xml:space="preserve">
<style type="text/css">
	.st0{fill:#999999;}
	.st1{fill:#FFFFFF;}
</style>
<g>
	<path class="st0" d="M11.7,0C5.2,0,0,5.2,0,11.7s5.2,11.7,11.7,11.7s11.7-5.2,11.7-11.7S18.2,0,11.7,0z"/>
	<path class="st1" d="M11.8,19.9c-4.5,0-8.2-3.7-8.2-8.2c0-4.5,3.7-8.2,8.2-8.2c4.5,0,8.2,3.7,8.2,8.2C20,16.2,16.3,19.9,11.8,19.9z
		 M11.8,5.4c-3.5,0-6.3,2.8-6.3,6.3S8.3,18,11.8,18c3.5,0,6.3-2.8,6.3-6.3S15.3,5.4,11.8,5.4z"/>
	<path class="st1" d="M14.4,15.3c-0.2,0-0.5-0.1-0.7-0.3l-2.6-2.6c-0.2-0.2-0.3-0.4-0.3-0.7V7.8c0-0.5,0.4-1,1-1c0.5,0,1,0.4,1,1
		v3.5l2.3,2.3c0.4,0.4,0.4,1,0,1.4C14.9,15.2,14.7,15.3,14.4,15.3z"/>
</g>
</svg>
