<?xml version="1.0" encoding="utf-8"?>
<!-- Generator: Adobe Illustrator 22.1.0, SVG Export Plug-In . SVG Version: 6.00 Build 0)  -->
<svg version="1.1" id="Calque_1" xmlns="http://www.w3.org/2000/svg" xmlns:xlink="http://www.w3.org/1999/xlink" x="0px" y="0px"
	 viewBox="0 0 23.6 23.6" style="enable-background:new 0 0 23.6 23.6;" xml:space="preserve">
<style type="text/css">
	.st0{fill:#E2304D;}
</style>
<g>
	<path class="st0" d="M17.7,12.7H5.9c-0.5,0-0.9-0.4-0.9-0.9c0-0.5,0.4-0.9,0.9-0.9h11.8c0.5,0,0.9,0.4,0.9,0.9
		C18.6,12.3,18.2,12.7,17.7,12.7z"/>
</g>
<g>
	<path class="st0" d="M11.8,23.6C5.3,23.6,0,18.3,0,11.8C0,5.3,5.3,0,11.8,0s11.8,5.3,11.8,11.8C23.6,18.3,18.3,23.6,11.8,23.6z
		 M11.8,1.8c-5.5,0-10,4.5-10,10s4.5,10,10,10s10-4.5,10-10S17.3,1.8,11.8,1.8z"/>
</g>
</svg>
