<?xml version="1.0" encoding="utf-8"?>
<!-- Generator: Adobe Illustrator 25.2.0, SVG Export Plug-In . SVG Version: 6.00 Build 0)  -->
<svg version="1.1" id="Calque_1" xmlns="http://www.w3.org/2000/svg" xmlns:xlink="http://www.w3.org/1999/xlink" x="0px" y="0px"
	 viewBox="0 0 54.33 61.27" style="enable-background:new 0 0 54.33 61.27;" xml:space="preserve">
<style type="text/css">
	.st0{fill:#FF6D00;}
	.st1{fill:#FFFFFF;}
</style>
<path class="st0" d="M54.26,19.39c-0.17-3.5-0.86-9.5-0.86-9.5L27.16,0L0.93,9.89c0,0-0.69,6-0.86,9.5
	C-1.1,43.76,12.53,61.27,27.16,61.27C41.8,61.27,55.43,43.76,54.26,19.39z"/>
<path class="st1" d="M42.2,28.87c-1.03-0.5-2.28-0.07-2.78,0.96l-3.18,6.54c0,0-0.55,0.89-0.98,0.62c-0.43-0.27-0.86-0.23-0.86-2.1
	c0-1.29,0.06-3.84,0.1-5.3c0.02-0.1,0.03-0.2,0.03-0.31v-13.9c0-0.96-0.78-1.73-1.73-1.73c-0.96,0-1.73,0.78-1.73,1.73v11.23
	c0,0.48-0.39,0.87-0.87,0.87c-0.48,0-0.87-0.39-0.87-0.87v-13.8c0-0.96-0.78-1.73-1.73-1.73s-1.73,0.78-1.73,1.73V26.6
	c0,0.48-0.39,0.87-0.87,0.87c-0.48,0-0.87-0.39-0.87-0.87V15.84c0-0.96-0.78-1.73-1.73-1.73c-0.96,0-1.73,0.78-1.73,1.73v11.69
	c0,0.48-0.39,0.87-0.87,0.87c-0.48,0-0.87-0.39-0.87-0.87v-8.65c0-0.96-0.78-1.73-1.73-1.73s-1.73,0.78-1.73,1.73
	c0,0,0,14.68,0,16.31c0,1.64-0.12,14.01,11.02,14.01c9.07,0,10.35-4.59,11.08-6.1c0,0,0,0,0,0l5.58-11.46
	C43.66,30.61,43.24,29.37,42.2,28.87z"/>
</svg>
