<?xml version="1.0" encoding="utf-8"?>
<!-- Generator: Adobe Illustrator 22.1.0, SVG Export Plug-In . SVG Version: 6.00 Build 0)  -->
<svg version="1.1" id="Calque_1" xmlns="http://www.w3.org/2000/svg" xmlns:xlink="http://www.w3.org/1999/xlink" x="0px" y="0px"
	 viewBox="0 0 23.6 23.6" style="enable-background:new 0 0 23.6 23.6;" xml:space="preserve">
<style type="text/css">
	.st0{opacity:0.5;}
	.st1{fill:#201246;}
</style>
<g class="st0">
	<path class="st1" d="M11.8,23.6C5.3,23.6,0,18.3,0,11.8C0,5.3,5.3,0,11.8,0s11.8,5.3,11.8,11.8C23.6,18.3,18.3,23.6,11.8,23.6z
		 M11.8,1.8c-5.5,0-10,4.5-10,10s4.5,10,10,10s10-4.5,10-10S17.3,1.8,11.8,1.8z"/>
</g>
<g class="st0">
	<path class="st1" d="M10.8,13.9V13c0-0.4,0.1-0.7,0.2-1s0.3-0.5,0.5-0.6c0.2-0.2,0.5-0.3,0.9-0.5c0.7-0.4,1.1-0.9,1.1-1.8
		c0-0.6-0.2-1-0.5-1.3c-0.3-0.3-0.7-0.5-1.3-0.5c-0.5,0-1,0.2-1.3,0.5S10,8.5,10,9c0,0.2,0,0.5,0.1,0.7L7.9,9.5c0-0.2,0-0.5,0-0.6
		c0-1.1,0.4-1.9,1.1-2.6c0.7-0.7,1.6-1,2.8-1c1.2,0,2.1,0.3,2.8,1s1.1,1.6,1.1,2.7c0,0.5-0.1,0.9-0.2,1.3c-0.1,0.4-0.3,0.7-0.5,1
		c-0.2,0.3-0.4,0.5-0.7,0.6c-0.2,0.2-0.5,0.3-0.8,0.4c-0.3,0.1-0.4,0.2-0.6,0.4c-0.1,0.2-0.2,0.3-0.2,0.6v0.7H10.8z M12.8,17.5
		c-0.3,0.3-0.6,0.4-1,0.4c-0.4,0-0.7-0.1-1-0.4c-0.3-0.3-0.4-0.6-0.4-1c0-0.4,0.1-0.7,0.4-1c0.3-0.3,0.6-0.4,1-0.4
		c0.4,0,0.7,0.1,1,0.4c0.3,0.3,0.4,0.6,0.4,1C13.2,16.9,13,17.2,12.8,17.5z"/>
</g>
</svg>
