<?xml version="1.0" encoding="utf-8"?>
<!-- Generator: Adobe Illustrator 22.1.0, SVG Export Plug-In . SVG Version: 6.00 Build 0)  -->
<svg version="1.1" id="Calque_1" xmlns="http://www.w3.org/2000/svg" xmlns:xlink="http://www.w3.org/1999/xlink" x="0px" y="0px"
	 viewBox="0 0 25.4 24" style="enable-background:new 0 0 25.4 24;" xml:space="preserve">
<style type="text/css">
	.st0{fill:#FFA300;}
	.st1{fill:#606060;}
</style>
<g>
	<g>
		<path class="st0" d="M24.9,18.4l-9-16.5C15.2,0.7,14,0,12.7,0s-2.5,0.7-3.2,1.8l0,0l-9,16.5c-0.7,1.2-0.7,2.6,0,3.7
			c0.7,1.3,1.9,2,3.2,2h17.9c1.4,0,2.6-0.7,3.3-1.9C25.6,20.9,25.6,19.5,24.9,18.4z"/>
	</g>
	<path class="st1" d="M12.7,20.5c-1,0-1.7-0.7-1.7-1.7s0.7-1.7,1.7-1.7c1-0.1,1.7,0.7,1.7,1.7S13.7,20.5,12.7,20.5z"/>
	<path class="st1" d="M15.1,8.3l-0.8,6.1c-0.1,0.8-0.7,1.5-1.6,1.3c-0.8,0-1.5-0.6-1.6-1.3l-0.8-6.1c-0.2-1.5,1-2.8,2.4-2.8
		C14.2,5.5,15.4,6.8,15.1,8.3z"/>
</g>
</svg>
