<?xml version="1.0" encoding="utf-8"?>
<!-- Generator: Adobe Illustrator 22.1.0, SVG Export Plug-In . SVG Version: 6.00 Build 0)  -->
<svg version="1.1" id="Calque_1" xmlns="http://www.w3.org/2000/svg" xmlns:xlink="http://www.w3.org/1999/xlink" x="0px" y="0px"
	 viewBox="0 0 576 576" style="enable-background:new 0 0 576 576;" xml:space="preserve">
<style type="text/css">
	.st0{fill:#B8A8D3;}
	.st1{fill:#FFFFFF;}
</style>
<rect class="st0" width="576" height="576"/>
<g>
	<g>
		<g>
			<path class="st1" d="M353.5,223.9v-43.4h-14.5v-28.9H236.9v28.9h-14.5v43.4h-57.8v174.5h246.8V223.9H353.5z M222.5,383.9h-43.4
				V238.4h43.4V383.9z M251.4,166.1h73.3v14.5h-73.3V166.1z M280.8,383.9h-43.9v-58.8h43.9V383.9z M339.1,383.9h-43.9v-58.8h43.9
				V383.9z M339.1,310.7H236.9v-28.9h102.2V310.7z M339.1,267.3H236.9v-28.9h102.2V267.3z M339.1,223.9H236.9V195h102.2V223.9z
				 M396.9,383.9h-43.4V238.4h43.4V383.9z"/>
		</g>
	</g>
	<g>
		<g>
			<rect x="193.5" y="252.8" class="st1" width="14.5" height="28.9"/>
		</g>
	</g>
	<g>
		<g>
			<rect x="193.5" y="296.2" class="st1" width="14.5" height="28.9"/>
		</g>
	</g>
	<g>
		<g>
			<rect x="368" y="252.8" class="st1" width="14.5" height="28.9"/>
		</g>
	</g>
	<g>
		<g>
			<rect x="368" y="296.2" class="st1" width="14.5" height="28.9"/>
		</g>
	</g>
</g>
</svg>
