<?xml version="1.0" encoding="utf-8"?>
<!-- Generator: Adobe Illustrator 22.1.0, SVG Export Plug-In . SVG Version: 6.00 Build 0)  -->
<svg version="1.1" id="Calque_1" xmlns="http://www.w3.org/2000/svg" xmlns:xlink="http://www.w3.org/1999/xlink" x="0px" y="0px"
	 viewBox="0 0 90.3 56.4" style="enable-background:new 0 0 90.3 56.4;" xml:space="preserve">
<style type="text/css">
	.st0{fill:#9B8AC1;}
</style>
<g>
	<g>
		<g>
			<g>
				<path class="st0" d="M71.3,38.7c-1.8-3.7-8.1-8.8-14.2-13.8c-3.4-2.8-6.6-5.4-8.7-7.4c-0.5-0.5-1.3-0.7-2-0.4
					c-1.3,0.5-2.1,0.8-2.7,1.1c-0.9,0.4-1.3,0.6-2.5,0.7c-0.6,0.1-1.1,0.4-1.4,0.8c-2.7,4-5.4,3.6-7.3,3c-0.6-0.2-0.7-0.4-0.7-0.7
					c-0.4-1.7,1.6-5.5,4.2-8.1c6.1-6.1,9.3-7.7,15.9-4.7c7.6,3.4,15.1,6,15.2,6.1c1,0.3,2.1-0.2,2.4-1.2c0.3-1-0.2-2.1-1.2-2.4
					c-0.1,0-7.5-2.6-14.9-5.9c-8.6-3.9-13.4-1.3-20.1,5.4c-2.6,2.6-6.1,7.8-5.2,11.6c0.4,1.6,1.5,2.8,3.2,3.4
					c4.3,1.4,8.2,0.1,11.1-3.8c1.2-0.2,1.8-0.5,2.8-0.9c0.4-0.2,0.8-0.3,1.3-0.6c2.2,2,5.1,4.4,8.1,6.8c5.5,4.5,11.8,9.5,13.2,12.5
					c0.7,1.4-0.1,2.4-0.6,2.8c-0.7,0.6-1.8,0.8-2.3,0.5c-0.6-0.4-1.4-0.4-2-0.1c-0.6,0.4-1,1.1-0.9,1.8c0.1,1.2-1,1.9-1.4,2.1
					c-1.2,0.6-2.5,0.5-2.9,0.1c-0.5-0.5-1.3-0.6-2-0.4c-0.7,0.3-1.1,0.9-1.2,1.6c-0.1,1.2-1,2.4-2.2,2.9c-0.6,0.2-1.4,0.3-2.2-0.3
					c-0.5-0.4-1.1-0.6-1.7-0.4c-0.6,0.2-1.1,0.6-1.3,1.2c-0.1,0.2-0.2,0.6-2,0.6c-1.3,0-3.5-0.8-4.6-1.6c-1.3-0.9-9.6-7-16.8-13
					c-1-0.8-2.7-2.7-4.3-4.3c-1.4-1.4-2.6-2.7-3.2-3.3c-0.8-0.7-2-0.6-2.7,0.2c-0.7,0.8-0.6,2,0.2,2.7c0.6,0.5,1.7,1.7,3,3
					c1.7,1.8,3.4,3.6,4.6,4.5c7,5.9,15.4,12.2,17.1,13.3c1.4,0.9,4.4,2.2,6.7,2.2c1.9,0,3.3-0.4,4.3-1.3c1.3,0.5,2.8,0.5,4.3,0
					c1.7-0.7,3.1-2,3.9-3.6c1.5,0.3,3.2,0.1,4.7-0.7c1.5-0.8,2.6-1.9,3.1-3.3c1.5,0.1,3-0.5,4.3-1.5C72,44.2,72.6,41.3,71.3,38.7z"
					/>
			</g>
		</g>
		<g>
			<g>
				<path class="st0" d="M37.6,7.5H20.7c-1,0-1.9,0.8-1.9,1.9s0.8,1.9,1.9,1.9h16.9c1,0,1.9-0.8,1.9-1.9S38.7,7.5,37.6,7.5z"/>
			</g>
		</g>
		<g>
			<g>
				<path class="st0" d="M76.8,34.7c-0.6-0.9-1.7-1.1-2.6-0.5l-5.5,3.7c-0.9,0.6-1.1,1.7-0.5,2.6c0.4,0.5,1,0.8,1.6,0.8
					c0.4,0,0.7-0.1,1-0.3l5.5-3.7C77.2,36.7,77.4,35.6,76.8,34.7z"/>
			</g>
		</g>
		<g>
			<g>
				<path class="st0" d="M65.1,43.7c-1.3-1.1-7.4-7.2-11.1-11.1c-0.7-0.8-1.9-0.8-2.7-0.1c-0.8,0.7-0.8,1.9-0.1,2.7
					c1,1,9.5,9.9,11.5,11.5c0.3,0.3,0.8,0.4,1.2,0.4c0.6,0,1.1-0.2,1.5-0.7C66.1,45.5,66,44.3,65.1,43.7z"/>
			</g>
		</g>
		<g>
			<g>
				<path class="st0" d="M57.6,47.5c-2.3-1.8-7.9-7.8-9.2-9.2c-0.7-0.8-1.9-0.8-2.7-0.1C45,38.8,45,40,45.7,40.8
					c0.1,0.1,6.8,7.4,9.6,9.6c0.3,0.3,0.8,0.4,1.2,0.4c0.5,0,1.1-0.2,1.5-0.7C58.6,49.3,58.4,48.1,57.6,47.5z"/>
			</g>
		</g>
		<g>
			<g>
				<path class="st0" d="M50.1,51.2C47.5,49,42,43.1,40.9,42c-0.7-0.8-1.9-0.8-2.7-0.1c-0.8,0.7-0.8,1.9-0.1,2.7
					c1.5,1.7,6.8,7.2,9.6,9.6c0.4,0.3,0.8,0.4,1.2,0.4c0.5,0,1.1-0.2,1.4-0.7C51,53.1,50.9,51.9,50.1,51.2z"/>
			</g>
		</g>
		<g>
			<g>
				<path class="st0" d="M22,4.3C18.8,1.2,5.9,0.2,2,0C1.5,0,1,0.2,0.6,0.5C0.2,0.9,0,1.4,0,1.9v33.9c0,1,0.8,1.9,1.9,1.9h11.3
					c0.8,0,1.5-0.5,1.8-1.3c0.3-0.8,6.8-20.7,7.6-30.5C22.6,5.2,22.4,4.7,22,4.3z M11.8,33.9h-8v-30c6,0.5,12.6,1.5,14.9,2.7
					C17.7,14.8,13.2,29.4,11.8,33.9z"/>
			</g>
		</g>
		<g>
			<g>
				<path class="st0" d="M88.4,3.8c-14.8,0-23,3.8-23.3,3.9c-0.5,0.2-0.9,0.7-1,1.2C64,9.4,64,9.9,64.3,10.4
					c2.3,3.7,9.6,24.5,11,29.6c0.2,0.8,1,1.4,1.8,1.4h11.3c1,0,1.9-0.8,1.9-1.9V5.6C90.3,4.6,89.5,3.8,88.4,3.8z M86.6,37.6h-8
					c-1.8-5.8-7.1-21-10-27.2c2.9-1,9-2.6,18-2.9V37.6z"/>
			</g>
		</g>
	</g>
</g>
</svg>
