<?xml version="1.0" encoding="utf-8"?>
<!-- Generator: Adobe Illustrator 22.1.0, SVG Export Plug-In . SVG Version: 6.00 Build 0)  -->
<svg version="1.1" id="Calque_1" xmlns="http://www.w3.org/2000/svg" xmlns:xlink="http://www.w3.org/1999/xlink" x="0px" y="0px"
	 viewBox="0 0 67.8 67.8" style="enable-background:new 0 0 67.8 67.8;" xml:space="preserve">
<style type="text/css">
	.st0{fill:#9B8AC1;}
</style>
<g>
	<path class="st0" d="M67.3,56L55.8,44.6l5.6-5.6c0.5-0.5,0.7-1.2,0.5-1.9c-0.2-0.7-0.7-1.2-1.3-1.4L26.9,24.4
		c-0.7-0.2-1.5-0.1-2,0.5c-0.5,0.5-0.7,1.3-0.5,2l11.2,33.7c0.2,0.7,0.8,1.1,1.4,1.3c0.7,0.2,1.4,0,1.9-0.5l5.6-5.6L56,67.3
		c0.4,0.4,0.9,0.6,1.4,0.6c0.5,0,1-0.2,1.4-0.6l8.4-8.4C68,58.1,68,56.8,67.3,56z M57.4,63L46,51.6c-0.8-0.8-2-0.8-2.8,0l-4.8,4.8
		l-9-26.9l26.9,9l-4.8,4.8c-0.8,0.8-0.8,2,0,2.8L63,57.4L57.4,63z"/>
	<path class="st0" d="M25.8,15.9c1.1,0,2-0.9,2-2V2c0-1.1-0.9-2-2-2s-2,0.9-2,2v11.9C23.9,15,24.7,15.9,25.8,15.9z"/>
	<path class="st0" d="M10.4,7.6c-0.8-0.8-2-0.8-2.8,0s-0.8,2,0,2.8l8.4,8.4c0.8,0.8,2,0.8,2.8,0c0.8-0.8,0.8-2,0-2.8L10.4,7.6z"/>
	<path class="st0" d="M16,32.9l-8.4,8.4c-0.8,0.8-0.8,2,0,2.8c0.8,0.8,2,0.8,2.8,0l8.4-8.4c0.8-0.8,0.8-2,0-2.8
		C18,32.1,16.8,32.1,16,32.9z"/>
	<path class="st0" d="M35.7,18.8l8.4-8.4c0.8-0.8,0.8-2,0-2.8c-0.8-0.8-2-0.8-2.8,0L32.9,16c-0.8,0.8-0.8,2,0,2.8
		C33.6,19.6,34.9,19.6,35.7,18.8z"/>
	<path class="st0" d="M15.9,25.8c0-1.1-0.9-2-2-2H2c-1.1,0-2,0.9-2,2s0.9,2,2,2h11.9C15,27.8,15.9,26.9,15.9,25.8z"/>
</g>
</svg>
