<?xml version="1.0" encoding="utf-8"?>
<!-- Generator: Adobe Illustrator 22.1.0, SVG Export Plug-In . SVG Version: 6.00 Build 0)  -->
<svg version="1.1" id="Calque_1" xmlns="http://www.w3.org/2000/svg" xmlns:xlink="http://www.w3.org/1999/xlink" x="0px" y="0px"
	 viewBox="0 0 64.2 64.2" style="enable-background:new 0 0 64.2 64.2;" xml:space="preserve">
<style type="text/css">
	.st0{fill:#9B8AC1;}
</style>
<circle class="st0" cx="43.4" cy="27.8" r="2"/>
<path class="st0" d="M33.5,52.8L33.5,52.8c-4.6,0.2-9.2-0.6-13.3-2.3c-0.5-0.2-1.1-0.2-1.6,0L5.9,55.9l4.4-10.4
	c0.3-0.7,0.2-1.6-0.4-2.2C6.1,39,4.1,33.9,4.1,28.5c0-13.5,12.6-24.4,28-24.4s28,11,28,24.4c0,3.2-0.8,6.4-2.3,9.6
	c-0.2,0.5-0.3,1-0.1,1.6c0.2,0.5,0.5,0.9,1,1.2c0.5,0.2,1,0.3,1.6,0.1s0.9-0.5,1.2-1c1.8-3.7,2.8-7.5,2.8-11.4
	C64.2,12.8,49.8,0,32.1,0S0,12.8,0,28.5C0,34.4,2,40,5.8,44.8L6,45.1L0.2,58.9c-0.3,0.8-0.2,1.7,0.4,2.2c0.6,0.6,1.5,0.8,2.2,0.4
	l16.6-7l0.2,0.1c4.4,1.7,9.2,2.4,14.1,2.2c0.5,0,1-0.3,1.4-0.7c0.4-0.4,0.6-0.9,0.5-1.5c0-0.5-0.3-1.1-0.7-1.4
	C34.6,52.9,34.1,52.7,33.5,52.8z"/>
<path class="st0" d="M20.5,29.8c1.1,0,2-0.9,2-2s-0.9-2-2-2c-1.1,0-2,0.9-2,2S19.4,29.8,20.5,29.8z"/>
<circle class="st0" cx="32" cy="27.8" r="2"/>
<path class="st0" d="M48.1,38.1c-0.3-0.2-0.6-0.4-0.9-0.5L37,34.7c-0.2,0-0.4-0.1-0.5-0.1c-0.5,0-1.1,0.2-1.5,0.6
	c-0.5,0.5-0.7,1.3-0.5,2l3,10c0.1,0.3,0.3,0.6,0.5,0.9l14,13.9c1.3,1.3,3.1,2.1,5,2.1s3.7-0.7,5-2.1c1.3-1.3,2.1-3.1,2.1-5
	s-0.7-3.7-2.1-5L48.1,38.1z M51.1,55.5l-9.9-9.9l-1.8-6l6.2,1.7l0.1,0.1l9.7,9.7L51.1,55.5z M59.2,59.2c-0.6,0.6-1.3,0.9-2.2,0.9
	c0,0,0,0,0,0c-0.8,0-1.6-0.3-2.2-0.9L54,58.4l4.3-4.3l0.8,0.8c0.6,0.6,0.9,1.3,0.9,2.2S59.8,58.6,59.2,59.2z"/>
</svg>
