<?xml version="1.0" encoding="utf-8"?>
<!-- Generator: Adobe Illustrator 22.1.0, SVG Export Plug-In . SVG Version: 6.00 Build 0)  -->
<svg version="1.1" id="Calque_1" xmlns="http://www.w3.org/2000/svg" xmlns:xlink="http://www.w3.org/1999/xlink" x="0px" y="0px"
	 viewBox="0 0 75.3 51.2" style="enable-background:new 0 0 75.3 51.2;" xml:space="preserve">
<style type="text/css">
	.st0{fill:#9B8AC1;}
</style>
<g>
	<path class="st0" d="M33.8,38.1H3.2V8.6L30.4,28c0.5,0.4,1.3,0.4,1.9,0L59.4,8.6v13.7c0,0,0,0,0,0c1.6,0.8,2.7,2.3,3.2,3.9V5.5
		c0-0.1,0-0.2,0-0.2l0-0.1l0-0.1c0-0.1,0-0.2,0-0.3V1.6C62.6,0.7,61.9,0,61,0H1.6C0.7,0,0,0.7,0,1.6v3.2C0,4.9,0,5,0,5l0,0.2l0,0.2
		c0,0,0,0.1,0,0.1v34.2c0,0.9,0.7,1.6,1.6,1.6h32.6c-0.3-0.8-0.5-1.6-0.5-2.4C33.8,38.7,33.8,38.4,33.8,38.1z M60.4,3.2l-29,21
		L2.1,3.2H60.4z"/>
	<path class="st0" d="M57.5,34.9l-0.9-0.1v-7.1L39.2,39.4l17.5,11.8v-7.7l1,0c2.9,0,5.2,0.1,7.2,0.4c7.1,0.8,9.6,4.3,10.5,6.5
		C74.5,37.7,60.4,35.2,57.5,34.9z"/>
</g>
</svg>
