<?xml version="1.0" encoding="utf-8"?>
<!-- Generator: Adobe Illustrator 22.1.0, SVG Export Plug-In . SVG Version: 6.00 Build 0)  -->
<svg version="1.1" id="Calque_1" xmlns="http://www.w3.org/2000/svg" xmlns:xlink="http://www.w3.org/1999/xlink" x="0px" y="0px"
	 viewBox="0 0 21.2 21.2" style="enable-background:new 0 0 21.2 21.2;" xml:space="preserve">
<style type="text/css">
	.st0{fill:#E8501D;}
	.st1{fill:#343434;}
</style>
<g>
	<circle class="st0" cx="10.6" cy="10.6" r="10.3"/>
	<path class="st1" d="M16,14.9c-1.4-1.5-3.4-2.3-5.4-2.3c0,0,0,0,0,0c-2.1,0-4,0.8-5.4,2.3c-0.2,0.2-0.2,0.4-0.2,0.7
		c0.1,0.3,0.3,0.5,0.5,0.5c0.1,0,0.1,0,0.2,0c0.2,0,0.4-0.1,0.5-0.2c1.2-1.2,2.8-1.9,4.4-1.9c0,0,0,0,0,0c1.7,0,3.2,0.7,4.4,1.9
		c0.2,0.2,0.4,0.3,0.7,0.2c0.3-0.1,0.5-0.3,0.5-0.5C16.2,15.4,16.1,15.1,16,14.9z"/>
	<circle class="st1" cx="7.4" cy="7.2" r="1.6"/>
	<circle class="st1" cx="13.5" cy="7.2" r="1.6"/>
</g>
</svg>
