<?xml version="1.0" encoding="utf-8"?>
<!-- Generator: Adobe Illustrator 22.1.0, SVG Export Plug-In . SVG Version: 6.00 Build 0)  -->
<svg version="1.1" id="Calque_1" xmlns="http://www.w3.org/2000/svg" xmlns:xlink="http://www.w3.org/1999/xlink" x="0px" y="0px"
	 viewBox="0 0 26.5 26.5" style="enable-background:new 0 0 26.5 26.5;" xml:space="preserve">
<style type="text/css">
	.st0{fill:#414042;}
	.st1{fill:#FCDC1C;}
</style>
<g>
	<path class="st0" d="M13.2,0c7.3,0,13.2,5.9,13.2,13.2s-5.9,13.2-13.2,13.2S0,20.5,0,13.2S5.9,0,13.2,0z"/>
</g>
<path class="st1" d="M13.3,4C8.1,4,4,8.1,4,13.2c0,2.9,1.3,5.5,3.4,7.2c0.7,0.5,1.4,1,2.2,1.3c0.8,0.4,1.7,0.6,2.7,0.7
	c0.3,0,0.7,0.1,1,0.1s0.7,0,1-0.1c0.9-0.1,1.8-0.3,2.7-0.7c0.8-0.3,1.5-0.8,2.2-1.3c2.1-1.7,3.4-4.3,3.4-7.2C22.5,8.1,18.4,4,13.3,4
	z M10,14.2h1.8c0.2,0,0.4,0.2,0.4,0.4v1.8c0,0.2-0.2,0.4-0.4,0.4H10c-0.2,0-0.4-0.2-0.4-0.4v-1.8C9.6,14.4,9.8,14.2,10,14.2z
	 M9.6,12.8V11c0-0.2,0.2-0.4,0.4-0.4h1.8c0.2,0,0.4,0.2,0.4,0.4v1.8c0,0.2-0.2,0.4-0.4,0.4H10C9.8,13.3,9.6,13.1,9.6,12.8z M10,17.7
	h1.8c0.2,0,0.4,0.2,0.4,0.4V20c0,0.2-0.2,0.4-0.4,0.4H10c-0.2,0-0.4-0.2-0.4-0.4v-1.8C9.6,17.9,9.8,17.7,10,17.7z M14.7,14.2h1.8
	c0.2,0,0.4,0.2,0.4,0.4v1.8c0,0.2-0.2,0.4-0.4,0.4h-1.8c-0.2,0-0.4-0.2-0.4-0.4v-1.8C14.2,14.4,14.4,14.2,14.7,14.2z M14.2,12.8V11
	c0-0.2,0.2-0.4,0.4-0.4h1.8c0.2,0,0.4,0.2,0.4,0.4v1.8c0,0.2-0.2,0.4-0.4,0.4h-1.8C14.4,13.3,14.2,13.1,14.2,12.8z M14.7,17.7h1.8
	c0.2,0,0.4,0.2,0.4,0.4V20c0,0.2-0.2,0.4-0.4,0.4h-1.8c-0.2,0-0.4-0.2-0.4-0.4v-1.8C14.2,17.9,14.4,17.7,14.7,17.7z M19.1,18.9v-7.8
	c0-1.2-1-2.2-2.2-2.2H9.6c-1.2,0-2.2,1-2.2,2.2v7.7c-1.4-1.5-2.2-3.4-2.2-5.5c0-4.5,3.6-8.1,8.1-8.1s8.1,3.6,8.1,8.1
	C21.4,15.5,20.5,17.4,19.1,18.9z"/>
</svg>
