<?xml version="1.0" encoding="utf-8"?>
<!-- Generator: Adobe Illustrator 22.1.0, SVG Export Plug-In . SVG Version: 6.00 Build 0)  -->
<svg version="1.1" id="Calque_1" xmlns="http://www.w3.org/2000/svg" xmlns:xlink="http://www.w3.org/1999/xlink" x="0px" y="0px"
	 viewBox="0 0 26.5 26.5" style="enable-background:new 0 0 26.5 26.5;" xml:space="preserve">
<style type="text/css">
	.st0{fill:#702EEA;}
	.st1{fill:#FFFFFF;}
</style>
<g>
	<path class="st0" d="M13.2,0c7.3,0,13.2,5.9,13.2,13.2s-5.9,13.2-13.2,13.2S0,20.5,0,13.2S5.9,0,13.2,0z"/>
</g>
<g>
	<path class="st1" d="M21.4,18.6c-0.1,0.1-0.2,0.2-0.2,0.3"/>
	<path class="st1" d="M9.7,6.8c-1.7,0-3.1,1.5-3.1,3.2s1.4,3.2,3.1,3.2c1.7,0,3.1-1.5,3.1-3.2S11.4,6.8,9.7,6.8z"/>
	<path class="st1" d="M16.7,7.3C16.7,7.3,16.7,7.3,16.7,7.3c-0.7,0-1.4,0.3-1.9,0.8c-0.5,0.5-0.7,1.2-0.7,2c0,0.7,0.3,1.4,0.8,1.9
		c0.5,0.5,1.2,0.8,1.9,0.8c0,0,0,0,0,0c0.7,0,1.4-0.3,1.9-0.8c0.5-0.5,0.7-1.2,0.7-2C19.3,8.5,18.1,7.3,16.7,7.3z"/>
	<path class="st1" d="M16.8,13.4h-0.3c-1.2,0-2.3,0.5-3.1,1.2c0.2,0.2,0.4,0.3,0.6,0.5c0.5,0.5,1,1.2,1.3,1.9c0.3,0.6,0.4,1.3,0.5,2
		h5.4c0.1-0.1,0.2-0.2,0.2-0.3V18C21.4,15.5,19.3,13.4,16.8,13.4z"/>
	<path class="st1" d="M14.8,19.3c0-0.1,0-0.2,0-0.3c-0.1-1.5-0.9-2.8-2-3.7c-0.8-0.6-1.8-1-2.9-1H9.6c-2.3,0-4.3,1.6-4.8,3.8
		c0.4,0.6,0.8,1.2,1.3,1.7h8.8V19.3z"/>
</g>
</svg>
