<?xml version="1.0" encoding="utf-8"?>
<!-- Generator: Adobe Illustrator 22.1.0, SVG Export Plug-In . SVG Version: 6.00 Build 0)  -->
<svg version="1.1" id="Capa_1" xmlns="http://www.w3.org/2000/svg" xmlns:xlink="http://www.w3.org/1999/xlink" x="0px" y="0px"
	 viewBox="0 0 40 40" style="enable-background:new 0 0 40 40;" xml:space="preserve">
<style type="text/css">
	.st0{fill:#279EFF;}
	.st1{fill:#FAFAFA;}
</style>
<circle class="st0" cx="20" cy="20" r="20"/>
<path class="st1" d="M29.7,8.9h-7c0,0,0,0,0,0s0,0,0,0h-1.3v0H10.3c-0.3,0-0.6,0.3-0.6,0.6v21c0,0.3,0.3,0.6,0.6,0.6h7c0,0,0,0,0,0
	c0,0,0,0,0,0h1.3v0h11.1c0.3,0,0.6-0.3,0.6-0.6v-21C30.3,9.2,30,8.9,29.7,8.9z M16.7,29.9h-5.8v-2.3h5.8V29.9z M16.7,26.4h-5.8v-2.3
	h5.8V26.4z M16.7,22.9h-5.8v-2.3h5.8V22.9z M16.7,19.4h-5.8v-2.3h5.8V19.4z M16.7,15.9h-5.8v-2.3h5.8V15.9z M16.7,12.4h-5.8v-2.3
	h5.8V12.4z M22.1,29.9h-0.7h-2.8h-0.7v-2.3h0.7h2.8h0.7V29.9z M22.1,26.4h-0.7h-2.8h-0.7v-2.3h0.7h2.8h0.7V26.4z M22.1,22.9h-0.7
	h-2.8h-0.7v-2.3h0.7h2.8h0.7V22.9z M22.1,19.4h-0.7h-2.8h-0.7v-2.3h0.7h2.8h0.7V19.4z M22.1,15.9h-0.7h-2.8h-0.7v-2.3h0.7h2.8h0.7
	V15.9z M22.1,12.4h-0.7h-2.8h-0.7v-2.3h0.7h2.8h0.7V12.4z M29.1,29.9h-5.8v-2.3h5.8V29.9z M29.1,26.4h-5.8v-2.3h5.8V26.4z
	 M29.1,22.9h-5.8v-2.3h5.8V22.9z M29.1,19.4h-5.8v-2.3h5.8V19.4z M29.1,15.9h-5.8v-2.3h5.8V15.9z M29.1,12.4h-5.8v-2.3h5.8V12.4z"/>
</svg>
