<?xml version="1.0" encoding="utf-8"?>
<!-- Generator: Adobe Illustrator 22.1.0, SVG Export Plug-In . SVG Version: 6.00 Build 0)  -->
<svg version="1.1" id="Calque_1" xmlns="http://www.w3.org/2000/svg" xmlns:xlink="http://www.w3.org/1999/xlink" x="0px" y="0px"
	 viewBox="0 0 26.5 26.5" style="enable-background:new 0 0 26.5 26.5;" xml:space="preserve">
<style type="text/css">
	.st0{fill:#4CAF50;}
	.st1{fill:#FFFFFF;}
</style>
<g>
	<g>
		<path class="st0" d="M13.2,0c7.3,0,13.2,5.9,13.2,13.2s-5.9,13.2-13.2,13.2S0,20.5,0,13.2S5.9,0,13.2,0z"/>
	</g>
	<path class="st1" d="M19.7,7.9h-3.4c0,0,0,0,0,0h0h-2V7c0-0.1,0-0.2-0.1-0.2c-0.1-0.1-0.2-0.1-0.2-0.1L6.7,8.4
		c-0.1,0-0.2,0.1-0.2,0.3v9.6c0,0.1,0.1,0.3,0.2,0.3l7.4,1.1c0.2,0,0.3-0.1,0.3-0.2c0,0,0,0,0,0v-0.8h2c0,0,0,0,0,0s0,0,0,0h3.4
		c0.2,0,0.3-0.1,0.3-0.3V8.1C20,8,19.9,7.9,19.7,7.9z M16.1,13h-1.7v-1.1h1.7V13z M16.6,11.8h2.8V13h-2.8V11.8z M14.4,13.5h1.7v1.1
		h-1.7V13.5z M16.6,13.5h2.8v1.1h-2.8V13.5z M19.5,11.3h-2.8v-1.1h2.8V11.3z M16.1,11.3h-1.7v-1.1h1.7V11.3z M14.4,15.2h1.7v1.1
		h-1.7V15.2z M16.6,15.2h2.8v1.1h-2.8V15.2z M19.5,9.6h-2.8V8.4h2.8V9.6z M16.1,8.4v1.1h-1.7V8.4H16.1z M12.1,15.4
		c0.1,0.1,0,0.3-0.1,0.4c0,0-0.1,0-0.1,0c-0.1,0-0.2-0.1-0.2-0.1l-1.2-1.9l-1.2,1.9c-0.1,0.1-0.1,0.1-0.2,0.1
		c-0.2,0-0.3-0.1-0.3-0.3c0-0.1,0-0.1,0-0.1l1.3-2.1l-1.3-2.1c-0.1-0.1-0.1-0.3,0.1-0.4s0.3-0.1,0.4,0.1c0,0,0,0,0,0l1.2,1.9
		l1.2-1.9c0.1-0.1,0.3-0.2,0.4-0.1c0.1,0.1,0.2,0.3,0.1,0.4c0,0,0,0,0,0l-1.3,2.1L12.1,15.4z M14.4,16.9h1.7V18h-1.7V16.9z M16.6,18
		v-1.1h2.8V18H16.6z"/>
</g>
</svg>
