<?xml version="1.0" encoding="utf-8"?>
<!-- Generator: Adobe Illustrator 22.1.0, SVG Export Plug-In . SVG Version: 6.00 Build 0)  -->
<svg version="1.1" id="Capa_1" xmlns="http://www.w3.org/2000/svg" xmlns:xlink="http://www.w3.org/1999/xlink" x="0px" y="0px"
	 viewBox="0 0 40 40" style="enable-background:new 0 0 40 40;" xml:space="preserve">
<style type="text/css">
	.st0{fill:#4CAF50;}
	.st1{fill:#FAFAFA;}
</style>
<circle class="st0" cx="20" cy="20" r="20"/>
<path class="st1" d="M32,10.1h-6.2c0,0,0,0,0,0s0,0,0,0h-3.6V8.5c0-0.2-0.1-0.3-0.2-0.4C21.8,8,21.6,8,21.4,8L7.9,11.2
	c-0.2,0.1-0.4,0.3-0.4,0.5v17.7c0,0.3,0.2,0.5,0.4,0.5L21.5,32c0.3,0,0.6-0.2,0.6-0.4c0,0,0-0.1,0-0.1v-1.6H32
	c0.3,0,0.5-0.2,0.5-0.5V10.6C32.5,10.3,32.3,10.1,32,10.1z M17.8,23.9c0.2,0.2,0.1,0.6-0.2,0.7c-0.1,0.1-0.2,0.1-0.3,0.1
	c-0.2,0-0.3-0.1-0.4-0.2L14.8,21l-2.2,3.5c-0.1,0.2-0.3,0.2-0.4,0.2c-0.3,0-0.5-0.2-0.5-0.5c0-0.1,0-0.2,0.1-0.3l2.4-3.9l-2.4-3.9
	c-0.2-0.2-0.1-0.6,0.1-0.7c0.2-0.2,0.6-0.1,0.7,0.1c0,0,0,0,0,0l2.2,3.5l2.2-3.5c0.1-0.2,0.5-0.3,0.7-0.2c0.2,0.1,0.3,0.5,0.2,0.7
	c0,0,0,0,0,0L15.4,20L17.8,23.9z M25.2,28.9h-3.1v-2.1h3.1V28.9z M25.2,25.7h-3.1v-2.1h3.1V25.7z M25.2,22.6h-3.1v-2.1h3.1V22.6z
	 M25.2,19.5h-3.1v-2.1h3.1V19.5z M25.2,16.4h-3.1v-2.1h3.1V16.4z M25.2,13.2h-3.1v-2.1h3.1V13.2z M31.5,28.9h-5.2v-2.1h5.2V28.9z
	 M31.5,25.7h-5.2v-2.1h5.2V25.7z M31.5,22.6h-5.2v-2.1h5.2V22.6z M31.5,19.5h-5.2v-2.1h5.2V19.5z M31.5,16.4h-5.2v-2.1h5.2V16.4z
	 M31.5,13.2h-5.2v-2.1h5.2V13.2z"/>
</svg>
