<?xml version="1.0" encoding="utf-8"?>
<!-- Generator: Adobe Illustrator 22.1.0, SVG Export Plug-In . SVG Version: 6.00 Build 0)  -->
<svg version="1.1" id="Calque_1" xmlns="http://www.w3.org/2000/svg" xmlns:xlink="http://www.w3.org/1999/xlink" x="0px" y="0px"
	 viewBox="0 0 26.5 26.5" style="enable-background:new 0 0 26.5 26.5;" xml:space="preserve">
<style type="text/css">
	.st0{fill-rule:evenodd;clip-rule:evenodd;fill:#FFFFFF;}
	.st1{fill-rule:evenodd;clip-rule:evenodd;fill:#221E1B;}
</style>
<g>
	<circle class="st0" cx="13.2" cy="13.2" r="13.2"/>
	<path class="st1" d="M13.2,0C5.9,0,0,5.9,0,13.2C0,19,3.8,24,9,25.7c0.7,0.1,0.9-0.3,0.9-0.6c0-0.3,0-1.1,0-2.2
		c-3.7,0.8-4.4-1.8-4.4-1.8C4.9,19.5,4,19.1,4,19.1c-1.2-0.8,0.1-0.8,0.1-0.8c1.3,0.1,2,1.4,2,1.4c1.2,2,3.1,1.4,3.8,1.1
		c0.1-0.9,0.5-1.4,0.8-1.8c-2.9-0.3-6-1.5-6-6.5c0-1.4,0.5-2.6,1.4-3.5C6,8.6,5.5,7.3,6.3,5.5c0,0,1.1-0.4,3.6,1.4
		c1.1-0.3,2.2-0.4,3.3-0.4c1.1,0,2.3,0.2,3.3,0.4c2.5-1.7,3.6-1.4,3.6-1.4c0.7,1.8,0.3,3.2,0.1,3.5c0.8,0.9,1.4,2.1,1.4,3.5
		c0,5.1-3.1,6.2-6,6.5c0.5,0.4,0.9,1.2,0.9,2.4c0,1.8,0,3.2,0,3.6c0,0.4,0.2,0.8,0.9,0.6c5.2-1.7,9-6.7,9-12.5
		C26.4,5.9,20.5,0,13.2,0z"/>
</g>
</svg>
