<?xml version="1.0" encoding="utf-8"?>
<!-- Generator: Adobe Illustrator 22.1.0, SVG Export Plug-In . SVG Version: 6.00 Build 0)  -->
<svg version="1.1" id="Calque_1" xmlns="http://www.w3.org/2000/svg" xmlns:xlink="http://www.w3.org/1999/xlink" x="0px" y="0px"
	 viewBox="0 0 27.6 26.9" style="enable-background:new 0 0 27.6 26.9;" xml:space="preserve">
<style type="text/css">
	.st0{fill:#A595CA;}
</style>
<path class="st0" d="M9.8,26.9c-0.1,0-0.2,0-0.3,0l-0.1,0C3.9,25.1,0,19.7,0,13.8C0,6.2,6.2,0,13.8,0s13.8,6.1,13.8,13.7
	c0,5.9-3.9,11.3-9.4,13.1c-0.6,0.2-1,0-1.2-0.1c-0.3-0.2-0.5-0.6-0.5-1V22c0-0.9-0.3-1.6-0.7-1.9l-1.1-0.9l1.5-0.2
	c2.7-0.3,5.5-1.2,5.5-5.9c0-1.4-0.7-2.5-1.2-3.1L20,9.7l0.3-0.4c0.1-0.1,0.4-1.2,0-2.6C19.8,6.7,18.9,7,17.4,8l-0.2,0.1l-0.2,0
	c-0.8-0.2-2.1-0.4-3.2-0.4c-1.2,0-2.2,0.1-3.1,0.4l-0.3,0.1L10.1,8C8.6,6.9,7.7,6.7,7.3,6.7C6.9,7.9,7.1,8.9,7.2,9.3l0.1,0.5L7.1,10
	c-0.8,0.8-1.2,1.9-1.2,3.1c0,3.7,1.7,5.5,5.5,5.9l1.1,0.1L11.8,20c-0.3,0.4-0.6,0.8-0.7,1.5l0,0.3L10.7,22C9,22.7,7.5,22.3,6.5,21
	c0.1,0.1,0.1,0.3,0.2,0.5c0.1,0.3,0.7,2.1,3.7,1.4l0.7-0.2v2.9c0,0.4-0.1,0.7-0.4,0.9C10.5,26.8,10.2,26.9,9.8,26.9z M9.7,25.7
	c0.1,0,0.2,0,0.2,0l0-1.5c-3.6,0.4-4.4-2.3-4.4-2.4c-0.5-1.3-1.1-1.6-1.2-1.6c-0.3-0.2-1-0.7-0.8-1.3c0.2-0.6,0.9-0.6,1.2-0.6
	C6.4,18.4,7.2,20,7.2,20C8,21.3,9.1,21.3,10,21c0.1-0.4,0.2-0.6,0.3-0.9c-3.8-0.7-5.6-3-5.6-7c0-1.4,0.5-2.7,1.3-3.7
	C5.9,8.8,5.6,7.5,6.4,5.9l0.1-0.2l0.2-0.1c0.2-0.1,1.5-0.4,3.9,1.3c1-0.2,2-0.3,3.2-0.3c1.1,0,2.3,0.2,3.2,0.4
	c2.5-1.6,3.7-1.4,3.9-1.3l0.3,0.1l0.1,0.3c0.6,1.6,0.5,2.9,0.2,3.6c0.6,0.8,1.3,2,1.3,3.6c0,5.1-2.9,6.5-5.5,7
	c0.3,0.5,0.4,1.2,0.4,1.9v3.6c0,0,0,0,0,0.1c0,0,0.1,0,0.1,0c5-1.6,8.6-6.6,8.6-11.9c0-6.9-5.7-12.5-12.6-12.5
	C6.9,1.2,1.2,6.9,1.2,13.8C1.2,19.2,4.7,24,9.7,25.7z"/>
</svg>
