<?xml version="1.0" encoding="utf-8"?>
<!-- Generator: Adobe Illustrator 22.1.0, SVG Export Plug-In . SVG Version: 6.00 Build 0)  -->
<svg version="1.1" id="Calque_1" xmlns="http://www.w3.org/2000/svg" xmlns:xlink="http://www.w3.org/1999/xlink" x="0px" y="0px"
	 viewBox="0 0 26.5 26.5" style="enable-background:new 0 0 26.5 26.5;" xml:space="preserve">
<style type="text/css">
	.st0{fill:#EFEFEF;}
	.st1{fill:#4285F4;}
	.st2{fill:#34A853;}
	.st3{fill:#FBBC04;}
	.st4{fill:#EA4335;}
</style>
<g>
	<path class="st0" d="M13.2,0c7.3,0,13.2,5.9,13.2,13.2s-5.9,13.2-13.2,13.2S0,20.5,0,13.2S5.9,0,13.2,0z"/>
</g>
<g>
	<path class="st1" d="M20.6,13.4c0-0.5,0-1-0.1-1.5h-7.1v2.9h4c-0.2,0.9-0.7,1.8-1.5,2.3v1.9h2.4C19.8,17.6,20.6,15.7,20.6,13.4z"/>
	<path class="st2" d="M13.4,20.7c2,0,3.7-0.7,5-1.8l-2.4-1.9c-0.7,0.5-1.5,0.7-2.6,0.7c-2,0-3.6-1.3-4.2-3.1H6.7v1.9
		C8,19.1,10.6,20.7,13.4,20.7z"/>
	<path class="st3" d="M9.2,14.7c-0.3-0.9-0.3-1.9,0-2.9V9.9H6.7c-1.1,2.1-1.1,4.6,0,6.7L9.2,14.7z"/>
	<path class="st4" d="M13.4,8.7c1.1,0,2.1,0.4,2.9,1.1l0,0l2.1-2.1c-1.4-1.3-3.2-2-5-1.9c-2.8,0-5.4,1.6-6.7,4.1l2.5,1.9
		C9.8,10,11.4,8.7,13.4,8.7z"/>
</g>
</svg>
