<?xml version="1.0" encoding="utf-8"?>
<!-- Generator: Adobe Illustrator 22.1.0, SVG Export Plug-In . SVG Version: 6.00 Build 0)  -->
<svg version="1.1" id="Calque_1" xmlns="http://www.w3.org/2000/svg" xmlns:xlink="http://www.w3.org/1999/xlink" x="0px" y="0px"
	 viewBox="0 0 26.5 26.5" style="enable-background:new 0 0 26.5 26.5;" xml:space="preserve">
<style type="text/css">
	.st0{fill:#AA61FF;}
	.st1{fill:#FFFFFF;}
</style>
<g>
	<path class="st0" d="M13.2,0c7.3,0,13.2,5.9,13.2,13.2s-5.9,13.2-13.2,13.2S0,20.5,0,13.2S5.9,0,13.2,0z"/>
</g>
<g>
	<g>
		<path class="st1" d="M13.2,4C8.1,4,4,8.1,4,13.2c0,5.1,4.2,9.3,9.3,9.3c5.1,0,9.3-4.2,9.3-9.3C22.5,8.1,18.4,4,13.2,4z M19.2,18.7
			c-0.7-1.5-2-2.6-3.5-3.2c1.1-0.8,1.8-2,1.8-3.5c0-2.3-1.9-4.2-4.2-4.2S9,9.7,9,12c0,1.4,0.7,2.7,1.8,3.5c-1.5,0.6-2.8,1.7-3.5,3.2
			c-1.3-1.4-2.1-3.4-2.1-5.5c0-4.5,3.6-8.1,8.1-8.1s8.1,3.6,8.1,8.1C21.3,15.3,20.5,17.3,19.2,18.7z"/>
	</g>
</g>
</svg>
