<?xml version="1.0" encoding="utf-8"?>
<!-- Generator: Adobe Illustrator 22.1.0, SVG Export Plug-In . SVG Version: 6.00 Build 0)  -->
<svg version="1.1" id="Calque_1" xmlns="http://www.w3.org/2000/svg" xmlns:xlink="http://www.w3.org/1999/xlink" x="0px" y="0px"
	 viewBox="0 0 26.5 26.5" style="enable-background:new 0 0 26.5 26.5;" xml:space="preserve">
<style type="text/css">
	.st0{fill:#0E76A8;}
	.st1{fill:#FFFFFF;}
</style>
<g>
	<path class="st0" d="M13.2,0c7.3,0,13.2,5.9,13.2,13.2s-5.9,13.2-13.2,13.2S0,20.5,0,13.2S5.9,0,13.2,0z"/>
</g>
<path class="st1" d="M19.8,10.4c-0.9,0-1.7,0.4-2.2,1.1l-6.2-3.1c0.1-0.2,0.1-0.5,0.1-0.8c0-1.5-1.2-2.8-2.8-2.8S6.1,6.2,6.1,7.7
	c0,1.5,1.2,2.8,2.8,2.8c0.9,0,1.7-0.4,2.2-1.1l6.2,3.1c-0.1,0.2-0.1,0.5-0.1,0.8c0,0.3,0.1,0.6,0.1,0.8l-6.1,3.2
	c-0.5-0.8-1.3-1.3-2.3-1.3c-1.5,0-2.8,1.2-2.8,2.8c0,1.5,1.2,2.8,2.8,2.8s2.8-1.2,2.8-2.8c0-0.2,0-0.4-0.1-0.5l6.2-3.3
	c0.5,0.6,1.3,1.1,2.1,1.1c1.5,0,2.8-1.2,2.8-2.8C22.6,11.7,21.4,10.4,19.8,10.4z"/>
</svg>
