<?xml version="1.0" encoding="utf-8"?>
<!-- Generator: Adobe Illustrator 25.2.0, SVG Export Plug-In . SVG Version: 6.00 Build 0)  -->
<svg version="1.1" id="Calque_1" xmlns="http://www.w3.org/2000/svg" xmlns:xlink="http://www.w3.org/1999/xlink" x="0px" y="0px"
	 viewBox="0 0 26.5 26.5" style="enable-background:new 0 0 26.5 26.5;" xml:space="preserve">
<style type="text/css">
	.st0{fill:#E89105;}
	.st1{fill:#FFFFFF;}
</style>
<g>
	<path class="st0" d="M13.2,0c7.3,0,13.2,5.9,13.2,13.2s-5.9,13.2-13.2,13.2S0,20.5,0,13.2S5.9,0,13.2,0z"/>
</g>
<g>
	<g>
		<path class="st1" d="M13.24,3.91c0,0-0.01,0-0.03,0c-5.04,0-9.14,4.1-9.14,9.14c0,2.06,0.7,4.05,1.99,5.66L4.73,21.8
			c-0.11,0.25,0.01,0.55,0.26,0.65c0.09,0.04,0.19,0.05,0.28,0.03l4.88-0.86c0.98,0.35,2,0.53,3.04,0.53c5.04,0,9.14-4.1,9.14-9.14
			C22.34,7.99,18.27,3.91,13.24,3.91z"/>
	</g>
</g>
<path class="st0" d="M17.51,11.45c-0.58,0-1.09,0.26-1.42,0.71l-3.99-2c0.06-0.13,0.06-0.32,0.06-0.52c0-0.97-0.77-1.8-1.8-1.8
	s-1.67,0.9-1.67,1.87s0.77,1.8,1.8,1.8c0.58,0,1.09-0.26,1.42-0.71l3.99,2c-0.06,0.13-0.06,0.32-0.06,0.52
	c0,0.19,0.06,0.39,0.06,0.52l-3.93,2.06c-0.32-0.52-0.84-0.84-1.48-0.84c-0.97,0-1.8,0.77-1.8,1.8c0,0.97,0.77,1.8,1.8,1.8
	s1.8-0.77,1.8-1.8c0-0.13,0-0.26-0.06-0.32l3.99-2.13c0.32,0.39,0.84,0.71,1.35,0.71c0.97,0,1.8-0.77,1.8-1.8
	C19.32,12.28,18.54,11.45,17.51,11.45z"/>
</svg>
