<?xml version="1.0" encoding="utf-8"?>
<!-- Generator: Adobe Illustrator 22.1.0, SVG Export Plug-In . SVG Version: 6.00 Build 0)  -->
<svg version="1.1" id="Calque_1" xmlns="http://www.w3.org/2000/svg" xmlns:xlink="http://www.w3.org/1999/xlink" x="0px" y="0px"
	 viewBox="0 0 26.5 26.5" style="enable-background:new 0 0 26.5 26.5;" xml:space="preserve">
<style type="text/css">
	.st0{fill:#0E76A8;}
	.st1{fill:#FFFFFF;}
</style>
<g>
	<path class="st0" d="M13.2,0c7.3,0,13.2,5.9,13.2,13.2s-5.9,13.2-13.2,13.2S0,20.5,0,13.2S5.9,0,13.2,0z"/>
</g>
<g>
	<g>
		<path class="st1" d="M20.3,17.6l-2.5-2.5c0.5-0.9,0.8-2,0.8-3.1c0-3.6-2.9-6.5-6.5-6.5S5.5,8.4,5.5,12s2.9,6.5,6.5,6.5
			c1.1,0,2.1-0.3,3.1-0.8l2.5,2.5c0.8,0.8,1.9,0.8,2.7,0C21,19.6,21,18.4,20.3,17.6z M12.1,17c-2.8,0-5-2.2-5-5s2.2-5,5-5s5,2.2,5,5
			S14.8,17,12.1,17z"/>
	</g>
</g>
</svg>
