<?xml version="1.0" encoding="utf-8"?>
<!-- Generator: Adobe Illustrator 25.2.0, SVG Export Plug-In . SVG Version: 6.00 Build 0)  -->
<svg version="1.1" id="Capa_1" xmlns="http://www.w3.org/2000/svg" xmlns:xlink="http://www.w3.org/1999/xlink" x="0px" y="0px"
	 viewBox="0 0 40 40" style="enable-background:new 0 0 40 40;" xml:space="preserve">
<style type="text/css">
	.st0{fill:#EA152F;}
	.st1{fill:#FFFFFF;}
</style>
<circle class="st0" cx="20" cy="20" r="20"/>
<g>
	<path class="st1" d="M32.5,16.2h-1.8v-2.6l-6.4-6.4H11.1v9H9.4V29h1.8v3.8h19.6V29h1.8V16.2z M24.7,9.8l3.4,3.4h-3.4V9.8z
		 M12.6,8.7h10.6v6h6v1.5H12.6V8.7z M29.2,31.3H12.6V29h16.6V31.3z M31,27.5H10.9v-9.8H31V27.5z"/>
	<path class="st1" d="M14.5,23.9h0.7c1.3,0,2.3-1,2.3-2.3c0-1.3-1-2.3-2.3-2.3H13v6.8h1.5V23.9z M14.5,20.8h0.7
		c0.4,0,0.8,0.3,0.8,0.8c0,0.4-0.3,0.8-0.8,0.8h-0.7V20.8z"/>
	<path class="st1" d="M23.5,23.1v-0.8c0-1.7-1.3-3-3-3H19v6.8h1.5C22.2,26.1,23.5,24.8,23.5,23.1z M20.5,20.8c0.8,0,1.5,0.7,1.5,1.5
		v0.8c0,0.8-0.7,1.5-1.5,1.5V20.8z"/>
	<path class="st1" d="M26.6,24h1.5v-1.5h-1.5v-1.7h2.2v-1.5h-3.8v6.8h1.5V24z"/>
</g>
</svg>
