<?xml version="1.0" encoding="utf-8"?>
<!-- Generator: Adobe Illustrator 25.2.0, SVG Export Plug-In . SVG Version: 6.00 Build 0)  -->
<svg version="1.1" id="Calque_1" xmlns="http://www.w3.org/2000/svg" xmlns:xlink="http://www.w3.org/1999/xlink" x="0px" y="0px"
	 viewBox="0 0 329.6 329.6" style="enable-background:new 0 0 329.6 329.6;" xml:space="preserve">
<style type="text/css">
	.st0{fill:#0178B6;}
	.st1{fill:#FFFFFF;}
</style>
<circle class="st0" cx="164.8" cy="164.8" r="164.8"/>
<path class="st1" d="M165.1,44.9c-64.4,0-116.6,52.2-116.6,116.6s52.2,116.6,116.6,116.6s116.6-52.2,116.6-116.6
	S229.5,44.9,165.1,44.9z"/>
<g>
	<g>
		<path class="st0" d="M169.5,181c-1.5,0.9-3.1,1.3-4.5,1.3c-1.5,0-3.1-0.4-4.5-1.3L88,136.8v58.7c0,12.5,10.2,22.7,22.7,22.7h108.5
			c12.5,0,22.7-10.2,22.7-22.7v-58.7L169.5,181z"/>
	</g>
</g>
<g>
	<g>
		<path class="st0" d="M219.3,104.8H110.7c-10.7,0-19.8,7.6-22,17.8l76.4,46.5l76.2-46.5C239.1,112.4,230,104.8,219.3,104.8z"/>
	</g>
</g>
</svg>
