<?xml version="1.0" encoding="utf-8"?>
<!-- Generator: Adobe Illustrator 22.1.0, SVG Export Plug-In . SVG Version: 6.00 Build 0)  -->
<svg version="1.1" id="Calque_1" xmlns="http://www.w3.org/2000/svg" xmlns:xlink="http://www.w3.org/1999/xlink" x="0px" y="0px"
	 viewBox="0 0 329.6 329.6" style="enable-background:new 0 0 329.6 329.6;" xml:space="preserve">
<style type="text/css">
	.st0{fill:#0178B6;}
	.st1{fill:#FFFFFF;}
</style>
<circle class="st0" cx="164.8" cy="164.8" r="164.8"/>
<path class="st1" d="M165.1,44.9c-64.4,0-116.6,52.2-116.6,116.6s52.2,116.6,116.6,116.6s116.6-52.2,116.6-116.6
	S229.5,44.9,165.1,44.9z M196.2,245.1c-9.7,3.7-20.3,5.7-31.3,5.7c-11.2,0-21.9-2.1-31.9-5.9h-0.1v-66h63.4V245.1z M164.8,148.9
	c-21.4,0-38.8-17.4-38.8-38.8c0-21.4,17.4-38.8,38.8-38.8s38.8,17.4,38.8,38.8C203.6,131.5,186.2,148.9,164.8,148.9z"/>
</svg>
