<?xml version="1.0" encoding="utf-8"?>
<!-- Generator: Adobe Illustrator 22.1.0, SVG Export Plug-In . SVG Version: 6.00 Build 0)  -->
<svg version="1.1" id="Calque_1" xmlns="http://www.w3.org/2000/svg" xmlns:xlink="http://www.w3.org/1999/xlink" x="0px" y="0px"
	 viewBox="0 0 329.6 329.6" style="enable-background:new 0 0 329.6 329.6;" xml:space="preserve">
<style type="text/css">
	.st0{fill:#0178B6;}
	.st1{fill:#FFFFFF;}
</style>
<circle class="st0" cx="164.6" cy="164.8" r="164.8"/>
<path class="st1" d="M295.8,265.3l-38.8-38.8c12.9-18.3,20.4-40.5,20.4-64.6c0-62-50.3-112.3-112.3-112.3S52.8,99.9,52.8,161.9
	s50.3,112.3,112.3,112.3c23.4,0,45.1-7.1,63.1-19.4l39.3,39.3C278.2,285.9,287.7,276.2,295.8,265.3z M165.1,241.3
	c-43.8,0-79.3-35.5-79.3-79.3s35.5-79.3,79.3-79.3s79.3,35.5,79.3,79.3S208.9,241.3,165.1,241.3z"/>
<path class="st1" d="M227.1,167.7c0,4.7-3.8,8.5-8.5,8.5h-107c-4.7,0-8.5-3.8-8.5-8.5v-3.5c0-4.7,3.8-8.5,8.5-8.5h107
	c4.7,0,8.5,3.8,8.5,8.5V167.7z M244.8,145.3H85.3c-5.6,0-10.3-4.6-10.3-10.3c0-5.6,4.6-10.3,10.3-10.3h159.5
	c5.6,0,10.3,4.6,10.3,10.3C255.1,140.7,250.5,145.3,244.8,145.3z M244.8,208.3H85.3c-5.6,0-10.3-4.6-10.3-10.3
	c0-5.6,4.6-10.3,10.3-10.3h159.5c5.6,0,10.3,4.6,10.3,10.3C255.1,203.6,250.5,208.3,244.8,208.3z"/>
</svg>
