<?xml version="1.0" encoding="utf-8"?>
<!-- Generator: Adobe Illustrator 22.1.0, SVG Export Plug-In . SVG Version: 6.00 Build 0)  -->
<svg version="1.1" id="Calque_1" xmlns="http://www.w3.org/2000/svg" xmlns:xlink="http://www.w3.org/1999/xlink" x="0px" y="0px"
	 viewBox="0 0 26.5 26.5" style="enable-background:new 0 0 26.5 26.5;" xml:space="preserve">
<style type="text/css">
	.st0{fill:#702EEA;}
	.st1{fill:#FFFFFF;}
</style>
<g>
	<path class="st0" d="M13.2,0c7.3,0,13.2,5.9,13.2,13.2s-5.9,13.2-13.2,13.2S0,20.5,0,13.2S5.9,0,13.2,0z"/>
</g>
<path class="st1" d="M19.3,5.3h-2.6c-1,0-1.8,0.8-1.8,1.8v2.4c0,0,0,0.1,0,0.1c0,0.8-0.4,1.3-0.5,1.5l-3.2,3.1l0,0c0,0,0,0-0.1,0
	C10.5,14.9,9.8,15,9.6,15H9.5H7.1c-1,0-1.8,0.8-1.8,1.8v2.6c0,1,0.8,1.8,1.8,1.8h2.6c1,0,1.8-0.8,1.8-1.8v-2.5
	c0.1-0.8,0.4-1.3,0.6-1.5l3.1-3.1c0,0,0,0,0,0c0.7-0.6,1.4-0.7,1.6-0.7c0,0,0,0,0,0h2.6c1,0,1.8-0.8,1.8-1.8V7.1
	C21.1,6.1,20.3,5.3,19.3,5.3z"/>
</svg>
