<?xml version="1.0" encoding="utf-8"?>
<!-- Generator: Adobe Illustrator 22.1.0, SVG Export Plug-In . SVG Version: 6.00 Build 0)  -->
<svg version="1.1" id="Capa_1" xmlns="http://www.w3.org/2000/svg" xmlns:xlink="http://www.w3.org/1999/xlink" x="0px" y="0px"
	 viewBox="0 0 40 40" style="enable-background:new 0 0 40 40;" xml:space="preserve">
<style type="text/css">
	.st0{fill:#A5A5A5;}
	.st1{fill:#FFFFFF;}
</style>
<circle class="st0" cx="20" cy="20" r="20"/>
<path d="M45-231c-141.2,0-256,114.8-256,256S-96.2,281,45,281S301,166.2,301,25S186.2-231,45-231z M45,249
	c-123.5,0-224-100.5-224-224S-78.5-199,45-199S269-98.5,269,25S168.5,249,45,249z"/>
<g>
	<path class="st1" d="M20,6.4C12.5,6.4,6.4,12.5,6.4,20S12.5,33.6,20,33.6S33.6,27.5,33.6,20S27.5,6.4,20,6.4z M20,31.9
		c-6.6,0-11.9-5.3-11.9-11.9S13.4,8.1,20,8.1S31.9,13.4,31.9,20S26.6,31.9,20,31.9z"/>
	<path class="st1" d="M19.2,26.8h1.7v1.7h-1.7V26.8z"/>
	<path class="st1" d="M20,11.5c-2.8,0-5.1,2.3-5.1,5.1v1.7h1.7v-1.7c0-1.9,1.5-3.4,3.4-3.4c1.9,0,3.4,1.5,3.4,3.4
		c0,1.3-0.7,2.5-1.8,3.1L19.6,21c-0.3,0.2-0.4,0.4-0.4,0.7v3.4h1.7v-2.9l1.6-1c1.6-1,2.6-2.7,2.6-4.6C25.1,13.8,22.8,11.5,20,11.5
		L20,11.5z"/>
</g>
</svg>
