<?xml version="1.0" encoding="utf-8"?>
<!-- Generator: Adobe Illustrator 22.1.0, SVG Export Plug-In . SVG Version: 6.00 Build 0)  -->
<svg version="1.1" id="Calque_1" xmlns="http://www.w3.org/2000/svg" xmlns:xlink="http://www.w3.org/1999/xlink" x="0px" y="0px"
	 viewBox="0 0 27.1 31.4" style="enable-background:new 0 0 27.1 31.4;" xml:space="preserve">
<style type="text/css">
	.st0{fill:#06D373;}
</style>
<g>
	<g>
		<path class="st0" d="M25.7,7.9l-7.6-7.6c-0.4-0.4-1.2-0.4-1.6,0C16,0.8,16,1.5,16.5,2l5.6,5.6H10.6c-4.3,0-7.8,3.5-7.8,7.8v14.9
			c0,0.6,0.5,1.1,1.1,1.1s1.1-0.5,1.1-1.1V15.4c0-3,2.5-5.5,5.5-5.5h11.5l-5.6,5.6c-0.4,0.4-0.4,1.2,0,1.6c0.2,0.2,0.5,0.3,0.8,0.3
			c0.3,0,0.6-0.1,0.8-0.3l7.6-7.6C26.1,9.1,26.1,8.3,25.7,7.9z"/>
	</g>
</g>
</svg>
