<?xml version="1.0" encoding="utf-8"?>
<!-- Generator: Adobe Illustrator 22.1.0, SVG Export Plug-In . SVG Version: 6.00 Build 0)  -->
<svg version="1.1" id="Calque_1" xmlns="http://www.w3.org/2000/svg" xmlns:xlink="http://www.w3.org/1999/xlink" x="0px" y="0px"
	 viewBox="0 0 27.1 31.4" style="enable-background:new 0 0 27.1 31.4;" xml:space="preserve">
<style type="text/css">
	.st0{fill:#06D373;}
</style>
<g>
	<g>
		<path class="st0" d="M19.2,30.4l7.6-7.6c0.4-0.4,0.4-1.2,0-1.6c-0.4-0.4-1.2-0.4-1.6,0l-5.6,5.6V15.4c0-4.3-3.5-7.8-7.8-7.8H1.1
			C0.5,7.5,0,8.1,0,8.7s0.5,1.1,1.1,1.1h10.5c3,0,5.5,2.5,5.5,5.5v11.5l-5.6-5.6c-0.4-0.4-1.2-0.4-1.6,0c-0.2,0.2-0.3,0.5-0.3,0.8
			c0,0.3,0.1,0.6,0.3,0.8l7.6,7.6C18,30.9,18.7,30.9,19.2,30.4z"/>
	</g>
</g>
</svg>
