<?xml version="1.0" encoding="utf-8"?>
<!-- Generator: Adobe Illustrator 22.1.0, SVG Export Plug-In . SVG Version: 6.00 Build 0)  -->
<svg version="1.1" id="Calque_1" xmlns="http://www.w3.org/2000/svg" xmlns:xlink="http://www.w3.org/1999/xlink" x="0px" y="0px"
	 viewBox="0 0 20 20" style="enable-background:new 0 0 20 20;" xml:space="preserve">
<style type="text/css">
	.st0{fill:#EDEDED;}
	.st1{fill:#4285F4;}
	.st2{fill:#34A853;}
	.st3{fill:#FBBC04;}
	.st4{fill:#EA4335;}
</style>
<circle class="st0" cx="10" cy="10" r="10"/>
<g>
	<path class="st1" d="M16.6,10.2c0-0.5,0-0.9-0.1-1.4h-6.4v2.6h3.7c-0.2,0.8-0.6,1.6-1.4,2.1v1.7h2.2C15.9,14,16.6,12.2,16.6,10.2
		L16.6,10.2z"/>
	<path class="st2" d="M10.1,16.8c1.8,0,3.4-0.6,4.5-1.6l-2.2-1.7c-0.6,0.4-1.4,0.6-2.3,0.6c-1.8,0-3.3-1.2-3.8-2.8H4.1V13
		C5.2,15.3,7.6,16.8,10.1,16.8z"/>
	<path class="st3" d="M6.3,11.3C6,10.5,6,9.5,6.3,8.7V7H4.1c-1,1.9-1,4.2,0,6.1L6.3,11.3z"/>
	<path class="st4" d="M10.1,5.9c1,0,1.9,0.3,2.6,1L14.7,5c-1.2-1.2-2.9-1.8-4.5-1.8C7.6,3.2,5.2,4.7,4.1,7l2.3,1.7
		C6.9,7.1,8.4,5.9,10.1,5.9z"/>
</g>
</svg>
