<?xml version="1.0" encoding="utf-8"?>
<!-- Generator: Adobe Illustrator 22.1.0, SVG Export Plug-In . SVG Version: 6.00 Build 0)  -->
<svg version="1.1" id="Calque_1" xmlns="http://www.w3.org/2000/svg" xmlns:xlink="http://www.w3.org/1999/xlink" x="0px" y="0px"
	 viewBox="0 0 20 20" style="enable-background:new 0 0 20 20;" xml:space="preserve">
<style type="text/css">
	.st0{fill:#12495E;}
	.st1{fill:#FFFFFF;}
</style>
<path class="st0" d="M8.3,14.3v-2.1h3.4v2.2c1.7-0.7,2.9-2.3,2.9-4.2c0-2.5-2-4.5-4.5-4.5s-4.5,2-4.5,4.5C5.5,12,6.7,13.6,8.3,14.3z
	"/>
<path class="st0" d="M10,0C4.5,0,0,4.5,0,10c0,2.3,0.8,4.4,2.1,6.1l2.2-2.2c-0.7-1.1-1.1-2.3-1.1-3.7c0-3.8,3.1-6.8,6.8-6.8
	s6.8,3.1,6.8,6.8c0,3.8-3.1,6.8-6.8,6.8c-1.4,0-2.8-0.4-3.9-1.2L4,18c1.7,1.3,3.8,2,6,2c5.5,0,10-4.5,10-10S15.5,0,10,0z"/>
<path class="st1" d="M10.1,17c3.8,0,6.8-3.1,6.8-6.8c0-3.8-3.1-6.8-6.8-6.8s-6.8,3.1-6.8,6.8c0,1.4,0.4,2.6,1.1,3.7l-2.2,2.2
	C2.6,16.8,3.3,17.4,4,18l2.2-2.2C7.3,16.6,8.6,17,10.1,17z M10.1,5.6c2.5,0,4.5,2,4.5,4.5c0,1.9-1.2,3.5-2.9,4.2v-2.2H8.3v2.1
	c-1.6-0.7-2.8-2.3-2.8-4.2C5.5,7.7,7.6,5.6,10.1,5.6z"/>
<path class="st1" d="M10.1,7.1c-1.1,0-2,0.9-2,2c0,1.1,0.9,2,2,2c1.1,0,2-0.9,2-2C12.1,8,11.2,7.1,10.1,7.1z"/>
</svg>
