<?xml version="1.0" encoding="utf-8"?>
<!-- Generator: Adobe Illustrator 22.1.0, SVG Export Plug-In . SVG Version: 6.00 Build 0)  -->
<svg version="1.1" id="Calque_1" xmlns="http://www.w3.org/2000/svg" xmlns:xlink="http://www.w3.org/1999/xlink" x="0px" y="0px"
	 viewBox="0 0 20 20" style="enable-background:new 0 0 20 20;" xml:space="preserve">
<style type="text/css">
	.st0{fill:#49707C;}
	.st1{fill:#FFFFFF;}
</style>
<circle class="st0" cx="10" cy="10" r="10"/>
<g>
	<path class="st1" d="M10.3,11.3c0.6-0.4,1.1-1.2,0.4-1.8c-0.7-0.6-1.4-0.2-1.4-0.1c-0.5,0.5-1,1.8-1.7,3.2
		C7.6,12.6,10,11.5,10.3,11.3z"/>
	<path class="st1" d="M10.1,3.2c-3.8,0-6.8,3.1-6.8,6.8s3.1,6.8,6.8,6.8s6.8-3.1,6.8-6.8S13.8,3.2,10.1,3.2z M11.8,11.3
		c0,0-0.4,0.7-5.9,3.1c0,0,1.2-3.1,2.7-5.5c0,0,0.7-1,5.9-3.1C14.4,5.8,13.4,8.4,11.8,11.3z"/>
</g>
</svg>
