<?xml version="1.0" encoding="utf-8"?>
<!-- Generator: Adobe Illustrator 22.1.0, SVG Export Plug-In . SVG Version: 6.00 Build 0)  -->
<svg version="1.1" id="Calque_1" xmlns="http://www.w3.org/2000/svg" xmlns:xlink="http://www.w3.org/1999/xlink" x="0px" y="0px"
	 viewBox="0 0 20 20" style="enable-background:new 0 0 20 20;" xml:space="preserve">
<style type="text/css">
	.st0{fill:#EABB57;}
	.st1{fill:#FFFFFF;}
</style>
<circle class="st0" cx="10" cy="10" r="10"/>
<g>
	<path id="path28_9_" class="st1" d="M7.1,15.1V8.2H4.8v6.9H7.1z M5.9,7.3c0.8,0,1.3-0.5,1.3-1.2
		c0-0.7-0.5-1.2-1.3-1.2c-0.8,0-1.3,0.5-1.3,1.2C4.6,6.7,5.1,7.3,5.9,7.3L5.9,7.3L5.9,7.3z"/>
	<path id="path30_9_" class="st1" d="M8.3,15.1h2.3v-3.9c0-0.2,0-0.4,0.1-0.6
		c0.2-0.4,0.5-0.8,1.2-0.8c0.8,0,1.2,0.6,1.2,1.6v3.7h2.3v-4C15.4,9,14.2,8,12.7,8c-1.2,0-1.8,0.7-2.1,1.2h0v-1H8.3
		C8.4,8.9,8.3,15.1,8.3,15.1L8.3,15.1z"/>
</g>
</svg>
