<?xml version="1.0" encoding="utf-8"?>
<!-- Generator: Adobe Illustrator 22.1.0, SVG Export Plug-In . SVG Version: 6.00 Build 0)  -->
<svg version="1.1" id="Calque_1" xmlns="http://www.w3.org/2000/svg" xmlns:xlink="http://www.w3.org/1999/xlink" x="0px" y="0px"
	 viewBox="0 0 20 20" style="enable-background:new 0 0 20 20;" xml:space="preserve">
<style type="text/css">
	.st0{fill:url(#SVGID_1_);}
	.st1{fill:url(#SVGID_2_);}
	.st2{fill:#1DA1F2;}
	.st3{fill:url(#SVGID_3_);}
	.st4{fill:url(#SVGID_4_);}
	.st5{fill:#FFFFFF;}
</style>
<g>
	
		<radialGradient id="SVGID_1_" cx="-336.8688" cy="-476.5526" r="10.0007" gradientTransform="matrix(0 -1.982 -1.8439 0 -873.4027 -646.1268)" gradientUnits="userSpaceOnUse">
		<stop  offset="0" style="stop-color:#FFDD55"/>
		<stop  offset="0.1" style="stop-color:#FFDD55"/>
		<stop  offset="0.5" style="stop-color:#FF543E"/>
		<stop  offset="1" style="stop-color:#C837AB"/>
	</radialGradient>
	<path class="st0" d="M10,20C4.5,20,0,15.5,0,10C0,4.5,4.5,0,10,0s10,4.5,10,10C20,15.5,15.5,20,10,20z"/>
	
		<radialGradient id="SVGID_2_" cx="141.3949" cy="-65.5102" r="9.1422" gradientTransform="matrix(0.1739 0.8687 3.5818 -0.7172 207.8461 -167.6374)" gradientUnits="userSpaceOnUse">
		<stop  offset="0" style="stop-color:#3771C8"/>
		<stop  offset="0.128" style="stop-color:#3771C8"/>
		<stop  offset="1" style="stop-color:#6600FF;stop-opacity:0"/>
	</radialGradient>
	<path class="st1" d="M10,20C4.5,20,0,15.5,0,10C0,4.5,4.5,0,10,0s10,4.5,10,10C20,15.5,15.5,20,10,20z"/>
	<ellipse transform="matrix(0.7071 -0.7071 0.7071 0.7071 -4.1422 10)" class="st2" cx="10" cy="10" rx="10" ry="10"/>
	
		<radialGradient id="SVGID_3_" cx="-337.0735" cy="-476.562" r="10.4733" gradientTransform="matrix(0 -1.982 -1.8439 0 -873.4027 -646.1268)" gradientUnits="userSpaceOnUse">
		<stop  offset="0" style="stop-color:#FFDD55"/>
		<stop  offset="0.1" style="stop-color:#FFDD55"/>
		<stop  offset="0.5" style="stop-color:#FF543E"/>
		<stop  offset="1" style="stop-color:#C837AB"/>
	</radialGradient>
	<circle class="st3" cx="10" cy="10" r="10"/>
	
		<radialGradient id="SVGID_4_" cx="139.636" cy="-65.8548" r="10.4733" gradientTransform="matrix(0.1739 0.8687 3.5818 -0.7172 207.8461 -167.6374)" gradientUnits="userSpaceOnUse">
		<stop  offset="0" style="stop-color:#3771C8"/>
		<stop  offset="0.128" style="stop-color:#3771C8"/>
		<stop  offset="1" style="stop-color:#6600FF;stop-opacity:0"/>
	</radialGradient>
	<circle class="st4" cx="10" cy="10" r="10"/>
</g>
<path class="st5" d="M10,4c-1.6,0-1.8,0-2.5,0c-0.6,0-1.1,0.1-1.4,0.3C5.7,4.5,5.4,4.7,5,5C4.7,5.4,4.5,5.7,4.4,6.1
	C4.2,6.5,4.1,6.9,4.1,7.5c0,0.6,0,0.8,0,2.5s0,1.8,0,2.5c0,0.6,0.1,1.1,0.3,1.4C4.5,14.3,4.7,14.6,5,15c0.3,0.3,0.7,0.5,1.1,0.7
	c0.4,0.1,0.8,0.2,1.4,0.3c0.6,0,0.8,0,2.5,0c1.6,0,1.8,0,2.5,0c0.6,0,1.1-0.1,1.4-0.3c0.4-0.2,0.7-0.4,1.1-0.7
	c0.3-0.3,0.5-0.7,0.7-1.1c0.1-0.4,0.2-0.8,0.3-1.4c0-0.6,0-0.8,0-2.5s0-1.8,0-2.5c0-0.6-0.1-1.1-0.3-1.4C15.5,5.7,15.3,5.4,15,5
	c-0.3-0.3-0.7-0.5-1.1-0.7c-0.4-0.1-0.8-0.2-1.4-0.3C11.8,4.1,11.6,4,10,4L10,4z M9.5,5.1c0.2,0,0.3,0,0.5,0c1.6,0,1.8,0,2.4,0
	c0.6,0,0.9,0.1,1.1,0.2c0.3,0.1,0.5,0.2,0.7,0.4c0.2,0.2,0.3,0.4,0.4,0.7c0.1,0.2,0.2,0.5,0.2,1.1c0,0.6,0,0.8,0,2.4s0,1.8,0,2.4
	c0,0.6-0.1,0.9-0.2,1.1c-0.1,0.3-0.2,0.5-0.4,0.7c-0.2,0.2-0.4,0.3-0.7,0.4c-0.2,0.1-0.5,0.2-1.1,0.2c-0.6,0-0.8,0-2.4,0
	c-1.6,0-1.8,0-2.4,0c-0.6,0-0.9-0.1-1.1-0.2c-0.3-0.1-0.5-0.2-0.7-0.4c-0.2-0.2-0.3-0.4-0.4-0.7c-0.1-0.2-0.2-0.5-0.2-1.1
	c0-0.6,0-0.8,0-2.4s0-1.8,0-2.4c0-0.6,0.1-0.9,0.2-1.1C5.5,6.2,5.6,6,5.8,5.8C6,5.6,6.2,5.5,6.5,5.4C6.7,5.3,7,5.2,7.6,5.2
	C8.1,5.1,8.4,5.1,9.5,5.1L9.5,5.1z M13.2,6.1c-0.4,0-0.7,0.3-0.7,0.7c0,0.4,0.3,0.7,0.7,0.7s0.7-0.3,0.7-0.7
	C13.9,6.4,13.6,6.1,13.2,6.1L13.2,6.1z M10,6.9c-1.7,0-3.1,1.4-3.1,3.1s1.4,3.1,3.1,3.1c1.7,0,3.1-1.4,3.1-3.1S11.7,6.9,10,6.9
	L10,6.9z M10,8c1.1,0,2,0.9,2,2c0,1.1-0.9,2-2,2c-1.1,0-2-0.9-2-2C8,8.9,8.9,8,10,8z"/>
</svg>
