<?xml version="1.0" encoding="utf-8"?>
<!-- Generator: Adobe Illustrator 22.1.0, SVG Export Plug-In . SVG Version: 6.00 Build 0)  -->
<svg version="1.1" id="Calque_1" xmlns="http://www.w3.org/2000/svg" xmlns:xlink="http://www.w3.org/1999/xlink" x="0px" y="0px"
	 viewBox="0 0 20 20" style="enable-background:new 0 0 20 20;" xml:space="preserve">
<style type="text/css">
	.st0{fill:#1DA1F2;}
	.st1{fill:#FFFFFF;}
</style>
<circle class="st0" cx="10" cy="10" r="10"/>
<g id="layer1" transform="translate(-539.17946,-568.85777)">
	<path id="path3611" class="st1" d="M547.3,584.6c4.9,0,7.5-4,7.5-7.5c0-0.1,0-0.2,0-0.3c0.5-0.4,1-0.8,1.3-1.4
		c-0.5,0.2-1,0.4-1.5,0.4c0.5-0.3,1-0.8,1.2-1.5c-0.5,0.3-1.1,0.5-1.7,0.6c-0.5-0.5-1.2-0.8-1.9-0.8c-1.5,0-2.7,1.2-2.7,2.7
		c0,0.2,0,0.4,0.1,0.6c-2.2-0.1-4.2-1.2-5.5-2.8c-0.2,0.4-0.4,0.8-0.4,1.3c0,0.9,0.5,1.7,1.2,2.2c-0.4,0-0.8-0.1-1.2-0.3
		c0,0,0,0,0,0c0,1.3,0.9,2.4,2.1,2.6c-0.2,0.1-0.5,0.1-0.7,0.1c-0.2,0-0.3,0-0.5,0c0.3,1.1,1.3,1.8,2.5,1.8c-0.9,0.7-2,1.1-3.3,1.1
		c-0.2,0-0.4,0-0.6,0C544.5,584.2,545.8,584.6,547.3,584.6"/>
</g>
</svg>
