<?xml version="1.0" encoding="utf-8"?>
<!-- Generator: Adobe Illustrator 22.1.0, SVG Export Plug-In . SVG Version: 6.00 Build 0)  -->
<svg version="1.1" id="Calque_1" xmlns="http://www.w3.org/2000/svg" xmlns:xlink="http://www.w3.org/1999/xlink" x="0px" y="0px"
	 viewBox="0 0 84.1 22.2" style="enable-background:new 0 0 84.1 22.2;" xml:space="preserve">
<style type="text/css">
	.st0{fill:#EABB57;}
	.st1{fill:#FFFFFF;}
</style>
<g>
	<path class="st0" d="M82.9,0H64.7h-1.4H1.2C0.5,0,0,0.5,0,1.2V21c0,0.7,0.5,1.2,1.2,1.2h62.1h1.4h18.2c0.7,0,1.2-0.5,1.2-1.2V1.2
		C84.1,0.5,83.6,0,82.9,0z M1.2,21.1C1.1,21.1,1.1,21,1.2,21.1L1.1,1.2c0,0,0-0.1,0.1-0.1h62.1v1.2v17.5v1.3H1.2z M82.9,21.1
		L82.9,21.1C82.9,21,82.9,21,82.9,21.1L82.9,21.1C83,21,82.9,21.1,82.9,21.1z"/>
	<g>
		<path d="M21.6,6h1.8v8.6h4.2v1.5h-6V6z"/>
		<path d="M30.2,6.7c0,0.6-0.4,1-1.1,1c-0.6,0-1-0.4-1-1c0-0.6,0.4-1,1-1C29.8,5.7,30.2,6.2,30.2,6.7z M28.3,16.1V8.8h1.8v7.3H28.3z
			"/>
		<path d="M31.4,11c0-0.8,0-1.5-0.1-2.2h1.6L33,9.9h0c0.3-0.6,1.1-1.3,2.3-1.3c1.3,0,2.6,0.8,2.6,3.1v4.3h-1.8V12
			c0-1-0.4-1.8-1.4-1.8c-0.7,0-1.2,0.5-1.4,1.1c-0.1,0.2-0.1,0.4-0.1,0.6v4.3h-1.8V11z"/>
		<path d="M41.1,12L41.1,12c0.2-0.3,0.4-0.6,0.6-0.9l1.8-2.3h2.2l-2.7,3l3.1,4.3h-2.3l-2.1-3.2l-0.6,0.7v2.5h-1.8V5.4h1.8V12z"/>
		<path d="M47.3,12.9c0,1.3,1.1,1.9,2.3,1.9c0.8,0,1.5-0.1,2-0.3l0.3,1.3c-0.6,0.3-1.5,0.5-2.5,0.5c-2.4,0-3.8-1.5-3.8-3.7
			c0-2,1.2-3.9,3.6-3.9c2.4,0,3.1,2,3.1,3.5c0,0.3,0,0.6-0.1,0.8H47.3z M50.5,11.7c0-0.7-0.3-1.8-1.5-1.8c-1.1,0-1.6,1-1.7,1.8H50.5
			z"/>
		<path d="M59.7,5.4V14c0,0.7,0,1.6,0.1,2h-1.6l-0.1-1.2h0c-0.4,0.8-1.3,1.3-2.4,1.3c-1.7,0-3.1-1.5-3.1-3.7c0-2.4,1.5-3.9,3.3-3.9
			c1,0,1.7,0.4,2,1h0V5.4H59.7z M57.9,11.8c0-0.1,0-0.3,0-0.5c-0.2-0.7-0.8-1.3-1.6-1.3c-1.2,0-1.8,1-1.8,2.4c0,1.3,0.7,2.3,1.8,2.3
			c0.8,0,1.4-0.5,1.6-1.3c0-0.2,0.1-0.3,0.1-0.5V11.8z"/>
	</g>
	<g>
		<path class="st1" d="M71.2,6.7c0,0.6-0.4,1-1.1,1c-0.6,0-1-0.4-1-1c0-0.6,0.4-1,1-1C70.8,5.7,71.2,6.2,71.2,6.7z M69.3,16.1V8.8
			h1.8v7.3H69.3z"/>
		<path class="st1" d="M72.4,11c0-0.8,0-1.5-0.1-2.2H74l0.1,1.1h0c0.3-0.6,1.1-1.3,2.3-1.3c1.3,0,2.6,0.8,2.6,3.1v4.3h-1.8V12
			c0-1-0.4-1.8-1.4-1.8c-0.7,0-1.2,0.5-1.4,1.1c-0.1,0.2-0.1,0.4-0.1,0.6v4.3h-1.8V11z"/>
	</g>
</g>
</svg>
