<?xml version="1.0" encoding="utf-8"?>
<!-- Generator: Adobe Illustrator 22.1.0, SVG Export Plug-In . SVG Version: 6.00 Build 0)  -->
<svg version="1.1" id="Calque_1" xmlns="http://www.w3.org/2000/svg" xmlns:xlink="http://www.w3.org/1999/xlink" x="0px" y="0px"
	 viewBox="0 0 84.1 22.2" style="enable-background:new 0 0 84.1 22.2;" xml:space="preserve">
<style type="text/css">
	.st0{fill:#12495E;}
	.st1{fill:#FFFFFF;}
</style>
<g>
	<path class="st0" d="M82.9,0H64.7h-1.4H1.2C0.5,0,0,0.5,0,1.2V21c0,0.7,0.5,1.2,1.2,1.2h62.1h1.4h18.2c0.7,0,1.2-0.5,1.2-1.2V1.2
		C84.1,0.5,83.6,0,82.9,0z M1.2,21.1C1.1,21.1,1.1,21,1.2,21.1L1.1,1.2c0,0,0-0.1,0.1-0.1h62.1v1.2v17.5v1.3H1.2z M82.9,21.1
		L82.9,21.1C82.9,21,82.9,21,82.9,21.1L82.9,21.1C83,21,82.9,21.1,82.9,21.1z"/>
	<g>
		<path class="st1" d="M74.8,7.9c-1,0-1.8,0.8-1.8,1.8c0,1,0.8,1.8,1.8,1.8s1.8-0.8,1.8-1.8C76.6,8.7,75.8,7.9,74.8,7.9z"/>
		<path class="st1" d="M74.8,4.5c-3.3,0-6,2.7-6,6c0,1.2,0.4,2.3,1,3.3l-2.1,2.1c-0.1,0.1-0.1,0.3,0,0.4l1.3,1.3
			c0.1,0.1,0.3,0.1,0.4,0l2.1-2.1c1,0.7,2.1,1.1,3.4,1.1c3.3,0,6-2.7,6-6C80.8,7.2,78.1,4.5,74.8,4.5z M76.2,14.2v-1.9h-3v1.9
			c-1.4-0.6-2.4-2-2.4-3.7c0-2.2,1.8-4,4-4s4,1.8,4,4C78.8,12.2,77.7,13.7,76.2,14.2z"/>
	</g>
	<g>
		<path d="M8.2,5.8C8.9,5.6,9.9,5.5,11,5.5c1.4,0,2.4,0.2,3.1,0.8c0.6,0.5,0.9,1.2,0.9,2c0,1.3-0.9,2.2-1.8,2.5v0
			c0.7,0.3,1.2,1,1.4,2c0.3,1.3,0.6,2.4,0.8,2.8h-1.9c-0.2-0.3-0.4-1.1-0.7-2.4c-0.3-1.3-0.8-1.7-1.8-1.8H10v4.2H8.2V5.8z M10,10.2
			h1.1c1.3,0,2-0.7,2-1.7c0-1.1-0.8-1.6-2-1.6c-0.6,0-1,0-1.1,0.1V10.2z"/>
		<path d="M17.3,12.6c0,1.3,1.1,1.9,2.3,1.9c0.8,0,1.5-0.1,2-0.3l0.3,1.3c-0.6,0.3-1.5,0.5-2.5,0.5c-2.4,0-3.8-1.5-3.8-3.7
			c0-2,1.2-3.9,3.6-3.9c2.4,0,3.1,2,3.1,3.5c0,0.3,0,0.6-0.1,0.8H17.3z M20.5,11.3c0-0.7-0.3-1.8-1.5-1.8c-1.1,0-1.6,1-1.7,1.8H20.5
			z"/>
		<path d="M28.3,15.5c-0.4,0.2-1.1,0.4-2.1,0.4c-2.3,0-3.8-1.5-3.8-3.7c0-2.2,1.5-3.9,4.1-3.9c0.7,0,1.4,0.1,1.8,0.3L28,10
			c-0.3-0.1-0.7-0.3-1.4-0.3c-1.4,0-2.2,1-2.2,2.4c0,1.5,1,2.4,2.2,2.4c0.6,0,1.1-0.1,1.4-0.3L28.3,15.5z"/>
		<path d="M29,10.8c0-1,0-1.7-0.1-2.3h1.6l0.1,1.4h0.1c0.4-1,1.2-1.6,2-1.6c0.2,0,0.3,0,0.4,0V10c-0.2,0-0.3-0.1-0.5-0.1
			c-0.9,0-1.5,0.6-1.7,1.4c0,0.2,0,0.4,0,0.6v3.8H29V10.8z"/>
		<path d="M40.1,13.5c0,0.9,0,1.6,0.1,2.2h-1.6l-0.1-1.1h0c-0.3,0.5-1,1.3-2.3,1.3c-1.3,0-2.5-0.8-2.5-3.2V8.4h1.8v4
			c0,1.2,0.4,2,1.4,2c0.7,0,1.2-0.5,1.4-1c0.1-0.2,0.1-0.4,0.1-0.6V8.4h1.8V13.5z"/>
		<path d="M43.3,6.4c0,0.6-0.4,1-1.1,1c-0.6,0-1-0.4-1-1c0-0.6,0.4-1,1-1C42.9,5.4,43.3,5.8,43.3,6.4z M41.4,15.7V8.4h1.8v7.3H41.4z
			"/>
		<path d="M46.6,6.3v2.1h1.8v1.4h-1.8V13c0,0.9,0.2,1.3,0.9,1.3c0.3,0,0.6,0,0.7-0.1l0,1.4c-0.3,0.1-0.8,0.2-1.3,0.2
			c-0.7,0-1.2-0.2-1.6-0.6c-0.4-0.4-0.6-1.1-0.6-2V9.8h-1V8.4h1V6.8L46.6,6.3z"/>
		<path d="M50.2,12.6c0,1.3,1.1,1.9,2.3,1.9c0.8,0,1.5-0.1,2-0.3l0.3,1.3c-0.6,0.3-1.5,0.5-2.5,0.5c-2.4,0-3.8-1.5-3.8-3.7
			c0-2,1.2-3.9,3.6-3.9c2.4,0,3.1,2,3.1,3.5c0,0.3,0,0.6-0.1,0.8H50.2z M53.4,11.3c0-0.7-0.3-1.8-1.5-1.8c-1.1,0-1.6,1-1.7,1.8H53.4
			z"/>
		<path d="M55.9,10.8c0-1,0-1.7-0.1-2.3h1.6l0.1,1.4h0.1c0.4-1,1.2-1.6,2-1.6c0.2,0,0.3,0,0.4,0V10c-0.2,0-0.3-0.1-0.5-0.1
			c-0.9,0-1.5,0.6-1.7,1.4c0,0.2,0,0.4,0,0.6v3.8h-1.8V10.8z"/>
	</g>
</g>
</svg>
