<?xml version="1.0" encoding="utf-8"?>
<!-- Generator: Adobe Illustrator 22.1.0, SVG Export Plug-In . SVG Version: 6.00 Build 0)  -->
<svg version="1.1" id="Calque_1" xmlns="http://www.w3.org/2000/svg" xmlns:xlink="http://www.w3.org/1999/xlink" x="0px" y="0px"
	 viewBox="0 0 84.1 22.2" style="enable-background:new 0 0 84.1 22.2;" xml:space="preserve">
<style type="text/css">
	.st0{fill:#3BB3DF;}
	.st1{fill:#FFFFFF;}
</style>
<g>
	<path class="st0" d="M82.9,0H64.7h-1.4H1.2C0.5,0,0,0.5,0,1.2V21c0,0.7,0.5,1.2,1.2,1.2h62.1h1.4h18.2c0.7,0,1.2-0.5,1.2-1.2V1.2
		C84.1,0.5,83.6,0,82.9,0z M1.2,21.1C1.1,21.1,1.1,21,1.2,21.1L1.1,1.2c0,0,0-0.1,0.1-0.1h62.1v1.2v17.5v1.3H1.2z M82.9,21.1
		L82.9,21.1C82.9,21,82.9,21,82.9,21.1L82.9,21.1C83,21,82.9,21.1,82.9,21.1z"/>
	<g>
		<path class="st1" d="M74.1,12.5c0.8-0.4,1.3-1.5,0.5-2.2c-0.8-0.8-1.7-0.2-1.8-0.1c-0.6,0.7-1.2,2.2-2,3.9
			C70.8,14.1,73.7,12.8,74.1,12.5z"/>
		<path class="st1" d="M73.7,3.9c-3.9,0-7.1,3.2-7.1,7.1s3.2,7.1,7.1,7.1c3.9,0,7.1-3.2,7.1-7.1S77.6,3.9,73.7,3.9z M75.4,12.5
			c0,0-0.4,0.8-6.2,3.2c0,0,1.3-3.3,2.8-5.7c0,0,0.8-1,6.1-3.2C78.2,6.7,77.2,9.4,75.4,12.5z"/>
	</g>
	<g>
		<path d="M5.9,14c0.6,0.3,1.5,0.6,2.4,0.6c1.2,0,1.8-0.6,1.8-1.4c0-0.8-0.5-1.2-1.8-1.7C6.7,11,5.7,10.1,5.7,8.6
			C5.7,7,7,5.7,9.2,5.7c1.1,0,1.9,0.2,2.4,0.5l-0.4,1.5c-0.4-0.2-1.1-0.5-2-0.5C8,7.2,7.5,7.8,7.5,8.4c0,0.8,0.6,1.1,1.9,1.7
			c1.8,0.7,2.6,1.5,2.6,3c0,1.6-1.2,3-3.8,3c-1.1,0-2.2-0.3-2.7-0.6L5.9,14z"/>
		<path d="M17.1,16L17,15.2h0c-0.4,0.6-1.2,1-2.1,1c-1.5,0-2.3-1.1-2.3-2.2c0-1.8,1.6-2.8,4.3-2.8v-0.1c0-0.5-0.2-1.3-1.5-1.3
			c-0.7,0-1.5,0.2-2,0.5L13,9.2c0.6-0.3,1.5-0.6,2.6-0.6c2.3,0,3,1.5,3,3.1v2.6c0,0.7,0,1.3,0.1,1.8H17.1z M16.9,12.4
			c-1.3,0-2.5,0.3-2.5,1.4c0,0.7,0.5,1.1,1.1,1.1c0.7,0,1.3-0.5,1.4-1c0-0.1,0.1-0.3,0.1-0.4V12.4z"/>
		<path d="M19.9,5.3h1.8V16h-1.8V5.3z"/>
		<path d="M24.3,12.8c0,1.3,1.1,1.9,2.3,1.9c0.8,0,1.5-0.1,2-0.3l0.3,1.3c-0.6,0.3-1.5,0.5-2.5,0.5c-2.4,0-3.8-1.5-3.8-3.7
			c0-2,1.2-3.9,3.6-3.9c2.4,0,3.1,2,3.1,3.5c0,0.3,0,0.6-0.1,0.8H24.3z M27.5,11.5c0-0.7-0.3-1.8-1.5-1.8c-1.1,0-1.6,1-1.7,1.8H27.5
			z"/>
		<path d="M30,14.3c0.4,0.3,1.2,0.5,1.9,0.5c0.8,0,1.2-0.3,1.2-0.8c0-0.5-0.3-0.7-1.2-1.1c-1.4-0.5-2-1.3-2-2.1
			c0-1.3,1.1-2.3,2.8-2.3c0.8,0,1.5,0.2,1.9,0.4l-0.4,1.3c-0.3-0.2-0.9-0.4-1.5-0.4c-0.7,0-1,0.3-1,0.8c0,0.5,0.4,0.7,1.3,1
			c1.3,0.5,1.9,1.1,1.9,2.2c0,1.3-1,2.3-3,2.3c-0.9,0-1.7-0.2-2.2-0.5L30,14.3z"/>
		<path d="M35.6,16V5.9h2.1l2.6,4.3c0.7,1.1,1.3,2.3,1.7,3.4l0,0C42,12.2,42,10.9,42,9.4V5.9h1.7V16h-1.9l-2.6-4.4
			c-0.6-1.1-1.3-2.3-1.8-3.5l0,0c0.1,1.3,0.1,2.6,0.1,4.3V16H35.6z"/>
		<path d="M49.1,16L49,15.2h0c-0.4,0.6-1.2,1-2.1,1c-1.5,0-2.3-1.1-2.3-2.2c0-1.8,1.6-2.8,4.3-2.8v-0.1c0-0.5-0.2-1.3-1.5-1.3
			c-0.7,0-1.5,0.2-2,0.5L45,9.2c0.6-0.3,1.5-0.6,2.6-0.6c2.3,0,3,1.5,3,3.1v2.6c0,0.7,0,1.3,0.1,1.8H49.1z M48.9,12.4
			c-1.3,0-2.5,0.3-2.5,1.4c0,0.7,0.5,1.1,1.1,1.1c0.7,0,1.3-0.5,1.4-1c0-0.1,0.1-0.3,0.1-0.4V12.4z"/>
		<path d="M52.9,8.7l1.2,3.7c0.2,0.6,0.4,1.2,0.5,1.8h0c0.1-0.6,0.3-1.2,0.5-1.8l1.2-3.7h1.9L55.4,16h-1.8l-2.7-7.3H52.9z"/>
		<path d="M57.7,14.9c0-0.7,0.5-1.2,1.1-1.2c0.7,0,1.1,0.5,1.1,1.2c0,0.7-0.5,1.2-1.1,1.2C58.2,16.1,57.7,15.6,57.7,14.9z"/>
	</g>
</g>
</svg>
