<?xml version="1.0" encoding="utf-8"?>
<!-- Generator: Adobe Illustrator 22.1.0, SVG Export Plug-In . SVG Version: 6.00 Build 0)  -->
<svg version="1.1" id="Calque_1" xmlns="http://www.w3.org/2000/svg" xmlns:xlink="http://www.w3.org/1999/xlink" x="0px" y="0px"
	 viewBox="0 0 22.2 22.2" style="enable-background:new 0 0 22.2 22.2;" xml:space="preserve">
<style type="text/css">
	.st0{fill:#2F8C89;}
	.st1{fill:#FFFFFF;}
</style>
<g>
	<circle class="st0" cx="11.1" cy="11.1" r="11.1"/>
	<path class="st1" d="M17.4,5.8l-1-1c-0.8-0.8-2.1-0.8-3,0l-7.5,7.5l-0.1,0.1l-1.6,4.8c-0.1,0.2,0,0.5,0.1,0.6C4.5,18,4.6,18,4.8,18
		c0.1,0,0.1,0,0.2,0l4.6-1.5l7.9-7.7C18.2,7.9,18.2,6.6,17.4,5.8z M8.2,15.6l-2.5,0.8l0.8-2.5L8.2,15.6z M15.4,8.9L9.4,15l-2.2-2.2
		l6.1-6.1L15.4,8.9z M15.5,5.6l1,1c0.3,0.3,0.3,0.9,0,1.2l-0.2,0.2l-2.2-2.2l0.2-0.2C14.7,5.3,15.2,5.3,15.5,5.6z M9.6,16.2
		L9.6,16.2L9.6,16.2L9.6,16.2z"/>
</g>
</svg>
